<svg width="30" height="30" viewBox="0 0 30 30" fill="none" xmlns="http://www.w3.org/2000/svg">
<path d="M26.375 21.5312C26.0625 21.8438 25.6925 22 25.265 22C24.8383 22 24.4688 21.8438 24.1562 21.5312L15 12.375L5.8125 21.5625C5.52083 21.8542 5.15625 22 4.71875 22C4.28125 22 3.90625 21.8438 3.59375 21.5312C3.28125 21.2188 3.125 20.8487 3.125 20.4212C3.125 19.9946 3.28125 19.625 3.59375 19.3125L14.125 8.8125C14.25 8.6875 14.3854 8.59875 14.5312 8.54625C14.6771 8.49458 14.8333 8.46875 15 8.46875C15.1667 8.46875 15.3229 8.49458 15.4688 8.54625C15.6146 8.59875 15.75 8.6875 15.875 8.8125L26.4062 19.3438C26.6979 19.6354 26.8438 19.9946 26.8438 20.4212C26.8438 20.8487 26.6875 21.2188 26.375 21.5312Z" fill="black"/>
</svg>
