<svg width="19" height="15" viewBox="0 0 19 15" fill="none" xmlns="http://www.w3.org/2000/svg">
<g clip-path="url(#clip0_0_28)">
<path d="M18.9996 1.79926C18.2881 2.09953 17.5335 2.29662 16.7608 2.38399C17.5657 1.92441 18.1837 1.19663 18.4747 0.329501C17.7095 0.762067 16.8724 1.06684 15.9994 1.23064C15.2884 0.508952 14.2754 0.0579208 13.1542 0.0579208C11.0014 0.0579208 9.25607 1.72063 9.25607 3.77138C9.25607 4.06247 9.29058 4.34586 9.35701 4.61772C6.11743 4.46281 3.24522 2.98442 1.32262 0.737684C0.987163 1.28615 0.794941 1.92412 0.794941 2.60459C0.794941 3.89299 1.48316 5.02958 2.52903 5.69556C1.91002 5.67709 1.30463 5.51781 0.763398 5.23102C0.763176 5.24658 0.763176 5.26213 0.763176 5.27776C0.763176 7.077 2.1068 8.57794 3.88995 8.9191C3.31594 9.06782 2.71385 9.08958 2.12966 8.98273C2.62566 10.4581 4.06525 11.5317 5.77091 11.5617C4.43685 12.5577 2.75606 13.1514 0.929867 13.1514C0.615187 13.1514 0.304959 13.1338 0 13.0995C1.72503 14.1531 3.77395 14.7679 5.97523 14.7679C13.1451 14.7679 17.0658 9.10929 17.0658 4.20205C17.0658 4.04098 17.0621 3.88083 17.0545 3.7216C17.8176 3.19604 18.4763 2.54507 18.9996 1.79926Z" fill="white"/>
</g>
<defs>
<clipPath id="clip0_0_28">
<rect width="18.9" height="14.7" fill="white" transform="scale(1.00527)"/>
</clipPath>
</defs>
</svg>
