<svg width="32" height="32" viewBox="0 0 32 32" fill="none" xmlns="http://www.w3.org/2000/svg">
<path d="M11.8336 3.86614L23.0669 15.0661C23.2003 15.1995 23.2945 15.3439 23.3496 15.4995C23.4056 15.655 23.4336 15.8217 23.4336 15.9995C23.4336 16.1773 23.4056 16.3439 23.3496 16.4995C23.2945 16.655 23.2003 16.7995 23.0669 16.9328L11.8336 28.1661C11.5225 28.4773 11.1336 28.6328 10.6669 28.6328C10.2003 28.6328 9.80026 28.4661 9.46693 28.1328C9.13359 27.7995 8.96693 27.4106 8.96693 26.9661C8.96693 26.5217 9.13359 26.1328 9.46693 25.7995L19.2669 15.9995L9.46693 6.19948C9.15582 5.88837 9.00026 5.50526 9.00026 5.05014C9.00026 4.59414 9.16693 4.19948 9.50026 3.86614C9.83359 3.53281 10.2225 3.36614 10.6669 3.36614C11.1114 3.36614 11.5003 3.53281 11.8336 3.86614Z" fill="white"/>
</svg>
