<svg width="30" height="30" viewBox="0 0 30 30" fill="none" xmlns="http://www.w3.org/2000/svg">
<path d="M15.8453 21.8258L9.52657 15.5258C9.45157 15.4508 9.39832 15.3695 9.36682 15.282C9.33532 15.1945 9.31982 15.1008 9.32032 15.0008C9.32032 14.9008 9.33607 14.807 9.36757 14.7195C9.39907 14.632 9.45207 14.5508 9.52657 14.4758L15.8453 8.15703C16.0203 7.98203 16.2391 7.89453 16.5016 7.89453C16.7641 7.89453 16.9891 7.98828 17.1766 8.17578C17.3641 8.36328 17.4578 8.58203 17.4578 8.83203C17.4578 9.08203 17.3641 9.30078 17.1766 9.48828L11.6641 15.0008L17.1766 20.5133C17.3516 20.6883 17.4391 20.904 17.4391 21.1605C17.4391 21.417 17.3453 21.6388 17.1578 21.8258C16.9703 22.0133 16.7516 22.107 16.5016 22.107C16.2516 22.107 16.0328 22.0133 15.8453 21.8258Z" fill="white"/>
<circle cx="15" cy="15" r="14.5" stroke="white"/>
</svg>
