<svg width="32" height="32" viewBox="0 0 32 32" fill="none" xmlns="http://www.w3.org/2000/svg">
<path d="M3.86614 11.8336L15.0661 23.0669C15.1995 23.2003 15.3439 23.2945 15.4995 23.3496C15.655 23.4056 15.8217 23.4336 15.9995 23.4336C16.1773 23.4336 16.3439 23.4056 16.4995 23.3496C16.655 23.2945 16.7995 23.2003 16.9328 23.0669L28.1661 11.8336C28.4773 11.5225 28.6328 11.1336 28.6328 10.6669C28.6328 10.2003 28.4661 9.80026 28.1328 9.46693C27.7995 9.13359 27.4106 8.96693 26.9661 8.96693C26.5217 8.96693 26.1328 9.13359 25.7995 9.46693L15.9995 19.2669L6.19948 9.46693C5.88837 9.15582 5.50526 9.00026 5.05014 9.00026C4.59414 9.00026 4.19948 9.16693 3.86614 9.50026C3.53281 9.83359 3.36614 10.2225 3.36614 10.6669C3.36614 11.1114 3.53281 11.5003 3.86614 11.8336Z" fill="white"/>
</svg>
