<svg width="30" height="20" viewBox="0 0 30 20" fill="none" xmlns="http://www.w3.org/2000/svg">
<path d="M20.3991 19.3182C25.701 19.3182 29.9991 14.9936 29.9991 9.65908C29.9991 4.32452 25.701 0 20.3991 0C15.0971 0 10.7991 4.32452 10.7991 9.65908C10.7991 14.9936 15.0971 19.3182 20.3991 19.3182Z" fill="#F99600"/>
<path d="M9.60003 19.3182C14.902 19.3182 19.2001 14.9936 19.2001 9.65908C19.2001 4.32452 14.902 0 9.60003 0C4.29808 0 0 4.32452 0 9.65908C0 14.9936 4.29808 19.3182 9.60003 19.3182Z" fill="#EC000A"/>
<path fill-rule="evenodd" clip-rule="evenodd" d="M14.9991 17.6466C12.4637 15.908 10.7991 12.9793 10.7991 9.65936C10.7991 6.33945 12.4637 3.41073 14.9991 1.67212C17.5344 3.41073 19.1991 6.33945 19.1991 9.65936C19.1991 12.9793 17.5344 15.908 14.9991 17.6466Z" fill="#FF5300"/>
</svg>
