<svg width="182" height="15" viewBox="0 0 182 15" fill="none" xmlns="http://www.w3.org/2000/svg">
<path d="M0 11.1776L4.68072 0.841643H6.14252L10.838 11.1776H9.28761L5.10893 1.66852H5.69955L1.52087 11.1776H0ZM1.99337 8.59363L2.39204 7.41237H8.20972L8.63792 8.59363H1.99337Z" fill="white"/>
<path d="M16.3223 11.2662C15.6726 11.2662 15.0771 11.1186 14.5357 10.8232C14.0041 10.5181 13.5759 10.0702 13.251 9.47957C12.936 8.88894 12.7785 8.15065 12.7785 7.26471C12.7785 6.37877 12.9311 5.64049 13.2363 5.04986C13.5513 4.45924 13.9746 4.01626 14.5061 3.72095C15.0475 3.42564 15.6529 3.27798 16.3223 3.27798C17.0901 3.27798 17.7693 3.44533 18.36 3.78001C18.9506 4.1147 19.4182 4.58228 19.7627 5.18275C20.1072 5.77338 20.2795 6.46737 20.2795 7.26471C20.2795 8.06206 20.1072 8.76097 19.7627 9.36144C19.4182 9.96191 18.9506 10.4295 18.36 10.7642C17.7693 11.0989 17.0901 11.2662 16.3223 11.2662ZM12.1731 14.0422V3.35181H13.5316V5.4633L13.443 7.27948L13.5907 9.09566V14.0422H12.1731ZM16.2042 10.0259C16.7062 10.0259 17.1541 9.91269 17.5479 9.68629C17.9515 9.45988 18.2665 9.13996 18.4929 8.72652C18.7291 8.30323 18.8472 7.81597 18.8472 7.26471C18.8472 6.70362 18.7291 6.22127 18.4929 5.81768C18.2665 5.40424 17.9515 5.08432 17.5479 4.85791C17.1541 4.6315 16.7062 4.5183 16.2042 4.5183C15.712 4.5183 15.2641 4.6315 14.8605 4.85791C14.4668 5.08432 14.1518 5.40424 13.9155 5.81768C13.6891 6.22127 13.5759 6.70362 13.5759 7.26471C13.5759 7.81597 13.6891 8.30323 13.9155 8.72652C14.1518 9.13996 14.4668 9.45988 14.8605 9.68629C15.2641 9.91269 15.712 10.0259 16.2042 10.0259Z" fill="white"/>
<path d="M26.3872 11.2662C25.7375 11.2662 25.142 11.1186 24.6005 10.8232C24.069 10.5181 23.6408 10.0702 23.3159 9.47957C23.0009 8.88894 22.8434 8.15065 22.8434 7.26471C22.8434 6.37877 22.996 5.64049 23.3012 5.04986C23.6162 4.45924 24.0394 4.01626 24.571 3.72095C25.1124 3.42564 25.7178 3.27798 26.3872 3.27798C27.155 3.27798 27.8342 3.44533 28.4249 3.78001C29.0155 4.1147 29.4831 4.58228 29.8276 5.18275C30.1721 5.77338 30.3444 6.46737 30.3444 7.26471C30.3444 8.06206 30.1721 8.76097 29.8276 9.36144C29.4831 9.96191 29.0155 10.4295 28.4249 10.7642C27.8342 11.0989 27.155 11.2662 26.3872 11.2662ZM22.238 14.0422V3.35181H23.5965V5.4633L23.5079 7.27948L23.6555 9.09566V14.0422H22.238ZM26.2691 10.0259C26.7711 10.0259 27.219 9.91269 27.6127 9.68629C28.0163 9.45988 28.3313 9.13996 28.5577 8.72652C28.794 8.30323 28.9121 7.81597 28.9121 7.26471C28.9121 6.70362 28.794 6.22127 28.5577 5.81768C28.3313 5.40424 28.0163 5.08432 27.6127 4.85791C27.219 4.6315 26.7711 4.5183 26.2691 4.5183C25.7769 4.5183 25.329 4.6315 24.9254 4.85791C24.5316 5.08432 24.2166 5.40424 23.9804 5.81768C23.754 6.22127 23.6408 6.70362 23.6408 7.26471C23.6408 7.81597 23.754 8.30323 23.9804 8.72652C24.2166 9.13996 24.5316 9.45988 24.9254 9.68629C25.329 9.91269 25.7769 10.0259 26.2691 10.0259Z" fill="white"/>
<path d="M32.3029 11.1776V0.221485H33.7204V11.1776H32.3029Z" fill="white"/>
<path d="M36.7665 14.1308C36.3925 14.1308 36.0283 14.0668 35.6739 13.9388C35.3195 13.8207 35.0144 13.6435 34.7584 13.4072L35.3638 12.3441C35.5607 12.5311 35.7772 12.6739 36.0135 12.7723C36.2497 12.8708 36.5008 12.92 36.7665 12.92C37.1111 12.92 37.3965 12.8314 37.623 12.6542C37.8494 12.477 38.061 12.162 38.2579 11.7092L38.7451 10.6313L38.8928 10.4541L41.9641 3.35181H43.352L39.5573 11.9602C39.3309 12.5115 39.0749 12.9446 38.7894 13.2596C38.5138 13.5746 38.2087 13.7961 37.874 13.924C37.5393 14.0618 37.1701 14.1308 36.7665 14.1308ZM38.627 11.4286L35.0537 3.35181H36.5303L39.572 10.3212L38.627 11.4286Z" fill="white"/>
<path d="M48.8471 11.1776V2.65782C48.8471 1.89001 49.0685 1.27969 49.5115 0.826878C49.9643 0.36422 50.6042 0.132891 51.4311 0.132891C51.7362 0.132891 52.0266 0.172266 52.3022 0.251017C52.5877 0.319923 52.8289 0.433127 53.0257 0.590628L52.5975 1.66852C52.4499 1.5504 52.2825 1.4618 52.0955 1.40274C51.9085 1.33383 51.7116 1.29938 51.5049 1.29938C51.0914 1.29938 50.7764 1.41751 50.5599 1.65376C50.3433 1.88016 50.235 2.21977 50.235 2.67259V3.72095L50.2646 4.37064V11.1776H48.8471ZM47.5182 4.5183V3.35181H52.5089V4.5183H47.5182Z" fill="white"/>
<path d="M53.8458 11.1776V3.35181H55.2043V5.47807L55.0714 4.9465C55.2879 4.40509 55.6522 3.99166 56.164 3.70619C56.6759 3.42072 57.3059 3.27798 58.054 3.27798V4.65119C57.995 4.64135 57.9359 4.63642 57.8769 4.63642C57.8276 4.63642 57.7784 4.63642 57.7292 4.63642C56.9712 4.63642 56.3708 4.86283 55.9278 5.31565C55.4848 5.76846 55.2633 6.42307 55.2633 7.27948V11.1776H53.8458Z" fill="white"/>
<path d="M63.0808 11.2662C62.2933 11.2662 61.5944 11.0939 60.9841 10.7494C60.3738 10.4049 59.8914 9.93238 59.5371 9.33191C59.1827 8.72159 59.0055 8.03253 59.0055 7.26471C59.0055 6.48706 59.1827 5.79799 59.5371 5.19752C59.8914 4.59705 60.3738 4.12947 60.9841 3.79478C61.5944 3.45025 62.2933 3.27798 63.0808 3.27798C63.8585 3.27798 64.5525 3.45025 65.1628 3.79478C65.783 4.12947 66.2653 4.59705 66.6098 5.19752C66.9642 5.78815 67.1414 6.47721 67.1414 7.26471C67.1414 8.04237 66.9642 8.73144 66.6098 9.33191C66.2653 9.93238 65.783 10.4049 65.1628 10.7494C64.5525 11.0939 63.8585 11.2662 63.0808 11.2662ZM63.0808 10.0259C63.5829 10.0259 64.0308 9.91269 64.4245 9.68629C64.8281 9.45988 65.1431 9.13996 65.3695 8.72652C65.5959 8.30323 65.7091 7.81597 65.7091 7.26471C65.7091 6.70362 65.5959 6.22127 65.3695 5.81768C65.1431 5.40424 64.8281 5.08432 64.4245 4.85791C64.0308 4.6315 63.5829 4.5183 63.0808 4.5183C62.5788 4.5183 62.1309 4.6315 61.7372 4.85791C61.3434 5.08432 61.0284 5.40424 60.7922 5.81768C60.5559 6.22127 60.4378 6.70362 60.4378 7.26471C60.4378 7.81597 60.5559 8.30323 60.7922 8.72652C61.0284 9.13996 61.3434 9.45988 61.7372 9.68629C62.1309 9.91269 62.5788 10.0259 63.0808 10.0259Z" fill="white"/>
<path d="M78.8914 3.27798C79.5214 3.27798 80.0776 3.40103 80.5599 3.64712C81.0423 3.89322 81.4163 4.26728 81.6821 4.76931C81.9577 5.27135 82.0956 5.90627 82.0956 6.67409V11.1776H80.6781V6.83651C80.6781 6.07854 80.5009 5.5076 80.1465 5.12369C79.7921 4.73978 79.295 4.54783 78.6552 4.54783C78.1827 4.54783 77.7692 4.64627 77.4148 4.84314C77.0605 5.04002 76.7848 5.33041 76.588 5.71432C76.4009 6.09823 76.3074 6.57565 76.3074 7.14659V11.1776H74.8899V6.83651C74.8899 6.07854 74.7127 5.5076 74.3583 5.12369C74.0138 4.73978 73.5167 4.54783 72.867 4.54783C72.4044 4.54783 71.9958 4.64627 71.6415 4.84314C71.2871 5.04002 71.0115 5.33041 70.8146 5.71432C70.6177 6.09823 70.5193 6.57565 70.5193 7.14659V11.1776H69.1018V3.35181H70.4602V5.43377L70.2387 4.90221C70.4848 4.39033 70.8638 3.99166 71.3757 3.70619C71.8876 3.42072 72.4831 3.27798 73.1623 3.27798C73.9105 3.27798 74.5552 3.46501 75.0966 3.83908C75.638 4.2033 75.9924 4.75947 76.1598 5.5076L75.5839 5.27135C75.8201 4.67088 76.2336 4.18853 76.8242 3.82431C77.4148 3.46009 78.1039 3.27798 78.8914 3.27798Z" fill="white"/>
<path d="M93.4976 11.2957C92.7101 11.2957 91.9816 11.1678 91.3122 10.9118C90.6527 10.6461 90.0768 10.2769 89.5846 9.80441C89.1023 9.32207 88.7233 8.76097 88.4477 8.12112C88.1721 7.48128 88.0342 6.77745 88.0342 6.00963C88.0342 5.24182 88.1721 4.53799 88.4477 3.89814C88.7233 3.25829 89.1072 2.70212 89.5994 2.22962C90.0916 1.74727 90.6675 1.37813 91.327 1.12219C91.9964 0.85641 92.7248 0.723519 93.5123 0.723519C94.3097 0.723519 95.043 0.861332 95.7124 1.13696C96.3916 1.40274 96.9675 1.80141 97.44 2.33298L96.4802 3.26322C96.0865 2.84978 95.6435 2.54462 95.1513 2.34774C94.6591 2.14102 94.1325 2.03766 93.5714 2.03766C92.9906 2.03766 92.4492 2.1361 91.9472 2.33298C91.455 2.52985 91.0268 2.80548 90.6625 3.15986C90.2983 3.51423 90.0129 3.93751 89.8061 4.4297C89.6093 4.91205 89.5108 5.43869 89.5108 6.00963C89.5108 6.58057 89.6093 7.11214 89.8061 7.60433C90.0129 8.08667 90.2983 8.50503 90.6625 8.85941C91.0268 9.21378 91.455 9.48941 91.9472 9.68629C92.4492 9.88316 92.9906 9.9816 93.5714 9.9816C94.1325 9.9816 94.6591 9.88316 95.1513 9.68629C95.6435 9.47957 96.0865 9.16457 96.4802 8.74128L97.44 9.67152C96.9675 10.2031 96.3916 10.6067 95.7124 10.8823C95.043 11.1579 94.3047 11.2957 93.4976 11.2957Z" fill="white"/>
<path d="M99.5464 11.1776V0.841643H103.902C105.005 0.841643 105.974 1.05821 106.811 1.49133C107.658 1.92446 108.312 2.52985 108.775 3.30751C109.247 4.08517 109.484 4.98588 109.484 6.00963C109.484 7.03339 109.247 7.93409 108.775 8.71175C108.312 9.48941 107.658 10.0948 106.811 10.5279C105.974 10.9611 105.005 11.1776 103.902 11.1776H99.5464ZM101.023 9.893H103.814C104.67 9.893 105.408 9.73058 106.029 9.40574C106.659 9.08089 107.146 8.62808 107.49 8.0473C107.835 7.45667 108.007 6.77745 108.007 6.00963C108.007 5.23197 107.835 4.55275 107.49 3.97197C107.146 3.39118 106.659 2.93837 106.029 2.61353C105.408 2.28868 104.67 2.12626 103.814 2.12626H101.023V9.893Z" fill="white"/>
<path d="M111.745 11.1776V0.841643H116.382C117.573 0.841643 118.488 1.08282 119.128 1.56516C119.768 2.03766 120.088 2.68735 120.088 3.51423C120.088 4.07533 119.96 4.54783 119.704 4.93174C119.458 5.31564 119.123 5.61096 118.7 5.81768C118.277 6.0244 117.819 6.12776 117.327 6.12776L117.593 5.68479C118.183 5.68479 118.705 5.78815 119.158 5.99487C119.611 6.20159 119.97 6.50674 120.236 6.91034C120.501 7.30409 120.634 7.79628 120.634 8.38691C120.634 9.27285 120.3 9.96191 119.63 10.4541C118.971 10.9364 117.986 11.1776 116.677 11.1776H111.745ZM113.222 9.9816H116.618C117.435 9.9816 118.06 9.84379 118.493 9.56816C118.926 9.29254 119.143 8.85941 119.143 8.26878C119.143 7.66831 118.926 7.23026 118.493 6.95464C118.06 6.67901 117.435 6.5412 116.618 6.5412H113.089V5.34518H116.249C116.997 5.34518 117.578 5.20736 117.991 4.93174C118.405 4.65611 118.611 4.24267 118.611 3.69142C118.611 3.14017 118.405 2.72673 117.991 2.4511C117.578 2.17548 116.997 2.03766 116.249 2.03766H113.222V9.9816Z" fill="white"/>
<path d="M125.933 11.2957C125.145 11.2957 124.392 11.1776 123.674 10.9414C122.955 10.6953 122.389 10.3803 121.976 9.99637L122.522 8.84464C122.916 9.18918 123.418 9.47464 124.028 9.70105C124.638 9.92746 125.273 10.0407 125.933 10.0407C126.533 10.0407 127.021 9.97176 127.395 9.83394C127.769 9.69613 128.044 9.5091 128.221 9.27285C128.399 9.02675 128.487 8.75113 128.487 8.44597C128.487 8.09159 128.369 7.80612 128.133 7.58956C127.906 7.373 127.606 7.20073 127.232 7.07276C126.868 6.93495 126.464 6.81682 126.021 6.71838C125.578 6.61995 125.131 6.50674 124.678 6.37877C124.235 6.24096 123.826 6.06869 123.452 5.86197C123.088 5.65526 122.793 5.37963 122.566 5.0351C122.34 4.68072 122.227 4.22791 122.227 3.67665C122.227 3.14509 122.364 2.65782 122.64 2.21485C122.926 1.76204 123.359 1.40274 123.939 1.13696C124.53 0.861332 125.278 0.723519 126.184 0.723519C126.784 0.723519 127.38 0.802269 127.97 0.959769C128.561 1.11727 129.073 1.34368 129.506 1.63899L129.019 2.82024C128.576 2.52493 128.108 2.31329 127.616 2.18532C127.124 2.04751 126.646 1.9786 126.184 1.9786C125.603 1.9786 125.126 2.05243 124.752 2.20009C124.377 2.34774 124.102 2.54462 123.925 2.79071C123.757 3.03681 123.674 3.31243 123.674 3.61759C123.674 3.98181 123.787 4.2722 124.013 4.48877C124.25 4.70533 124.55 4.8776 124.914 5.00557C125.288 5.13353 125.697 5.25166 126.14 5.35994C126.582 5.45838 127.025 5.57158 127.468 5.69955C127.921 5.82752 128.33 5.99487 128.694 6.20159C129.068 6.40831 129.368 6.68393 129.595 7.02846C129.821 7.373 129.934 7.81597 129.934 8.35738C129.934 8.8791 129.792 9.36636 129.506 9.81918C129.221 10.2621 128.778 10.6214 128.177 10.8971C127.587 11.1629 126.838 11.2957 125.933 11.2957Z" fill="white"/>
<path d="M136.057 11.1776V0.841643H140.088C140.993 0.841643 141.766 0.984378 142.406 1.26985C143.046 1.55532 143.538 1.96876 143.883 2.51017C144.227 3.05157 144.399 3.69634 144.399 4.44447C144.399 5.1926 144.227 5.83737 143.883 6.37877C143.538 6.91034 143.046 7.32378 142.406 7.61909C141.766 7.90456 140.993 8.0473 140.088 8.0473H136.869L137.533 7.35331V11.1776H136.057ZM137.533 7.50097L136.869 6.76268H140.044C140.989 6.76268 141.702 6.56088 142.185 6.15729C142.677 5.75369 142.923 5.18275 142.923 4.44447C142.923 3.70619 142.677 3.13525 142.185 2.73165C141.702 2.32806 140.989 2.12626 140.044 2.12626H136.869L137.533 1.38797V7.50097Z" fill="white"/>
<path d="M146.218 11.1776V3.35181H147.576V5.47807L147.443 4.9465C147.66 4.40509 148.024 3.99166 148.536 3.70619C149.048 3.42072 149.678 3.27798 150.426 3.27798V4.65119C150.367 4.64135 150.308 4.63642 150.249 4.63642C150.2 4.63642 150.15 4.63642 150.101 4.63642C149.343 4.63642 148.743 4.86283 148.3 5.31565C147.857 5.76846 147.635 6.42307 147.635 7.27948V11.1776H146.218Z" fill="white"/>
<path d="M155.453 11.2662C154.665 11.2662 153.966 11.0939 153.356 10.7494C152.746 10.4049 152.263 9.93238 151.909 9.33191C151.555 8.72159 151.378 8.03253 151.378 7.26471C151.378 6.48706 151.555 5.79799 151.909 5.19752C152.263 4.59705 152.746 4.12947 153.356 3.79478C153.966 3.45025 154.665 3.27798 155.453 3.27798C156.23 3.27798 156.924 3.45025 157.535 3.79478C158.155 4.12947 158.637 4.59705 158.982 5.19752C159.336 5.78815 159.513 6.47721 159.513 7.26471C159.513 8.04237 159.336 8.73144 158.982 9.33191C158.637 9.93238 158.155 10.4049 157.535 10.7494C156.924 11.0939 156.23 11.2662 155.453 11.2662ZM155.453 10.0259C155.955 10.0259 156.403 9.91269 156.797 9.68629C157.2 9.45988 157.515 9.13996 157.742 8.72652C157.968 8.30323 158.081 7.81597 158.081 7.26471C158.081 6.70362 157.968 6.22127 157.742 5.81768C157.515 5.40424 157.2 5.08432 156.797 4.85791C156.403 4.6315 155.955 4.5183 155.453 4.5183C154.951 4.5183 154.503 4.6315 154.109 4.85791C153.715 5.08432 153.4 5.40424 153.164 5.81768C152.928 6.22127 152.81 6.70362 152.81 7.26471C152.81 7.81597 152.928 8.30323 153.164 8.72652C153.4 9.13996 153.715 9.45988 154.109 9.68629C154.503 9.91269 154.951 10.0259 155.453 10.0259Z" fill="white"/>
<path d="M161.68 11.1776V2.65782C161.68 1.89001 161.902 1.27969 162.345 0.826878C162.798 0.36422 163.438 0.132891 164.264 0.132891C164.57 0.132891 164.86 0.172266 165.136 0.251017C165.421 0.319923 165.662 0.433127 165.859 0.590628L165.431 1.66852C165.283 1.5504 165.116 1.4618 164.929 1.40274C164.742 1.33383 164.545 1.29938 164.338 1.29938C163.925 1.29938 163.61 1.41751 163.393 1.65376C163.177 1.88016 163.068 2.21977 163.068 2.67259V3.72095L163.098 4.37064V11.1776H161.68ZM160.352 4.5183V3.35181H165.342V4.5183H160.352ZM166.686 11.1776V3.35181H168.104V11.1776H166.686ZM167.395 1.84571C167.119 1.84571 166.888 1.75712 166.701 1.57993C166.524 1.40274 166.435 1.18618 166.435 0.930238C166.435 0.664456 166.524 0.442971 166.701 0.265783C166.888 0.0885943 167.119 0 167.395 0C167.67 0 167.897 0.0885943 168.074 0.265783C168.261 0.433127 168.355 0.644768 168.355 0.900706C168.355 1.16649 168.266 1.3929 168.089 1.57993C167.912 1.75712 167.68 1.84571 167.395 1.84571Z" fill="white"/>
<path d="M170.803 11.1776V0.221485H172.221V11.1776H170.803Z" fill="white"/>
<path d="M178.412 11.2662C177.575 11.2662 176.837 11.0939 176.197 10.7494C175.567 10.4049 175.075 9.93238 174.721 9.33191C174.376 8.73144 174.204 8.04237 174.204 7.26471C174.204 6.48706 174.371 5.79799 174.706 5.19752C175.05 4.59705 175.518 4.12947 176.109 3.79478C176.709 3.45025 177.383 3.27798 178.131 3.27798C178.889 3.27798 179.559 3.44533 180.14 3.78001C180.72 4.1147 181.173 4.5872 181.498 5.19752C181.833 5.79799 182 6.50182 182 7.30901C182 7.36807 181.995 7.43698 181.985 7.51573C181.985 7.59448 181.98 7.66831 181.97 7.73722H175.311V6.71838H181.232L180.656 7.07276C180.666 6.57073 180.563 6.12283 180.346 5.72908C180.13 5.33533 179.829 5.03017 179.446 4.81361C179.072 4.5872 178.633 4.474 178.131 4.474C177.639 4.474 177.201 4.5872 176.817 4.81361C176.433 5.03017 176.133 5.34025 175.917 5.74385C175.7 6.1376 175.592 6.59041 175.592 7.10229V7.33854C175.592 7.86026 175.71 8.32784 175.946 8.74128C176.192 9.14488 176.532 9.45988 176.965 9.68629C177.398 9.91269 177.895 10.0259 178.456 10.0259C178.919 10.0259 179.337 9.94715 179.711 9.78965C180.095 9.63214 180.43 9.39589 180.715 9.08089L181.498 9.99637C181.144 10.4098 180.701 10.7248 180.169 10.9414C179.647 11.1579 179.062 11.2662 178.412 11.2662Z" fill="white"/>
</svg>
