<svg width="98" height="24" viewBox="0 0 98 24" fill="none" xmlns="http://www.w3.org/2000/svg">
<path d="M78 10.5C77.17 10.5 76.5 11.17 76.5 12C76.5 12.83 77.17 13.5 78 13.5C78.83 13.5 79.5 12.83 79.5 12C79.5 11.17 78.83 10.5 78 10.5ZM78 4.5C77.17 4.5 76.5 5.17 76.5 6C76.5 6.83 77.17 7.5 78 7.5C78.83 7.5 79.5 6.83 79.5 6C79.5 5.17 78.83 4.5 78 4.5ZM78 16.5C77.17 16.5 76.5 17.18 76.5 18C76.5 18.82 77.18 19.5 78 19.5C78.82 19.5 79.5 18.82 79.5 18C79.5 17.18 78.83 16.5 78 16.5ZM81 19H95V17H81V19ZM81 13H95V11H81V13ZM81 5V7H95V5H81Z" fill="white"/>
<path d="M2 11C1.45 11 0.979002 10.804 0.587002 10.412C0.195002 10.02 -0.000664969 9.54934 1.69779e-06 9V5C1.69779e-06 4.45 0.196002 3.979 0.588002 3.587C0.980002 3.195 1.45067 2.99934 2 3H6C6.55 3 7.021 3.196 7.413 3.588C7.805 3.98 8.00067 4.45067 8 5V9C8 9.55 7.804 10.021 7.412 10.413C7.02 10.805 6.54934 11.0007 6 11H2ZM2 21C1.45 21 0.979002 20.804 0.587002 20.412C0.195002 20.02 -0.000664969 19.5493 1.69779e-06 19V15C1.69779e-06 14.45 0.196002 13.979 0.588002 13.587C0.980002 13.195 1.45067 12.9993 2 13H6C6.55 13 7.021 13.196 7.413 13.588C7.805 13.98 8.00067 14.4507 8 15V19C8 19.55 7.804 20.021 7.412 20.413C7.02 20.805 6.54934 21.0007 6 21H2ZM12 11C11.45 11 10.979 10.804 10.587 10.412C10.195 10.02 9.99934 9.54934 10 9V5C10 4.45 10.196 3.979 10.588 3.587C10.98 3.195 11.4507 2.99934 12 3H16C16.55 3 17.021 3.196 17.413 3.588C17.805 3.98 18.0007 4.45067 18 5V9C18 9.55 17.804 10.021 17.412 10.413C17.02 10.805 16.5493 11.0007 16 11H12ZM12 21C11.45 21 10.979 20.804 10.587 20.412C10.195 20.02 9.99934 19.5493 10 19V15C10 14.45 10.196 13.979 10.588 13.587C10.98 13.195 11.4507 12.9993 12 13H16C16.55 13 17.021 13.196 17.413 13.588C17.805 13.98 18.0007 14.4507 18 15V19C18 19.55 17.804 20.021 17.412 20.413C17.02 20.805 16.5493 21.0007 16 21H12ZM2 9H6V5H2V9ZM12 9H16V5H12V9ZM12 19H16V15H12V19ZM2 19H6V15H2V19Z" fill="#D71212"/>
<path d="M37 21H40V18H37V21ZM42 21H45V18H42V21ZM47 21H50V18H47V21ZM52 21H55V18H52V21ZM37 6H40V3H37V6ZM37 11H40V8H37V11ZM37 16H40V13H37V16ZM42 6H45V3H42V6ZM42 11H45V8H42V11ZM42 16H45V13H42V16ZM47 6H50V3H47V6ZM47 11H50V8H47V11ZM47 16H50V13H47V16ZM52 6H55V3H52V6ZM52 11H55V8H52V11ZM52 16H55V13H52V16Z" fill="white"/>
</svg>
