<svg width="18" height="19" viewBox="0 0 18 19" fill="none" xmlns="http://www.w3.org/2000/svg">
<path d="M8.76329 19C6.43919 19 4.21001 17.9991 2.56672 16.2175C0.923323 14.4358 0 12.0195 0 9.49997C0 6.98049 0.923323 4.5639 2.56672 2.78245C4.21025 1.0009 6.43919 -5.24199e-05 8.76329 -5.24199e-05C11.0874 -5.24199e-05 13.3166 1.0009 14.9599 2.78245C16.6033 4.56415 17.5266 6.98049 17.5266 9.49997C17.5238 12.0186 16.5997 14.4335 14.9568 16.2142C13.3139 17.9951 11.0864 18.997 8.76329 19ZM12.1427 7.05659V7.05644C12.2964 6.89552 12.384 6.67446 12.3859 6.44284C12.3877 6.21122 12.3037 5.98843 12.1526 5.82461C12.0015 5.66079 11.796 5.56971 11.5823 5.57173C11.3687 5.57376 11.1648 5.66875 11.0163 5.83531L8.76329 8.27862L6.51028 5.83531C6.30796 5.62349 6.0176 5.54296 5.7462 5.62364C5.47492 5.70431 5.26301 5.93405 5.18858 6.22813C5.11416 6.52236 5.18844 6.83711 5.38383 7.05645L7.63685 9.49977L5.38383 11.9431C5.23019 12.104 5.14257 12.3251 5.1407 12.5567C5.13883 12.7883 5.22285 13.0111 5.37396 13.1749C5.52507 13.3387 5.73058 13.4298 5.94425 13.4278C6.15791 13.4258 6.36182 13.3308 6.51027 13.1642L8.76328 10.7209L11.0163 13.1642C11.1647 13.3308 11.3686 13.4258 11.5823 13.4278C11.796 13.4298 12.0015 13.3387 12.1526 13.1749C12.3037 13.0111 12.3877 12.7883 12.3859 12.5567C12.384 12.3251 12.2964 12.104 12.1427 11.9431L9.88972 9.49977L12.1427 7.05659Z" fill="#E6E6E6"/>
</svg>
