<svg width="17" height="16" viewBox="0 0 17 16" fill="none" xmlns="http://www.w3.org/2000/svg">
<g clip-path="url(#clip0_0_22)">
<path d="M3.85955 15.9368V5.18426H0.215025L0.215025 15.9368H3.85955ZM2.03776 3.7153C3.30867 3.7153 4.09975 2.88964 4.09975 1.85783C4.07607 0.80275 3.30872 0 2.06188 0C0.815231 0 0 0.802766 0 1.85783C0 2.88968 0.790886 3.7153 2.01397 3.7153H2.03765H2.03776ZM5.87679 15.9368H9.52131V9.93204C9.52131 9.61068 9.54499 9.28965 9.64123 9.05992C9.90471 8.41784 10.5044 7.75283 11.5111 7.75283C12.83 7.75283 13.3575 8.73887 13.3575 10.1843V15.9367H17.0018V9.7713C17.0018 6.46856 15.2038 4.93182 12.8059 4.93182C10.8399 4.93182 9.97663 6.0095 9.49706 6.7435H9.52139V5.18404H5.87687C5.9247 6.19299 5.87687 15.9366 5.87687 15.9366L5.87679 15.9368Z" fill="white"/>
</g>
<defs>
<clipPath id="clip0_0_22">
<rect width="16.8" height="15.75" fill="white" transform="scale(1.01186)"/>
</clipPath>
</defs>
</svg>
