<svg width="30" height="30" viewBox="0 0 30 30" fill="none" xmlns="http://www.w3.org/2000/svg">
<path d="M26.375 21.0625C26.0625 21.375 25.6925 21.5312 25.265 21.5312C24.8383 21.5312 24.4688 21.375 24.1562 21.0625L15 11.9062L5.8125 21.0938C5.52083 21.3854 5.15625 21.5312 4.71875 21.5312C4.28125 21.5312 3.90625 21.375 3.59375 21.0625C3.28125 20.75 3.125 20.38 3.125 19.9525C3.125 19.5258 3.28125 19.1562 3.59375 18.8438L14.125 8.34375C14.25 8.21875 14.3854 8.13 14.5312 8.0775C14.6771 8.02583 14.8333 8 15 8C15.1667 8 15.3229 8.02583 15.4688 8.0775C15.6146 8.13 15.75 8.21875 15.875 8.34375L26.4062 18.875C26.6979 19.1667 26.8438 19.5258 26.8438 19.9525C26.8438 20.38 26.6875 20.75 26.375 21.0625Z" fill="white"/>
</svg>
