<svg width="19" height="15" viewBox="0 0 19 15" fill="none" xmlns="http://www.w3.org/2000/svg">
<g clip-path="url(#clip0_0_114)">
<path d="M19 1.79929C18.2885 2.09957 17.5338 2.29667 16.7611 2.38404C17.566 1.92444 18.184 1.19666 18.475 0.329507C17.7099 0.762082 16.8727 1.06686 15.9998 1.23067C15.2887 0.508962 14.2757 0.057922 13.1544 0.057922C11.0017 0.057922 9.25625 1.72067 9.25625 3.77145C9.25625 4.06255 9.29076 4.34594 9.35719 4.61781C6.11755 4.46289 3.24528 2.98448 1.32265 0.737699C0.987182 1.28617 0.794956 1.92416 0.794956 2.60464C0.794956 3.89307 1.48319 5.02968 2.52907 5.69567C1.91005 5.6772 1.30465 5.51792 0.763413 5.23112C0.76319 5.24668 0.76319 5.26224 0.76319 5.27786C0.76319 7.07714 2.10684 8.57811 3.89002 8.91927C3.31601 9.06799 2.7139 9.08976 2.1297 8.98291C2.62571 10.4583 4.06533 11.5319 5.77102 11.5619C4.43694 12.5579 2.75611 13.1516 0.929885 13.1516C0.615198 13.1516 0.304964 13.134 0 13.0997C1.72506 14.1534 3.77402 14.7682 5.97534 14.7682C13.1454 14.7682 17.0661 9.10947 17.0661 4.20213C17.0661 4.04106 17.0624 3.88091 17.0549 3.72167C17.818 3.1961 18.4767 2.54512 19 1.79929Z" fill="white"/>
</g>
<defs>
<clipPath id="clip0_0_114">
<rect width="18.9" height="14.7" fill="white" transform="scale(1.00529)"/>
</clipPath>
</defs>
</svg>
