<svg width="18" height="10" viewBox="0 0 18 10" fill="none" xmlns="http://www.w3.org/2000/svg">
<path d="M17.6438 7.66179L9.66491 0.242183C9.56992 0.154116 9.46702 0.0918825 9.3562 0.0554817C9.24538 0.0184937 9.12665 0 9 0C8.87335 0 8.75462 0.0184937 8.6438 0.0554817C8.53298 0.0918825 8.43008 0.154116 8.33509 0.242183L0.332454 7.66179C0.110818 7.86728 0 8.12414 0 8.43237C0 8.74061 0.118734 9.00481 0.356201 9.22497C0.593668 9.44514 0.870712 9.55522 1.18734 9.55522C1.50396 9.55522 1.781 9.44514 2.01847 9.22497L9 2.75208L15.9815 9.22497C16.2032 9.43046 16.4761 9.53321 16.8003 9.53321C17.1252 9.53321 17.4063 9.42312 17.6438 9.20296C17.8813 8.98279 18 8.72593 18 8.43237C18 8.13882 17.8813 7.88196 17.6438 7.66179Z" fill="white"/>
</svg>
