<svg width="315" height="39" viewBox="0 0 315 39" fill="none" xmlns="http://www.w3.org/2000/svg">
<rect y="0.5" width="315" height="38" rx="6" fill="#D9D9D9"/>
<path d="M274.5 0V39" stroke="black"/>
<g clip-path="url(#clip0_861_4504)">
<path fill-rule="evenodd" clip-rule="evenodd" d="M241.464 16.8333C241.464 15.0652 242.166 13.3695 243.416 12.1193C244.666 10.869 246.362 10.1667 248.13 10.1667C249.898 10.1667 251.594 10.869 252.844 12.1193C254.094 13.3695 254.797 15.0652 254.797 16.8333C254.797 18.6014 254.094 20.2971 252.844 21.5474C251.594 22.7976 249.898 23.5 248.13 23.5C246.362 23.5 244.666 22.7976 243.416 21.5474C242.166 20.2971 241.464 18.6014 241.464 16.8333ZM248.13 7.5C246.652 7.5 245.195 7.85117 243.879 8.52458C242.563 9.19798 241.425 10.1744 240.561 11.3733C239.696 12.5723 239.128 13.9596 238.904 15.4208C238.681 16.8821 238.807 18.3757 239.274 19.7785C239.74 21.1813 240.533 22.4532 241.588 23.4895C242.642 24.5258 243.927 25.2968 245.338 25.7391C246.748 26.1814 248.244 26.2823 249.701 26.0335C251.158 25.7847 252.536 25.1933 253.72 24.308L260.52 31.1093C260.77 31.3595 261.109 31.5001 261.462 31.5003C261.816 31.5004 262.155 31.36 262.406 31.11C262.656 30.86 262.796 30.5208 262.796 30.1671C262.797 29.8134 262.656 29.4742 262.406 29.224L255.606 22.424C256.644 21.0367 257.275 19.3879 257.429 17.6622C257.583 15.9366 257.253 14.2021 256.477 12.6531C255.701 11.104 254.51 9.80157 253.035 8.89147C251.561 7.98137 249.863 7.49957 248.13 7.5Z" fill="#3A3A3C"/>
</g>
<defs>
<clipPath id="clip0_861_4504">
<rect width="32" height="32" fill="white" transform="translate(234.797 3.5)"/>
</clipPath>
</defs>
</svg>
