<svg width="80" height="30" viewBox="0 0 80 30" fill="none" xmlns="http://www.w3.org/2000/svg">
<path d="M15.8453 21.8258L9.52657 15.5258C9.45157 15.4508 9.39832 15.3695 9.36682 15.282C9.33532 15.1945 9.31982 15.1008 9.32032 15.0008C9.32032 14.9008 9.33607 14.807 9.36757 14.7195C9.39907 14.632 9.45207 14.5508 9.52657 14.4758L15.8453 8.15703C16.0203 7.98203 16.2391 7.89453 16.5016 7.89453C16.7641 7.89453 16.9891 7.98828 17.1766 8.17578C17.3641 8.36328 17.4578 8.58203 17.4578 8.83203C17.4578 9.08203 17.3641 9.30078 17.1766 9.48828L11.6641 15.0008L17.1766 20.5133C17.3516 20.6883 17.4391 20.904 17.4391 21.1605C17.4391 21.417 17.3453 21.6388 17.1578 21.8258C16.9703 22.0133 16.7516 22.107 16.5016 22.107C16.2516 22.107 16.0328 22.0133 15.8453 21.8258Z" fill="white"/>
<circle cx="15" cy="15" r="14.5" stroke="white"/>
<path d="M64.1547 8.17422L70.4734 14.4742C70.5484 14.5492 70.6017 14.6305 70.6332 14.718C70.6647 14.8055 70.6802 14.8992 70.6797 14.9992C70.6797 15.0992 70.6639 15.193 70.6324 15.2805C70.6009 15.368 70.5479 15.4492 70.4734 15.5242L64.1547 21.843C63.9797 22.018 63.7609 22.1055 63.4984 22.1055C63.2359 22.1055 63.0109 22.0117 62.8234 21.8242C62.6359 21.6367 62.5422 21.418 62.5422 21.168C62.5422 20.918 62.6359 20.6992 62.8234 20.5117L68.3359 14.9992L62.8234 9.48672C62.6484 9.31172 62.5609 9.09597 62.5609 8.83947C62.5609 8.58297 62.6547 8.36122 62.8422 8.17422C63.0297 7.98672 63.2484 7.89297 63.4984 7.89297C63.7484 7.89297 63.9672 7.98672 64.1547 8.17422Z" fill="white"/>
<circle cx="65" cy="15" r="14.5" transform="rotate(180 65 15)" stroke="white"/>
</svg>
