<svg width="101" height="94" viewBox="0 0 101 94" fill="none" xmlns="http://www.w3.org/2000/svg">
<path d="M71.025 55.45C67.95 55.45 64.975 54.95 62.2 54.05C61.7653 53.9026 61.2978 53.8808 60.8512 53.9869C60.4046 54.093 59.997 54.3228 59.675 54.65L55.75 59.575C48.675 56.2 42.05 49.825 38.525 42.5L43.4 38.35C44.075 37.65 44.275 36.675 44 35.8C43.075 33.025 42.6 30.05 42.6 26.975C42.6 25.625 41.475 24.5 40.125 24.5H31.475C30.125 24.5 28.5 25.1 28.5 26.975C28.5 50.2 47.825 69.5 71.025 69.5C72.8 69.5 73.5 67.925 73.5 66.55V57.925C73.5 56.575 72.375 55.45 71.025 55.45Z" fill="white"/>
<rect x="0.5" y="0.5" width="100" height="93" rx="3.5" stroke="white"/>
</svg>
