<svg width="36" height="30" viewBox="0 0 36 30" fill="none" xmlns="http://www.w3.org/2000/svg">
<g clip-path="url(#clip0_412_4419)">
<path d="M31.65 8.9375C31.275 8.625 30.831 8.46875 30.318 8.46875C29.806 8.46875 29.3625 8.625 28.9875 8.9375L18 18.0938L6.975 8.90625C6.625 8.61458 6.1875 8.46875 5.6625 8.46875C5.1375 8.46875 4.6875 8.625 4.3125 8.9375C3.9375 9.25 3.75 9.62 3.75 10.0475C3.75 10.4742 3.9375 10.8438 4.3125 11.1562L16.95 21.6563C17.1 21.7813 17.2625 21.87 17.4375 21.9225C17.6125 21.9742 17.8 22 18 22C18.2 22 18.3875 21.9742 18.5625 21.9225C18.7375 21.87 18.9 21.7813 19.05 21.6563L31.6875 11.125C32.0375 10.8333 32.2125 10.4742 32.2125 10.0475C32.2125 9.62 32.025 9.25 31.65 8.9375Z" fill="white"/>
</g>
<defs>
<clipPath id="clip0_412_4419">
<rect width="30" height="36" fill="white" transform="matrix(0 1 1 0 0 0)"/>
</clipPath>
</defs>
</svg>
