<svg width="32" height="32" viewBox="0 0 32 32" fill="none" xmlns="http://www.w3.org/2000/svg">
<path d="M3.86614 11.8331L15.0661 23.0664C15.1995 23.1998 15.3439 23.294 15.4995 23.3491C15.655 23.4051 15.8217 23.4331 15.9995 23.4331C16.1773 23.4331 16.3439 23.4051 16.4995 23.3491C16.655 23.294 16.7995 23.1998 16.9328 23.0664L28.1661 11.8331C28.4773 11.522 28.6328 11.1331 28.6328 10.6664C28.6328 10.1998 28.4661 9.79977 28.1328 9.46644C27.7995 9.13311 27.4106 8.96644 26.9661 8.96644C26.5217 8.96644 26.1328 9.13311 25.7995 9.46644L15.9995 19.2664L6.19948 9.46644C5.88837 9.15533 5.50526 8.99977 5.05014 8.99977C4.59414 8.99977 4.19948 9.16644 3.86614 9.49977C3.53281 9.83311 3.36614 10.222 3.36614 10.6664C3.36614 11.1109 3.53281 11.4998 3.86614 11.8331Z" fill="black"/>
</svg>
