<svg width="101" height="94" viewBox="0 0 101 94" fill="none" xmlns="http://www.w3.org/2000/svg">
<path d="M68.625 29.2751C66.333 26.96 63.603 25.1243 60.5941 23.8753C57.5852 22.6262 54.3578 21.9888 51.1 22.0001C37.45 22.0001 26.325 33.1251 26.325 46.7751C26.325 51.1501 27.475 55.4002 29.625 59.1502L26.125 72.0001L39.25 68.5501C42.875 70.5252 46.95 71.5751 51.1 71.5751C64.75 71.5751 75.875 60.4501 75.875 46.8001C75.875 40.1751 73.3 33.9501 68.625 29.2751ZM51.1 67.3751C47.4 67.3751 43.775 66.3751 40.6 64.5001L39.85 64.0501L32.05 66.1001L34.125 58.5001L33.625 57.7252C31.5694 54.4426 30.4779 50.6483 30.475 46.7751C30.475 35.4251 39.725 26.1751 51.075 26.1751C56.575 26.1751 61.75 28.3251 65.625 32.2251C67.5437 34.1351 69.0642 36.4068 70.0985 38.9087C71.1327 41.4106 71.6601 44.0929 71.65 46.8001C71.7 58.1501 62.45 67.3751 51.1 67.3751ZM62.4 51.9751C61.775 51.6751 58.725 50.1751 58.175 49.9501C57.6 49.7501 57.2 49.6501 56.775 50.2501C56.35 50.8751 55.175 52.2751 54.825 52.6751C54.475 53.1001 54.1 53.1501 53.475 52.8251C52.85 52.5251 50.85 51.8501 48.5 49.7501C46.65 48.1001 45.425 46.0751 45.05 45.4501C44.7 44.8251 45 44.5001 45.325 44.1751C45.6 43.9001 45.95 43.4501 46.25 43.1001C46.55 42.7501 46.675 42.4751 46.875 42.0751C47.075 41.6501 46.975 41.3001 46.825 41.0002C46.675 40.7001 45.425 37.6501 44.925 36.4001C44.425 35.2001 43.9 35.3501 43.525 35.3251H42.325C41.9 35.3251 41.25 35.4751 40.675 36.1001C40.125 36.7251 38.525 38.2251 38.525 41.2751C38.525 44.3251 40.75 47.2751 41.05 47.6751C41.35 48.1001 45.425 54.3501 51.625 57.0251C53.1 57.6751 54.25 58.0501 55.15 58.3251C56.625 58.8001 57.975 58.7251 59.05 58.5751C60.25 58.4001 62.725 57.0751 63.225 55.6251C63.75 54.1751 63.75 52.9501 63.575 52.6751C63.4 52.4001 63.025 52.2751 62.4 51.9751Z" fill="white"/>
<rect x="0.5" y="0.5" width="100" height="93" rx="3.5" stroke="white"/>
</svg>
