<svg width="32" height="32" viewBox="0 0 32 32" fill="none" xmlns="http://www.w3.org/2000/svg">
<path d="M21.332 5.3335C21.6857 5.3335 22.0248 5.47397 22.2748 5.72402C22.5249 5.97407 22.6654 6.31321 22.6654 6.66683V12.2668L29.616 7.40016C29.716 7.3301 29.8332 7.28883 29.955 7.28083C30.0768 7.27284 30.1985 7.29843 30.3067 7.35482C30.415 7.41121 30.5056 7.49624 30.5689 7.60063C30.6321 7.70502 30.6655 7.82478 30.6654 7.94683V24.0535C30.6655 24.1756 30.6321 24.2953 30.5689 24.3997C30.5056 24.5041 30.415 24.5891 30.3067 24.6455C30.1985 24.7019 30.0768 24.7275 29.955 24.7195C29.8332 24.7115 29.716 24.6702 29.616 24.6002L22.6654 19.7335V25.3335C22.6654 25.6871 22.5249 26.0263 22.2748 26.2763C22.0248 26.5264 21.6857 26.6668 21.332 26.6668H2.66536C2.31174 26.6668 1.9726 26.5264 1.72256 26.2763C1.47251 26.0263 1.33203 25.6871 1.33203 25.3335V6.66683C1.33203 6.31321 1.47251 5.97407 1.72256 5.72402C1.9726 5.47397 2.31174 5.3335 2.66536 5.3335H21.332ZM19.9987 8.00016H3.9987V24.0002H19.9987V8.00016ZM10.6654 10.6668H13.332V14.6668H17.332V17.3335H13.3307L13.332 21.3335H10.6654L10.664 17.3335H6.66536V14.6668H10.6654V10.6668ZM27.9987 11.7882L22.6654 15.5215V16.4788L27.9987 20.2122V11.7882Z" fill="white"/>
</svg>
