<svg width="32" height="32" viewBox="0 0 32 32" fill="none" xmlns="http://www.w3.org/2000/svg">
<path fill-rule="evenodd" clip-rule="evenodd" d="M4.80078 7.9999C4.80078 7.57556 4.96935 7.16859 5.26941 6.86853C5.56947 6.56847 5.97643 6.3999 6.40078 6.3999H25.6008C26.0251 6.3999 26.4321 6.56847 26.7322 6.86853C27.0322 7.16859 27.2008 7.57556 27.2008 7.9999C27.2008 8.42425 27.0322 8.83121 26.7322 9.13127C26.4321 9.43133 26.0251 9.5999 25.6008 9.5999H6.40078C5.97643 9.5999 5.56947 9.43133 5.26941 9.13127C4.96935 8.83121 4.80078 8.42425 4.80078 7.9999ZM4.80078 15.9999C4.80078 15.5756 4.96935 15.1686 5.26941 14.8685C5.56947 14.5685 5.97643 14.3999 6.40078 14.3999H25.6008C26.0251 14.3999 26.4321 14.5685 26.7322 14.8685C27.0322 15.1686 27.2008 15.5756 27.2008 15.9999C27.2008 16.4242 27.0322 16.8312 26.7322 17.1313C26.4321 17.4313 26.0251 17.5999 25.6008 17.5999H6.40078C5.97643 17.5999 5.56947 17.4313 5.26941 17.1313C4.96935 16.8312 4.80078 16.4242 4.80078 15.9999ZM4.80078 23.9999C4.80078 23.5756 4.96935 23.1686 5.26941 22.8685C5.56947 22.5685 5.97643 22.3999 6.40078 22.3999H16.0008C16.4251 22.3999 16.8321 22.5685 17.1322 22.8685C17.4322 23.1686 17.6008 23.5756 17.6008 23.9999C17.6008 24.4242 17.4322 24.8312 17.1322 25.1313C16.8321 25.4313 16.4251 25.5999 16.0008 25.5999H6.40078C5.97643 25.5999 5.56947 25.4313 5.26941 25.1313C4.96935 24.8312 4.80078 24.4242 4.80078 23.9999Z" fill="white"/>
</svg>
