<svg width="30" height="30" viewBox="0 0 30 30" fill="none" xmlns="http://www.w3.org/2000/svg">
<path d="M14.1547 8.17422L20.4734 14.4742C20.5484 14.5492 20.6017 14.6305 20.6332 14.718C20.6647 14.8055 20.6802 14.8992 20.6797 14.9992C20.6797 15.0992 20.6639 15.193 20.6324 15.2805C20.6009 15.368 20.5479 15.4492 20.4734 15.5242L14.1547 21.843C13.9797 22.018 13.7609 22.1055 13.4984 22.1055C13.2359 22.1055 13.0109 22.0117 12.8234 21.8242C12.6359 21.6367 12.5422 21.418 12.5422 21.168C12.5422 20.918 12.6359 20.6992 12.8234 20.5117L18.3359 14.9992L12.8234 9.48672C12.6484 9.31172 12.5609 9.09597 12.5609 8.83947C12.5609 8.58297 12.6547 8.36122 12.8422 8.17422C13.0297 7.98672 13.2484 7.89297 13.4984 7.89297C13.7484 7.89297 13.9672 7.98672 14.1547 8.17422Z" fill="white"/>
<circle cx="15" cy="15" r="14.5" transform="rotate(180 15 15)" stroke="white"/>
</svg>
