<svg width="32" height="32" viewBox="0 0 32 32" fill="none" xmlns="http://www.w3.org/2000/svg">
<path d="M20.1664 28.1339L8.93307 16.9339C8.79974 16.8005 8.70552 16.6561 8.65041 16.5005C8.59441 16.345 8.56641 16.1783 8.56641 16.0005C8.56641 15.8227 8.59441 15.6561 8.65041 15.5005C8.70552 15.345 8.79974 15.2005 8.93307 15.0672L20.1664 3.83385C20.4775 3.52274 20.8664 3.36719 21.3331 3.36719C21.7997 3.36719 22.1997 3.53385 22.5331 3.86719C22.8664 4.20052 23.0331 4.58941 23.0331 5.03385C23.0331 5.4783 22.8664 5.86719 22.5331 6.20052L12.7331 16.0005L22.5331 25.8005C22.8442 26.1116 22.9997 26.4947 22.9997 26.9499C22.9997 27.4059 22.8331 27.8005 22.4997 28.1339C22.1664 28.4672 21.7775 28.6339 21.3331 28.6339C20.8886 28.6339 20.4997 28.4672 20.1664 28.1339Z" fill="white"/>
</svg>
