<svg width="417" height="38" viewBox="0 0 417 38" fill="none" xmlns="http://www.w3.org/2000/svg">
<path d="M0 6C0 2.68629 2.68629 0 6 0H297V38H6.00001C2.6863 38 0 35.3137 0 32V6Z" fill="#D9D9D9"/>
<mask id="path-2-inside-1_1122_5066" fill="white">
<path d="M297 0H409C412.314 0 415 2.68629 415 6V32C415 35.3137 412.314 38 409 38H297V0Z"/>
</mask>
<path d="M297 0H409C412.314 0 415 2.68629 415 6V32C415 35.3137 412.314 38 409 38H297V0Z" fill="#D9D9D9"/>
<path d="M297 0H415H297ZM415 38H297H415ZM296 38V0H298V38H296ZM415 0V38V0Z" fill="black" mask="url(#path-2-inside-1_1122_5066)"/>
<g clip-path="url(#clip0_1122_5066)">
<path fill-rule="evenodd" clip-rule="evenodd" d="M269.801 16C269.801 14.6739 270.328 13.4021 271.265 12.4645C272.203 11.5268 273.475 11 274.801 11C276.127 11 277.399 11.5268 278.336 12.4645C279.274 13.4021 279.801 14.6739 279.801 16C279.801 17.3261 279.274 18.5979 278.336 19.5355C277.399 20.4732 276.127 21 274.801 21C273.475 21 272.203 20.4732 271.265 19.5355C270.328 18.5979 269.801 17.3261 269.801 16ZM274.801 9C273.692 9 272.599 9.26338 271.612 9.76843C270.625 10.2735 269.772 11.0058 269.124 11.905C268.475 12.8042 268.049 13.8447 267.881 14.9406C267.714 16.0366 267.809 17.1568 268.158 18.2089C268.508 19.2609 269.103 20.2149 269.894 20.9921C270.684 21.7693 271.648 22.3476 272.706 22.6794C273.764 23.0111 274.886 23.0868 275.979 22.9001C277.072 22.7135 278.105 22.27 278.993 21.606L284.093 26.707C284.28 26.8946 284.535 27.0001 284.8 27.0002C285.065 27.0003 285.32 26.895 285.507 26.7075C285.695 26.52 285.8 26.2656 285.8 26.0004C285.801 25.7351 285.695 25.4806 285.508 25.293L280.408 20.193C281.186 19.1525 281.659 17.9159 281.775 16.6217C281.89 15.3274 281.643 14.0266 281.061 12.8648C280.479 11.703 279.585 10.7262 278.48 10.0436C277.374 9.36103 276.1 8.99967 274.801 9Z" fill="#3A3A3C"/>
</g>
<path d="M401.124 21.875L397.874 18.625C397.479 18.2292 397.39 17.7762 397.609 17.2662C397.829 16.7562 398.219 16.5008 398.781 16.5H405.218C405.781 16.5 406.171 16.7554 406.391 17.2662C406.61 17.7771 406.521 18.23 406.124 18.625L402.874 21.875C402.749 22 402.614 22.0937 402.468 22.1562C402.322 22.2187 402.166 22.25 401.999 22.25C401.833 22.25 401.676 22.2187 401.531 22.1562C401.385 22.0937 401.249 22 401.124 21.875Z" fill="black"/>
<defs>
<clipPath id="clip0_1122_5066">
<rect width="32" height="32" fill="white" transform="translate(265.801)"/>
</clipPath>
</defs>
</svg>
