<svg width="32" height="32" viewBox="0 0 32 32" fill="none" xmlns="http://www.w3.org/2000/svg">
<path d="M5.33333 22C4.95556 22 4.63911 21.872 4.384 21.616C4.128 21.3609 4 21.0444 4 20.6667C4 20.2889 4.128 19.9724 4.384 19.7173C4.63911 19.4613 4.95556 19.3333 5.33333 19.3333H26.6667C27.0444 19.3333 27.3609 19.4613 27.616 19.7173C27.872 19.9724 28 20.2889 28 20.6667C28 21.0444 27.872 21.3609 27.616 21.616C27.3609 21.872 27.0444 22 26.6667 22H5.33333ZM5.33333 15.3333C4.95556 15.3333 4.63911 15.2053 4.384 14.9493C4.128 14.6942 4 14.3778 4 14C4 13.6222 4.128 13.3053 4.384 13.0493C4.63911 12.7942 4.95556 12.6667 5.33333 12.6667H26.6667C27.0444 12.6667 27.3609 12.7942 27.616 13.0493C27.872 13.3053 28 13.6222 28 14C28 14.3778 27.872 14.6942 27.616 14.9493C27.3609 15.2053 27.0444 15.3333 26.6667 15.3333H5.33333ZM5.33333 8.66667C4.95556 8.66667 4.63911 8.53911 4.384 8.284C4.128 8.028 4 7.71111 4 7.33333C4 6.95556 4.128 6.63867 4.384 6.38267C4.63911 6.12756 4.95556 6 5.33333 6H26.6667C27.0444 6 27.3609 6.12756 27.616 6.38267C27.872 6.63867 28 6.95556 28 7.33333C28 7.71111 27.872 8.028 27.616 8.284C27.3609 8.53911 27.0444 8.66667 26.6667 8.66667H5.33333Z" fill="white"/>
</svg>
