<svg width="60" height="60" viewBox="0 0 60 60" fill="none" xmlns="http://www.w3.org/2000/svg">
<path d="M50 10H10C7.25 10 5.025 12.25 5.025 15L5 45C5 47.75 7.25 50 10 50H50C52.75 50 55 47.75 55 45V15C55 12.25 52.75 10 50 10ZM49 20.625L31.325 31.675C30.525 32.175 29.475 32.175 28.675 31.675L11 20.625C10.7493 20.4843 10.5298 20.2942 10.3547 20.0661C10.1796 19.8381 10.0527 19.5769 9.98144 19.2984C9.91022 19.0199 9.89626 18.7298 9.94039 18.4458C9.98453 18.1617 10.0858 17.8895 10.2382 17.6458C10.3906 17.402 10.5908 17.1916 10.8268 17.0275C11.0628 16.8633 11.3297 16.7488 11.6112 16.6907C11.8928 16.6327 12.1832 16.6324 12.4649 16.6899C12.7466 16.7473 13.0137 16.8613 13.25 17.025L30 27.5L46.75 17.025C46.9863 16.8613 47.2534 16.7473 47.5351 16.6899C47.8168 16.6324 48.1072 16.6327 48.3888 16.6907C48.6703 16.7488 48.9372 16.8633 49.1732 17.0275C49.4092 17.1916 49.6094 17.402 49.7618 17.6458C49.9142 17.8895 50.0155 18.1617 50.0596 18.4458C50.1037 18.7298 50.0898 19.0199 50.0186 19.2984C49.9473 19.5769 49.8204 19.8381 49.6453 20.0661C49.4702 20.2942 49.2507 20.4843 49 20.625Z" fill="white"/>
</svg>
