<svg width="30" height="30" viewBox="0 0 30 30" fill="none" xmlns="http://www.w3.org/2000/svg">
<path d="M15 15C15.6875 15 16.2762 14.755 16.7663 14.265C17.2554 13.7758 17.5 13.1875 17.5 12.5C17.5 11.8125 17.2554 11.2238 16.7663 10.7337C16.2762 10.2446 15.6875 10 15 10C14.3125 10 13.7242 10.2446 13.235 10.7337C12.745 11.2238 12.5 11.8125 12.5 12.5C12.5 13.1875 12.745 13.7758 13.235 14.265C13.7242 14.755 14.3125 15 15 15ZM15 24.1875C17.5417 21.8542 19.4271 19.7342 20.6562 17.8275C21.8854 15.9217 22.5 14.2292 22.5 12.75C22.5 10.4792 21.7758 8.61958 20.3275 7.17125C18.88 5.72375 17.1042 5 15 5C12.8958 5 11.1196 5.72375 9.67125 7.17125C8.22375 8.61958 7.5 10.4792 7.5 12.75C7.5 14.2292 8.11458 15.9217 9.34375 17.8275C10.5729 19.7342 12.4583 21.8542 15 24.1875ZM15 27.5C11.6458 24.6458 9.14083 21.9946 7.485 19.5462C5.82833 17.0988 5 14.8333 5 12.75C5 9.625 6.00542 7.13542 8.01625 5.28125C10.0263 3.42708 12.3542 2.5 15 2.5C17.6458 2.5 19.9738 3.42708 21.9837 5.28125C23.9946 7.13542 25 9.625 25 12.75C25 14.8333 24.1721 17.0988 22.5163 19.5462C20.8596 21.9946 18.3542 24.6458 15 27.5Z" fill="black"/>
</svg>
