<svg width="24" height="24" viewBox="0 0 24 24" fill="none" xmlns="http://www.w3.org/2000/svg">
<path fill-rule="evenodd" clip-rule="evenodd" d="M2.6666 9.33314C2.6666 7.56507 3.36896 5.86941 4.61918 4.61919C5.8694 3.36898 7.56506 2.66661 9.33313 2.66661C11.1012 2.66661 12.7969 3.36898 14.0471 4.61919C15.2973 5.86941 15.9997 7.56507 15.9997 9.33314C15.9997 11.1012 15.2973 12.7969 14.0471 14.0471C12.7969 15.2973 11.1012 15.9997 9.33313 15.9997C7.56506 15.9997 5.8694 15.2973 4.61918 14.0471C3.36896 12.7969 2.6666 11.1012 2.6666 9.33314ZM9.33313 2.94103e-07C7.85484 2.81301e-06 6.39769 0.35116 5.08168 1.02455C3.76568 1.69795 2.62845 2.67432 1.76365 3.87326C0.898851 5.0722 0.33122 6.45942 0.107499 7.92069C-0.116222 9.38195 0.0103674 10.8755 0.476842 12.2782C0.943317 13.681 1.73633 14.9529 2.79059 15.9892C3.84484 17.0254 5.13018 17.7965 6.54076 18.2388C7.95133 18.6811 9.44679 18.782 10.904 18.5331C12.3612 18.2843 13.7384 17.6929 14.9223 16.8077L21.7222 23.6089C21.9722 23.859 22.3114 23.9997 22.6651 23.9998C23.0187 23.9999 23.358 23.8595 23.6082 23.6095C23.8584 23.3595 23.999 23.0204 23.9991 22.6667C23.9992 22.313 23.8588 21.9737 23.6088 21.7236L16.809 14.9237C17.8467 13.5364 18.4779 11.8877 18.6317 10.162C18.7856 8.43638 18.4561 6.70197 17.6802 5.15297C16.9042 3.60397 15.7124 2.30153 14.2382 1.39144C12.764 0.481359 11.0656 -0.000434558 9.33313 2.94103e-07Z" fill="#3A3A3C"/>
</svg>
