<svg width="312" height="475" viewBox="0 0 312 475" fill="none" xmlns="http://www.w3.org/2000/svg">
<mask id="path-1-inside-1_1275_7377" fill="white">
<path fill-rule="evenodd" clip-rule="evenodd" d="M0 5.90063C0 2.64181 2.6418 0 5.90062 0H305.357C308.616 0 311.258 2.6418 311.258 5.90062V351.304C311.229 351.304 311.2 351.304 311.171 351.304C299.789 351.304 290.562 360.531 290.562 371.913C290.562 383.295 299.789 392.521 311.171 392.521C311.2 392.521 311.229 392.521 311.258 392.521V469.099C311.258 472.358 308.616 475 305.357 475H5.90061C2.64179 475 0 472.358 0 469.099V392.518C0.129223 392.52 0.258736 392.521 0.38853 392.521C11.7704 392.521 20.9973 383.295 20.9973 371.913C20.9973 360.531 11.7704 351.304 0.38853 351.304C0.258736 351.304 0.129223 351.305 0 351.307V5.90063Z"/>
</mask>
<path fill-rule="evenodd" clip-rule="evenodd" d="M0 5.90063C0 2.64181 2.6418 0 5.90062 0H305.357C308.616 0 311.258 2.6418 311.258 5.90062V351.304C311.229 351.304 311.2 351.304 311.171 351.304C299.789 351.304 290.562 360.531 290.562 371.913C290.562 383.295 299.789 392.521 311.171 392.521C311.2 392.521 311.229 392.521 311.258 392.521V469.099C311.258 472.358 308.616 475 305.357 475H5.90061C2.64179 475 0 472.358 0 469.099V392.518C0.129223 392.52 0.258736 392.521 0.38853 392.521C11.7704 392.521 20.9973 383.295 20.9973 371.913C20.9973 360.531 11.7704 351.304 0.38853 351.304C0.258736 351.304 0.129223 351.305 0 351.307V5.90063Z" fill="white" fill-opacity="0.5"/>
<path d="M311.258 351.304L311.251 352.779L312.733 352.785V351.304H311.258ZM311.258 392.521H312.733V391.04L311.251 391.046L311.258 392.521ZM0 392.518L0.027176 391.043L-1.47515 391.015V392.518H0ZM0 351.307H-1.47515V352.81L0.027176 352.782L0 351.307ZM5.90062 -1.47515C1.82709 -1.47515 -1.47515 1.82711 -1.47515 5.90063H1.47515C1.47515 3.45651 3.45651 1.47515 5.90062 1.47515V-1.47515ZM305.357 -1.47515H5.90062V1.47515H305.357V-1.47515ZM312.733 5.90062C312.733 1.8271 309.431 -1.47515 305.357 -1.47515V1.47515C307.801 1.47515 309.782 3.4565 309.782 5.90062H312.733ZM312.733 351.304V5.90062H309.782V351.304H312.733ZM311.171 352.779C311.198 352.779 311.225 352.779 311.251 352.779L311.264 349.829C311.233 349.829 311.202 349.829 311.171 349.829V352.779ZM292.037 371.913C292.037 361.345 300.604 352.779 311.171 352.779V349.829C298.974 349.829 289.087 359.716 289.087 371.913H292.037ZM311.171 391.046C300.604 391.046 292.037 382.48 292.037 371.913H289.087C289.087 384.109 298.974 393.997 311.171 393.997V391.046ZM311.251 391.046C311.225 391.046 311.198 391.046 311.171 391.046V393.997C311.202 393.997 311.233 393.997 311.264 393.996L311.251 391.046ZM312.733 469.099V392.521H309.782V469.099H312.733ZM305.357 476.475C309.431 476.475 312.733 473.173 312.733 469.099H309.782C309.782 471.543 307.801 473.525 305.357 473.525V476.475ZM5.90061 476.475H305.357V473.525H5.90061V476.475ZM-1.47515 469.099C-1.47515 473.173 1.82708 476.475 5.90061 476.475V473.525C3.4565 473.525 1.47515 471.543 1.47515 469.099H-1.47515ZM-1.47515 392.518V469.099H1.47515V392.518H-1.47515ZM0.38853 391.046C0.267987 391.046 0.147535 391.045 0.027176 391.043L-0.027176 393.993C0.11091 393.995 0.249485 393.997 0.38853 393.997V391.046ZM19.5222 371.913C19.5222 382.48 10.9557 391.046 0.38853 391.046V393.997C12.5851 393.997 22.4725 384.109 22.4725 371.913H19.5222ZM0.38853 352.779C10.9557 352.779 19.5222 361.345 19.5222 371.913H22.4725C22.4725 359.716 12.5851 349.829 0.38853 349.829V352.779ZM0.027176 352.782C0.147535 352.78 0.267987 352.779 0.38853 352.779V349.829C0.249485 349.829 0.11091 349.83 -0.027176 349.833L0.027176 352.782ZM-1.47515 5.90063V351.307H1.47515V5.90063H-1.47515Z" fill="white" mask="url(#path-1-inside-1_1275_7377)"/>
</svg>
