<svg width="32" height="32" viewBox="0 0 32 32" fill="none" xmlns="http://www.w3.org/2000/svg">
<path d="M14.4987 25.7331L5.6987 16.9331C5.56536 16.7998 5.4707 16.6553 5.4147 16.4998C5.35959 16.3442 5.33203 16.1776 5.33203 15.9998C5.33203 15.822 5.35959 15.6553 5.4147 15.4998C5.4707 15.3442 5.56536 15.1998 5.6987 15.0665L14.4987 6.26645C14.7431 6.02201 15.0485 5.89401 15.4147 5.88245C15.7818 5.87178 16.0987 5.99978 16.3654 6.26645C16.632 6.5109 16.7711 6.81623 16.7827 7.18245C16.7934 7.54956 16.6654 7.86645 16.3987 8.13312L9.86537 14.6665H24.7654C25.1431 14.6665 25.46 14.794 25.716 15.0491C25.9711 15.3051 26.0987 15.622 26.0987 15.9998C26.0987 16.3776 25.9711 16.694 25.716 16.9491C25.46 17.2051 25.1431 17.3331 24.7654 17.3331H9.86537L16.3987 23.8665C16.6431 24.1109 16.7711 24.422 16.7827 24.7998C16.7934 25.1776 16.6654 25.4887 16.3987 25.7331C16.1543 25.9998 15.8431 26.1331 15.4654 26.1331C15.0876 26.1331 14.7654 25.9998 14.4987 25.7331Z" fill="white"/>
</svg>
