<svg width="24" height="20" viewBox="0 0 24 20" fill="none" xmlns="http://www.w3.org/2000/svg">
<g clip-path="url(#clip0_1150_5479)">
<path d="M21.1 5.64551C20.85 5.43717 20.554 5.33301 20.212 5.33301C19.8707 5.33301 19.575 5.43717 19.325 5.64551L12 11.7497L4.65 5.62467C4.41667 5.43023 4.125 5.33301 3.775 5.33301C3.425 5.33301 3.125 5.43717 2.875 5.64551C2.625 5.85384 2.5 6.10051 2.5 6.38551C2.5 6.66995 2.625 6.91634 2.875 7.12467L11.3 14.1247C11.4 14.208 11.5083 14.2672 11.625 14.3022C11.7417 14.3366 11.8667 14.3538 12 14.3538C12.1333 14.3538 12.2583 14.3366 12.375 14.3022C12.4917 14.2672 12.6 14.208 12.7 14.1247L21.125 7.10384C21.3583 6.9094 21.475 6.66995 21.475 6.38551C21.475 6.10051 21.35 5.85384 21.1 5.64551Z" fill="white"/>
</g>
<defs>
<clipPath id="clip0_1150_5479">
<rect width="20" height="24" fill="white" transform="matrix(0 -1 1 0 0 20)"/>
</clipPath>
</defs>
</svg>
