<svg width="24" height="24" viewBox="0 0 24 24" fill="none" xmlns="http://www.w3.org/2000/svg">
<path d="M17.1356 4.80006L12.5596 0.240057C12.4102 0.0894421 12.2071 0.00432532 11.995 0.00342518C11.7829 0.00252505 11.5791 0.0859153 11.4284 0.235257L11.4236 0.240057L6.86361 4.80006H2.39961C2.18744 4.80006 1.98395 4.88434 1.83392 5.03437C1.68389 5.1844 1.59961 5.38788 1.59961 5.60006V20.0001C1.59961 20.2122 1.68389 20.4157 1.83392 20.5657C1.98395 20.7158 2.18744 20.8001 2.39961 20.8001H21.5996C21.8118 20.8001 22.0153 20.7158 22.1653 20.5657C22.3153 20.4157 22.3996 20.2122 22.3996 20.0001V5.60006C22.3996 5.38788 22.3153 5.1844 22.1653 5.03437C22.0153 4.88434 21.8118 4.80006 21.5996 4.80006H17.1356ZM11.9996 1.93606L14.8636 4.80006H9.13561L11.9996 1.93606ZM20.7996 19.2001H3.19961V6.40006H20.7996V19.2001ZM7.99961 11.2001C7.57526 11.2001 7.1683 11.0315 6.86824 10.7314C6.56818 10.4314 6.39961 10.0244 6.39961 9.60006C6.39961 9.17571 6.56818 8.76875 6.86824 8.46869C7.1683 8.16863 7.57526 8.00006 7.99961 8.00006C8.42396 8.00006 8.83092 8.16863 9.13098 8.46869C9.43104 8.76875 9.59961 9.17571 9.59961 9.60006C9.59961 10.0244 9.43104 10.4314 9.13098 10.7314C8.83092 11.0315 8.42396 11.2001 7.99961 11.2001ZM19.1996 17.6001H7.19961L9.59961 12.8001L11.5996 16.8001L15.1996 9.60006L19.1996 17.6001Z" fill="white"/>
</svg>
