<svg width="30" height="30" viewBox="0 0 30 30" fill="none" xmlns="http://www.w3.org/2000/svg">
<path d="M26.375 8.46875C26.0625 8.15625 25.6925 8 25.265 8C24.8383 8 24.4688 8.15625 24.1562 8.46875L15 17.625L5.8125 8.4375C5.52083 8.14583 5.15625 8 4.71875 8C4.28125 8 3.90625 8.15625 3.59375 8.46875C3.28125 8.78125 3.125 9.15125 3.125 9.57875C3.125 10.0054 3.28125 10.375 3.59375 10.6875L14.125 21.1875C14.25 21.3125 14.3854 21.4013 14.5312 21.4538C14.6771 21.5054 14.8333 21.5313 15 21.5313C15.1667 21.5313 15.3229 21.5054 15.4688 21.4538C15.6146 21.4013 15.75 21.3125 15.875 21.1875L26.4062 10.6562C26.6979 10.3646 26.8438 10.0054 26.8438 9.57875C26.8438 9.15125 26.6875 8.78125 26.375 8.46875Z" fill="black"/>
</svg>
