<svg width="16" height="16" viewBox="0 0 16 16" fill="none" xmlns="http://www.w3.org/2000/svg">
<path d="M6.3172 15.2115C7.01446 15.2115 7.54159 14.9437 7.89859 14.4082L15.6215 2.76953C15.7498 2.57987 15.8446 2.39301 15.906 2.20893C15.9673 2.01927 15.998 1.83798 15.998 1.66506C15.998 1.18535 15.8307 0.789302 15.496 0.476928C15.1669 0.158976 14.7597 0 14.2744 0C13.9397 0 13.6552 0.0669372 13.4209 0.200812C13.1922 0.329108 12.9747 0.552232 12.7683 0.870184L6.28373 11.053L3.03728 7.16228C2.68586 6.75508 2.24519 6.55148 1.71527 6.55148C1.21882 6.55148 0.808825 6.71046 0.485295 7.02841C0.161765 7.34636 0 7.7452 0 8.22491C0 8.44246 0.0334686 8.64885 0.100406 8.84408C0.172921 9.03374 0.304007 9.23176 0.493662 9.43815L4.80275 14.517C5.19879 14.98 5.70361 15.2115 6.3172 15.2115Z" fill="white"/>
</svg>
