<svg width="20" height="18" viewBox="0 0 20 18" fill="none" xmlns="http://www.w3.org/2000/svg">
<path d="M18.3384 6.51219L4.33906 0.279806C3.78658 0.0349708 3.16273 -0.0521923 2.55258 0.0302009C1.94243 0.112594 1.37566 0.360534 0.929557 0.740215C0.483451 1.1199 0.179715 1.61284 0.0597607 2.15185C-0.0601935 2.69085 0.00947173 3.24967 0.259258 3.75213L2.65914 8.53326C2.71359 8.64886 2.74164 8.77295 2.74164 8.8983C2.74164 9.02365 2.71359 9.14775 2.65914 9.26334L0.259258 14.0445C0.0559682 14.4511 -0.029972 14.8965 0.00924749 15.3402C0.048467 15.784 0.211603 16.2119 0.483829 16.5852C0.756056 16.9585 1.12874 17.2654 1.56802 17.4778C2.00729 17.6903 2.49923 17.8016 2.99912 17.8017C3.46733 17.7975 3.92857 17.7002 4.34906 17.5168L18.3484 11.2844C18.8449 11.062 19.2623 10.7211 19.554 10.2998C19.8457 9.87844 20.0001 9.39324 20.0001 8.8983C20.0001 8.40337 19.8457 7.91817 19.554 7.49684C19.2623 7.0755 18.8449 6.73461 18.3484 6.51219H18.3384ZM17.4484 9.69071L3.4491 15.9231C3.26527 16.0017 3.05885 16.0283 2.85752 15.9995C2.65618 15.9707 2.46956 15.8877 2.32267 15.7618C2.17578 15.6359 2.07565 15.4729 2.0357 15.2949C1.99575 15.1168 2.0179 14.9322 2.09917 14.7656L4.48905 9.98452C4.51999 9.92067 4.5467 9.85527 4.56905 9.78864H11.4587C11.7239 9.78864 11.9783 9.69484 12.1658 9.52787C12.3533 9.3609 12.4587 9.13444 12.4587 8.8983C12.4587 8.66217 12.3533 8.43571 12.1658 8.26874C11.9783 8.10176 11.7239 8.00796 11.4587 8.00796H4.56905C4.5467 7.94134 4.51999 7.87593 4.48905 7.81209L2.09917 3.03096C2.0179 2.86443 1.99575 2.67976 2.0357 2.50171C2.07565 2.32366 2.17578 2.16074 2.32267 2.0348C2.46956 1.90886 2.65618 1.82591 2.85752 1.79708C3.05885 1.76825 3.26527 1.79492 3.4491 1.87352L17.4484 8.1059C17.6122 8.18061 17.7497 8.29413 17.8457 8.43394C17.9416 8.57375 17.9924 8.73444 17.9924 8.8983C17.9924 9.06217 17.9416 9.22285 17.8457 9.36266C17.7497 9.50248 17.6122 9.61599 17.4484 9.69071Z" fill="#242424"/>
</svg>
