<svg width="30" height="30" viewBox="0 0 30 30" fill="none" xmlns="http://www.w3.org/2000/svg">
<path d="M21.0984 3.60016C20.9532 3.45465 20.7808 3.3392 20.591 3.26043C20.4011 3.18166 20.1976 3.14111 19.9921 3.14111C19.7866 3.14111 19.5831 3.18166 19.3933 3.26043C19.2034 3.3392 19.031 3.45465 18.8859 3.60016L8.37337 14.1127C8.25749 14.2283 8.16555 14.3657 8.10283 14.5169C8.0401 14.6681 8.00781 14.8302 8.00781 14.9939C8.00781 15.1576 8.0401 15.3197 8.10283 15.4709C8.16555 15.6222 8.25749 15.7595 8.37337 15.8752L18.8859 26.3877C19.4984 27.0002 20.4859 27.0002 21.0984 26.3877C21.7109 25.7752 21.7109 24.7877 21.0984 24.1752L11.9234 15.0002L21.1109 5.81266C21.7109 5.20016 21.7109 4.21266 21.0984 3.60016Z" fill="white"/>
</svg>
