<svg width="75" height="65" viewBox="0 0 75 65" fill="none" xmlns="http://www.w3.org/2000/svg">
<path d="M38.4627 14.8142C38.3115 15.3209 38.6002 15.8533 39.1065 16.0043L39.207 16.0343L39.2114 16.0293C39.6863 16.1151 40.1573 15.8308 40.2968 15.3597C41.5684 11.0869 45.5747 8.102 50.0381 8.102C50.5666 8.102 50.9952 7.67341 50.9952 7.14499C50.9952 6.61655 50.5666 6.18798 50.0381 6.18798C44.5526 6.18798 39.9428 9.84029 38.4627 14.8142ZM38.4627 14.8142L38.6187 14.8607M38.4627 14.8142C38.4626 14.8142 38.4626 14.8142 38.4626 14.8142L38.6187 14.8607M38.6187 14.8607C38.4933 15.2811 38.7327 15.723 39.153 15.8483L38.6187 14.8607Z" fill="#4C95EB" stroke="#F9FFF9" stroke-width="0.322847"/>
<path d="M61.1538 46.0614H56.3886C55.9501 46.0614 55.5944 45.7057 55.5944 45.2672C55.5944 44.8286 55.9501 44.4729 56.3886 44.4729H61.1538C67.7223 44.4729 73.0667 39.1285 73.0667 32.56C73.0667 25.9915 67.7223 20.647 61.1538 20.647H61.0392C60.8089 20.647 60.5899 20.5472 60.439 20.373C60.2881 20.1989 60.22 19.968 60.2529 19.7399C60.3238 19.2453 60.3596 18.7483 60.3596 18.2644C60.3596 12.5718 55.7276 7.93981 50.0349 7.93981C47.8203 7.93981 45.7083 8.6319 43.9269 9.94174C43.5355 10.2294 42.9796 10.1017 42.7532 9.67115C37.7084 0.0647957 24.5318 -1.22524 17.7004 7.13145C14.8227 10.652 13.6919 15.2317 14.598 19.6952C14.6978 20.1881 14.3206 20.6476 13.8197 20.6476H13.5014C6.9329 20.6476 1.58847 25.9921 1.58847 32.5606C1.58847 39.1291 6.9329 44.4736 13.5014 44.4736H18.2666C18.7051 44.4736 19.0608 44.8292 19.0608 45.2678C19.0608 45.7063 18.7051 46.062 18.2666 46.062H13.5014C6.0569 46.062 0 40.0051 0 32.5605C0 25.3248 5.72158 19.4001 12.878 19.0733C12.2057 14.4425 13.4912 9.77152 16.4706 6.12623C23.7845 -2.82152 37.8012 -1.8186 43.7264 8.1588C45.6166 6.97373 47.7796 6.35205 50.0347 6.35205C56.9317 6.35205 62.397 12.2223 61.9187 19.0807C69.0092 19.4784 74.6548 25.3719 74.6548 32.56C74.6548 40.0051 68.5979 46.0614 61.1534 46.0614L61.1538 46.0614Z" fill="#4C95EB"/>
<path d="M17.2034 44.819C17.2034 55.8572 26.1833 64.837 37.2213 64.837C48.2595 64.837 57.2393 55.857 57.2393 44.819C57.2393 33.7809 48.2595 24.8011 37.2213 24.8011C26.1832 24.8011 17.2034 33.781 17.2034 44.819ZM19.1177 44.819C19.1177 34.837 27.2392 26.7154 37.2213 26.7154C47.2034 26.7154 55.325 34.8369 55.325 44.819C55.325 54.8011 47.2034 62.9226 37.2213 62.9226C27.2393 62.9226 19.1177 54.8012 19.1177 44.819Z" fill="#4C95EB" stroke="#F9FFF9" stroke-width="0.322847"/>
<path d="M36.8388 52.811C36.8388 53.222 37.1721 53.5552 37.583 53.5552C37.9939 53.5552 38.3273 53.2224 38.3273 52.811V37.6933C38.3273 37.2824 37.994 36.9491 37.583 36.9491C37.1721 36.9491 36.8388 37.2824 36.8388 37.6933V52.811Z" fill="#4C95EB" stroke="#B2CFF1" stroke-width="0.322847"/>
<path d="M37.5858 38.747L33.4607 42.8721C33.1703 43.1631 32.6987 43.1629 32.408 42.8722C32.1173 42.5815 32.1173 42.1104 32.408 41.8196L37.0594 37.1683L37.5858 38.747ZM37.5858 38.747L41.7111 42.8722C41.8562 43.0173 42.0472 43.0902 42.2373 43.0902L37.5858 38.747ZM42.2373 43.0902C42.4271 43.0902 42.6183 43.018 42.7637 42.8721L42.2373 43.0902Z" fill="#4C95EB" stroke="#B2CFF1" stroke-width="0.322847"/>
</svg>
