<svg width="500" height="500" viewBox="0 0 500 500" fill="none" xmlns="http://www.w3.org/2000/svg">
<path d="M238.402 341.53H45.3116C43.798 341.527 42.3472 340.925 41.2769 339.855C40.2066 338.784 39.6042 337.334 39.6016 335.82V64.39C39.6173 62.8851 40.2256 61.4471 41.2944 60.3876C42.3633 59.3281 43.8066 58.7325 45.3116 58.73H238.402C239.914 58.7326 241.364 59.3354 242.433 60.4059C243.501 61.4765 244.102 62.9273 244.102 64.44V335.82C244.102 337.333 243.501 338.783 242.433 339.854C241.364 340.925 239.914 341.527 238.402 341.53ZM45.3116 58.93C43.8643 58.9326 42.4771 59.5087 41.4537 60.5321C40.4303 61.5555 39.8542 62.9427 39.8516 64.39V335.82C39.8542 337.267 40.4303 338.654 41.4537 339.678C42.4771 340.701 43.8643 341.277 45.3116 341.28H238.402C239.848 341.277 241.234 340.701 242.256 339.677C243.278 338.654 243.852 337.266 243.852 335.82V64.39C243.852 62.9436 243.278 61.5564 242.256 60.5327C241.234 59.509 239.848 58.9326 238.402 58.93H45.3116Z" fill="#E6E6E6"/>
<path d="M454.698 341.53H261.598C260.086 341.527 258.636 340.925 257.567 339.854C256.499 338.783 255.898 337.333 255.898 335.82V64.39C255.912 62.886 256.518 61.448 257.585 60.3882C258.652 59.3284 260.094 58.7326 261.598 58.73H454.698C456.202 58.7326 457.645 59.3284 458.712 60.3882C459.779 61.448 460.385 62.886 460.398 64.39V335.82C460.398 337.333 459.798 338.783 458.73 339.854C457.661 340.925 456.211 341.527 454.698 341.53ZM261.598 58.93C260.152 58.9326 258.766 59.509 257.744 60.5327C256.722 61.5564 256.148 62.9436 256.148 64.39V335.82C256.148 337.266 256.722 338.654 257.744 339.677C258.766 340.701 260.152 341.277 261.598 341.28H454.698C456.147 341.277 457.535 340.702 458.56 339.678C459.585 338.655 460.163 337.268 460.168 335.82V64.39C460.163 62.9418 459.585 61.5546 458.56 60.5315C457.535 59.5084 456.147 58.9326 454.698 58.93H261.598Z" fill="#E6E6E6"/>
<path d="M207.754 197.46L206.384 315C201.544 354.11 132.214 385.16 132.214 385.16C132.214 385.16 62.8737 354.14 58.0037 315L56.5938 197.46L130.694 173.07L207.754 197.46Z" fill="#F5F5F5"/>
<path d="M198.08 204.9L196.89 310.44C192.67 344.55 132.2 371.63 132.2 371.63C132.2 371.63 71.73 344.55 67.52 310.44L66.25 204.9L130.88 183.63L198.08 204.9Z" fill="#E0E0E0"/>
<path d="M193.842 211.56L192.722 308.45C188.722 340.45 132.072 365.81 132.072 365.81C132.072 365.81 75.3822 340.42 71.4322 308.45L70.2422 211.56L130.832 191.62L193.842 211.56Z" stroke="#3A3A3C" stroke-width="3" stroke-linecap="round" stroke-linejoin="round"/>
<path d="M440.325 157.79H306.945V391.83H440.325V157.79Z" fill="#F5F5F5"/>
<path d="M430.655 166.99H316.805V391.83H430.655V166.99Z" fill="#E0E0E0"/>
<path d="M320 392.83C319.8 392.831 319.603 392.79 319.42 392.71C319.239 392.638 319.076 392.529 318.94 392.39C318.795 392.253 318.682 392.086 318.61 391.9C318.538 391.718 318.501 391.525 318.5 391.33C318.5 391.108 318.55 390.89 318.644 390.69C318.739 390.49 318.877 390.313 319.048 390.172C319.219 390.032 319.419 389.931 319.634 389.877C319.849 389.823 320.073 389.817 320.29 389.86L320.57 389.94L320.83 390.08C320.911 390.138 320.988 390.201 321.06 390.27C321.131 390.337 321.192 390.415 321.24 390.5C321.298 390.58 321.345 390.667 321.38 390.76C321.42 390.85 321.451 390.943 321.47 391.04C321.48 391.136 321.48 391.233 321.47 391.33C321.471 391.526 321.43 391.72 321.35 391.9C321.278 392.083 321.169 392.25 321.03 392.39C320.755 392.662 320.387 392.82 320 392.83Z" fill="#3A3A3C"/>
<path d="M318.484 354.49C318.486 354.292 318.526 354.096 318.603 353.914C318.681 353.732 318.793 353.567 318.934 353.429C319.076 353.29 319.243 353.181 319.427 353.107C319.61 353.034 319.807 352.997 320.004 353C320.402 353 320.784 353.158 321.065 353.439C321.346 353.721 321.504 354.102 321.504 354.5C321.504 354.898 321.346 355.279 321.065 355.561C320.784 355.842 320.402 356 320.004 356C319.805 356.003 319.607 355.965 319.422 355.891C319.237 355.816 319.069 355.705 318.927 355.564C318.786 355.424 318.674 355.256 318.598 355.072C318.522 354.887 318.483 354.689 318.484 354.49ZM318.484 317.66C318.484 317.262 318.642 316.881 318.924 316.599C319.205 316.318 319.587 316.16 319.984 316.16C320.382 316.16 320.764 316.318 321.045 316.599C321.326 316.881 321.484 317.262 321.484 317.66C321.484 318.058 321.326 318.439 321.045 318.721C320.764 319.002 320.382 319.16 319.984 319.16C319.587 319.16 319.205 319.002 318.924 318.721C318.642 318.439 318.484 318.058 318.484 317.66ZM318.484 280.82C318.484 280.422 318.642 280.041 318.924 279.759C319.205 279.478 319.587 279.32 319.984 279.32C320.382 279.32 320.764 279.478 321.045 279.759C321.326 280.041 321.484 280.422 321.484 280.82C321.484 281.218 321.326 281.599 321.045 281.881C320.764 282.162 320.382 282.32 319.984 282.32C319.787 282.32 319.592 282.281 319.41 282.206C319.228 282.13 319.063 282.02 318.924 281.881C318.784 281.741 318.674 281.576 318.599 281.394C318.523 281.212 318.484 281.017 318.484 280.82ZM318.484 243.98C318.484 243.582 318.642 243.201 318.924 242.919C319.205 242.638 319.587 242.48 319.984 242.48C320.382 242.48 320.764 242.638 321.045 242.919C321.326 243.201 321.484 243.582 321.484 243.98C321.484 244.378 321.326 244.759 321.045 245.041C320.764 245.322 320.382 245.48 319.984 245.48C319.59 245.48 319.211 245.325 318.931 245.048C318.65 244.771 318.49 244.394 318.484 244V243.98ZM318.484 207.15C318.484 206.752 318.642 206.371 318.924 206.089C319.205 205.808 319.587 205.65 319.984 205.65C320.382 205.65 320.764 205.808 321.045 206.089C321.326 206.371 321.484 206.752 321.484 207.15C321.484 207.548 321.326 207.929 321.045 208.211C320.764 208.492 320.382 208.65 319.984 208.65C319.787 208.65 319.592 208.611 319.41 208.536C319.228 208.46 319.063 208.35 318.924 208.211C318.784 208.071 318.674 207.906 318.599 207.724C318.523 207.542 318.484 207.347 318.484 207.15Z" fill="#3A3A3C"/>
<path d="M320.001 171.81C319.804 171.811 319.609 171.772 319.427 171.697C319.245 171.621 319.08 171.51 318.941 171.37C318.867 171.303 318.803 171.225 318.751 171.14C318.699 171.06 318.652 170.977 318.611 170.89C318.57 170.798 318.543 170.7 318.531 170.6C318.521 170.504 318.521 170.406 318.531 170.31C318.534 169.913 318.692 169.532 318.971 169.25C319.038 169.179 319.111 169.115 319.191 169.06C319.273 169.007 319.36 168.963 319.451 168.93C319.541 168.891 319.635 168.861 319.731 168.84C319.926 168.8 320.127 168.8 320.321 168.84C320.417 168.861 320.511 168.891 320.601 168.93C320.693 168.963 320.78 169.007 320.861 169.06C320.942 169.118 321.019 169.181 321.091 169.25C321.371 169.532 321.529 169.913 321.531 170.31C321.542 170.406 321.542 170.504 321.531 170.6C321.51 170.699 321.48 170.796 321.441 170.89C321.404 170.978 321.357 171.062 321.301 171.14C321.253 171.225 321.192 171.303 321.121 171.37C320.974 171.516 320.799 171.63 320.607 171.706C320.414 171.781 320.208 171.817 320.001 171.81Z" fill="#3A3A3C"/>
<path d="M389.88 170.31C389.88 169.912 390.038 169.531 390.319 169.249C390.6 168.968 390.982 168.81 391.38 168.81C391.778 168.81 392.159 168.968 392.44 169.249C392.722 169.531 392.88 169.912 392.88 170.31C392.88 170.708 392.722 171.089 392.44 171.371C392.159 171.652 391.778 171.81 391.38 171.81C390.982 171.81 390.6 171.652 390.319 171.371C390.038 171.089 389.88 170.708 389.88 170.31ZM354.18 170.31C354.18 169.912 354.338 169.531 354.619 169.249C354.9 168.968 355.282 168.81 355.68 168.81C356.078 168.81 356.459 168.968 356.74 169.249C357.022 169.531 357.18 169.912 357.18 170.31C357.18 170.708 357.022 171.089 356.74 171.371C356.459 171.652 356.078 171.81 355.68 171.81C355.282 171.81 354.9 171.652 354.619 171.371C354.338 171.089 354.18 170.708 354.18 170.31Z" fill="#3A3A3C"/>
<path d="M427.078 171.81C426.982 171.82 426.885 171.82 426.788 171.81L426.508 171.73L426.248 171.59C426.167 171.532 426.09 171.469 426.018 171.4C425.737 171.119 425.578 170.738 425.578 170.34C425.581 169.943 425.739 169.562 426.018 169.28C426.088 169.212 426.165 169.151 426.248 169.1C426.327 169.04 426.415 168.993 426.508 168.96C426.598 168.92 426.692 168.89 426.788 168.87C426.983 168.83 427.183 168.83 427.378 168.87L427.658 168.96C427.748 168.993 427.833 169.04 427.908 169.1C427.993 169.149 428.071 169.209 428.138 169.28C428.418 169.562 428.576 169.943 428.578 170.34C428.578 170.738 428.42 171.119 428.138 171.4C428.068 171.471 427.991 171.535 427.908 171.59C427.828 171.643 427.745 171.69 427.658 171.73L427.378 171.81C427.278 171.82 427.178 171.82 427.078 171.81Z" fill="#3A3A3C"/>
<path d="M425.578 354.49C425.578 354.092 425.736 353.711 426.017 353.429C426.299 353.148 426.68 352.99 427.078 352.99C427.476 352.99 427.857 353.148 428.139 353.429C428.42 353.711 428.578 354.092 428.578 354.49C428.578 354.888 428.42 355.269 428.139 355.551C427.857 355.832 427.476 355.99 427.078 355.99C426.68 355.99 426.299 355.832 426.017 355.551C425.736 355.269 425.578 354.888 425.578 354.49ZM425.578 317.66C425.578 317.262 425.736 316.881 426.017 316.599C426.299 316.318 426.68 316.16 427.078 316.16C427.476 316.16 427.857 316.318 428.139 316.599C428.42 316.881 428.578 317.262 428.578 317.66C428.578 318.058 428.42 318.439 428.139 318.721C427.857 319.002 427.476 319.16 427.078 319.16C426.68 319.16 426.299 319.002 426.017 318.721C425.736 318.439 425.578 318.058 425.578 317.66ZM425.578 280.82C425.578 280.422 425.736 280.041 426.017 279.759C426.299 279.478 426.68 279.32 427.078 279.32C427.476 279.32 427.857 279.478 428.139 279.759C428.42 280.041 428.578 280.422 428.578 280.82C428.578 281.218 428.42 281.599 428.139 281.881C427.857 282.162 427.476 282.32 427.078 282.32C426.881 282.32 426.686 282.281 426.504 282.206C426.322 282.13 426.157 282.02 426.017 281.881C425.878 281.741 425.768 281.576 425.692 281.394C425.617 281.212 425.578 281.017 425.578 280.82ZM425.578 243.98C425.578 243.582 425.736 243.201 426.017 242.919C426.299 242.638 426.68 242.48 427.078 242.48C427.476 242.48 427.857 242.638 428.139 242.919C428.42 243.201 428.578 243.582 428.578 243.98C428.578 244.378 428.42 244.759 428.139 245.041C427.857 245.322 427.476 245.48 427.078 245.48C426.684 245.48 426.305 245.325 426.024 245.048C425.744 244.771 425.583 244.394 425.578 244V243.98ZM425.578 207.15C425.578 206.752 425.736 206.371 426.017 206.089C426.299 205.808 426.68 205.65 427.078 205.65C427.476 205.65 427.857 205.808 428.139 206.089C428.42 206.371 428.578 206.752 428.578 207.15C428.578 207.548 428.42 207.929 428.139 208.211C427.857 208.492 427.476 208.65 427.078 208.65C426.881 208.65 426.686 208.611 426.504 208.536C426.322 208.46 426.157 208.35 426.017 208.211C425.878 208.071 425.768 207.906 425.692 207.724C425.617 207.542 425.578 207.347 425.578 207.15Z" fill="#3A3A3C"/>
<path d="M427.085 392.83C426.788 392.83 426.498 392.742 426.252 392.577C426.006 392.412 425.813 392.178 425.7 391.904C425.587 391.63 425.557 391.329 425.615 391.038C425.672 390.747 425.815 390.48 426.025 390.27C426.097 390.201 426.174 390.138 426.255 390.08L426.515 389.94L426.795 389.86C426.989 389.82 427.19 389.82 427.385 389.86L427.665 389.94C427.751 389.981 427.835 390.027 427.915 390.08C427.998 390.135 428.075 390.199 428.145 390.27C428.426 390.551 428.584 390.932 428.585 391.33C428.587 391.527 428.549 391.723 428.473 391.905C428.398 392.087 428.286 392.252 428.145 392.39C427.864 392.671 427.482 392.83 427.085 392.83Z" fill="#3A3A3C"/>
<path d="M94.9991 392.21H53.7891V392.46H94.9991V392.21Z" fill="#E0E0E0"/>
<path d="M179.002 390.21H137.672V390.46H179.002V390.21Z" fill="#E0E0E0"/>
<path d="M232.781 390.21H222.781V390.46H232.781V390.21Z" fill="#E0E0E0"/>
<path d="M132.828 398.75H86.5781V399H132.828V398.75Z" fill="#E0E0E0"/>
<path d="M292.803 392.08H271.203V392.33H292.803V392.08Z" fill="#E0E0E0"/>
<path d="M329.633 392.08H301.703V392.33H329.633V392.08Z" fill="#E0E0E0"/>
<path d="M464.331 396.31H401.891V396.56H464.331V396.31Z" fill="#E0E0E0"/>
<path d="M233.414 87.6499H187.344L189.864 58.9399H235.924L233.414 87.6499Z" fill="#EBEBEB"/>
<path d="M234.343 55.04L233.083 70.03L231.823 88.05H187.523L190.043 55.04H234.343Z" fill="#FAFAFA"/>
<path d="M230.109 58.9403L232.619 87.6503H186.559L184.039 58.9403H187.959L189.319 56.7803H201.729L203.509 58.9403H230.109Z" fill="#E0E0E0"/>
<path d="M304.809 94.0601H255.789V143.08H304.809V94.0601Z" fill="#EBEBEB"/>
<path d="M306.062 94.0601H304.812V143.08H306.062V94.0601Z" fill="#E0E0E0"/>
<path d="M300.272 98.6001H260.312V138.56H300.272V98.6001Z" fill="#F5F5F5"/>
<path d="M260.69 98.6001H260.32V138.56H260.69V98.6001Z" fill="#E0E0E0"/>
<path d="M280.673 124.35C284.975 124.35 288.463 119.909 288.463 114.43C288.463 108.952 284.975 104.51 280.673 104.51C276.371 104.51 272.883 108.952 272.883 114.43C272.883 119.909 276.371 124.35 280.673 124.35Z" fill="#E0E0E0"/>
<path d="M276.603 129.37H284.812V121.16H276.603V129.37Z" fill="#E0E0E0"/>
<path d="M295.468 138.56H265.388V135.76C265.388 133.203 266.403 130.751 268.211 128.944C270.019 127.136 272.471 126.12 275.028 126.12H285.868C288.424 126.12 290.876 127.136 292.684 128.944C294.492 130.751 295.508 133.203 295.508 135.76V138.56H295.468Z" fill="#E0E0E0"/>
<path d="M264.641 121.88C264.641 123.51 267.641 124.88 267.641 124.88C267.641 124.88 270.641 123.55 270.641 121.88C270.641 121.1 269.561 120.66 268.851 120.88C268.579 120.975 268.328 121.123 268.114 121.315C267.899 121.507 267.725 121.74 267.601 122C267.218 121.484 266.713 121.072 266.131 120.8C265.96 120.74 265.778 120.723 265.599 120.749C265.42 120.775 265.25 120.844 265.103 120.95C264.957 121.057 264.838 121.197 264.758 121.359C264.677 121.52 264.637 121.699 264.641 121.88Z" fill="#E0E0E0"/>
<path d="M291.258 114.59C291.258 116.74 295.148 118.48 295.148 118.48C295.148 118.48 299.038 116.74 299.038 114.59C299.038 113.59 297.598 113 296.688 113.26C296.002 113.534 295.45 114.065 295.148 114.74C294.641 114.066 293.979 113.524 293.218 113.16C292.993 113.08 292.752 113.057 292.515 113.091C292.279 113.126 292.054 113.217 291.861 113.358C291.668 113.499 291.513 113.685 291.407 113.899C291.302 114.114 291.251 114.351 291.258 114.59Z" fill="#E0E0E0"/>
<path d="M205.711 359.32C206.171 362.21 208.261 364.7 208.421 367.62C208.551 369.91 207.481 372.06 206.951 374.29C206.421 376.52 206.681 379.29 208.631 380.47C209.341 380.831 210.134 380.996 210.928 380.948C211.722 380.901 212.49 380.643 213.151 380.2C214.457 379.296 215.536 378.102 216.301 376.71C219.369 371.752 221.044 366.059 221.151 360.23C221.151 357.78 220.901 355.18 219.461 353.23C215.001 347 204.571 352.12 205.711 359.32Z" fill="#F5F5F5"/>
<path d="M201.998 351.67C202.428 352.14 202.988 352.471 203.608 352.62C203.982 352.742 204.382 352.766 204.768 352.691C205.155 352.616 205.516 352.444 205.818 352.19C206.047 351.895 206.211 351.554 206.297 351.19C206.383 350.826 206.39 350.447 206.318 350.08C206.256 349.159 205.941 348.273 205.408 347.52C205.139 347.149 204.784 346.85 204.372 346.649C203.96 346.448 203.505 346.353 203.048 346.37C202.591 346.408 202.161 346.601 201.829 346.918C201.498 347.235 201.286 347.656 201.228 348.11C201.116 349.348 201.385 350.589 201.998 351.67Z" fill="#F5F5F5"/>
<path d="M210.314 345.66C210.11 345.344 209.817 345.094 209.472 344.943C209.127 344.792 208.745 344.746 208.374 344.81C208.007 344.892 207.673 345.083 207.416 345.358C207.159 345.632 206.991 345.978 206.934 346.35C206.918 346.593 206.918 346.837 206.934 347.08C206.938 347.473 206.981 347.865 207.064 348.25C207.148 348.621 207.323 348.964 207.574 349.25C207.917 349.584 208.353 349.807 208.824 349.89C209.116 349.96 209.42 349.958 209.71 349.885C210.001 349.812 210.27 349.669 210.494 349.47C210.693 349.228 210.841 348.948 210.931 348.647C211.02 348.347 211.048 348.031 211.014 347.72C210.991 346.979 210.747 346.261 210.314 345.66Z" fill="#F5F5F5"/>
<path d="M214.943 345.41C214.78 345.108 214.513 344.875 214.191 344.754C213.87 344.633 213.516 344.631 213.193 344.75C212.879 344.881 212.601 345.087 212.385 345.35C212.169 345.613 212.021 345.926 211.953 346.26C211.953 346.48 211.893 346.7 211.883 346.92C211.877 347.284 211.918 347.646 212.003 348C212.075 348.348 212.258 348.664 212.523 348.9C212.807 349.137 213.155 349.284 213.523 349.32C213.763 349.349 214.006 349.326 214.236 349.252C214.466 349.177 214.676 349.054 214.853 348.89C215.242 348.448 215.456 347.879 215.453 347.29C215.497 346.624 215.318 345.962 214.943 345.41Z" fill="#F5F5F5"/>
<path d="M219.072 346.37C218.582 345.64 218.072 345.59 217.512 345.9C217.014 346.264 216.66 346.791 216.512 347.39C216.456 347.583 216.416 347.78 216.392 347.98C216.338 348.311 216.338 348.649 216.392 348.98C216.457 349.3 216.644 349.583 216.912 349.77C217.16 349.924 217.451 349.995 217.742 349.97C218.12 349.936 218.475 349.769 218.742 349.5C219.11 349.105 219.344 348.605 219.412 348.07C219.514 347.481 219.392 346.875 219.072 346.37Z" fill="#F5F5F5"/>
<path d="M219.885 350.42C219.83 350.657 219.83 350.903 219.885 351.14C219.905 351.262 219.955 351.376 220.03 351.474C220.105 351.572 220.203 351.649 220.315 351.7C220.519 351.747 220.733 351.732 220.928 351.657C221.124 351.582 221.293 351.451 221.415 351.28C221.71 350.978 221.927 350.607 222.045 350.2C222.103 349.997 222.12 349.785 222.094 349.575C222.068 349.365 222.001 349.163 221.895 348.98C221.005 347.53 220.005 349.7 219.885 350.42Z" fill="#F5F5F5"/>
<path d="M220.69 426.11C221.36 423.75 221.75 421.16 220.86 418.87C218.11 411.74 206.75 414.01 206 421.27L220.69 426.11Z" fill="#F5F5F5"/>
<path d="M204.422 412.93C204.719 413.495 205.179 413.959 205.742 414.26C206.072 414.473 206.45 414.599 206.842 414.625C207.234 414.652 207.626 414.577 207.982 414.41C208.274 414.18 208.514 413.891 208.686 413.562C208.859 413.233 208.959 412.871 208.982 412.5C209.158 411.597 209.082 410.662 208.762 409.8C208.596 409.37 208.327 408.987 207.978 408.685C207.629 408.383 207.211 408.172 206.762 408.07C206.312 407.99 205.848 408.067 205.448 408.287C205.048 408.507 204.735 408.857 204.562 409.28C204.148 410.455 204.099 411.727 204.422 412.93Z" fill="#F5F5F5"/>
<path d="M214.003 409.24C213.884 408.883 213.664 408.567 213.369 408.333C213.075 408.099 212.718 407.955 212.343 407.92C211.967 407.907 211.596 408.007 211.277 408.207C210.958 408.406 210.706 408.696 210.553 409.04C210.465 409.268 210.391 409.502 210.333 409.74C210.232 410.119 210.172 410.508 210.153 410.9C210.128 411.29 210.207 411.68 210.383 412.03C210.62 412.43 210.967 412.752 211.383 412.96C211.646 413.1 211.94 413.173 212.238 413.173C212.536 413.173 212.83 413.1 213.093 412.96C213.355 412.782 213.579 412.553 213.751 412.287C213.923 412.02 214.039 411.722 214.093 411.41C214.272 410.693 214.241 409.94 214.003 409.24Z" fill="#F5F5F5"/>
<path d="M218.501 410.19C218.42 409.861 218.225 409.571 217.95 409.371C217.676 409.172 217.34 409.076 217.001 409.1C216.663 409.148 216.342 409.278 216.065 409.479C215.788 409.679 215.563 409.944 215.411 410.25C215.321 410.449 215.241 410.653 215.171 410.86C215.059 411.199 214.992 411.553 214.971 411.91C214.952 412.262 215.042 412.612 215.231 412.91C215.453 413.223 215.768 413.457 216.131 413.58C216.356 413.671 216.598 413.711 216.84 413.697C217.082 413.683 217.318 413.616 217.531 413.5C218.022 413.178 218.378 412.687 218.531 412.12C218.734 411.491 218.724 410.812 218.501 410.19Z" fill="#F5F5F5"/>
<path d="M222.244 412.18C221.964 411.34 221.434 411.18 220.864 411.32C220.282 411.537 219.794 411.951 219.484 412.49C219.384 412.665 219.294 412.845 219.214 413.03C219.092 413.33 219.018 413.647 218.994 413.97C218.975 414.293 219.079 414.61 219.284 414.86C219.483 415.075 219.746 415.219 220.034 415.27C220.409 415.343 220.797 415.275 221.124 415.08C221.575 414.79 221.925 414.367 222.124 413.87C222.369 413.34 222.411 412.739 222.244 412.18Z" fill="#F5F5F5"/>
<path d="M222.002 416.3C221.879 416.51 221.807 416.747 221.792 416.99C221.782 417.112 221.801 417.234 221.848 417.347C221.895 417.46 221.968 417.561 222.062 417.64C222.247 417.738 222.457 417.778 222.665 417.757C222.873 417.736 223.07 417.653 223.232 417.52C223.594 417.301 223.899 416.999 224.122 416.64C224.23 416.458 224.3 416.256 224.33 416.047C224.359 415.837 224.346 415.624 224.292 415.42C223.772 413.79 222.322 415.65 222.002 416.3Z" fill="#F5F5F5"/>
<path d="M181.272 383.66C181.642 386.57 180.272 389.54 180.972 392.39C181.482 394.62 183.112 396.39 184.232 398.39C185.352 400.39 185.882 403.11 184.322 404.79C183.743 405.335 183.029 405.714 182.253 405.89C181.478 406.066 180.67 406.031 179.912 405.79C178.407 405.274 177.039 404.423 175.912 403.3C171.593 399.386 168.408 394.38 166.692 388.81C165.972 386.46 165.532 383.89 166.372 381.58C169.002 374.39 180.382 376.43 181.272 383.66Z" fill="#F5F5F5"/>
<path d="M182.679 375.3C182.398 375.869 181.952 376.339 181.399 376.65C181.075 376.873 180.698 377.009 180.306 377.044C179.913 377.079 179.518 377.012 179.159 376.85C178.855 376.631 178.601 376.349 178.417 376.023C178.232 375.696 178.12 375.334 178.089 374.96C177.896 374.059 177.952 373.122 178.249 372.25C178.411 371.814 178.679 371.425 179.028 371.118C179.377 370.811 179.796 370.595 180.249 370.49C180.698 370.399 181.164 370.465 181.569 370.676C181.975 370.887 182.296 371.231 182.479 371.65C182.759 372.58 183.109 374.39 182.679 375.3Z" fill="#F5F5F5"/>
<path d="M173.068 371.81C173.178 371.45 173.391 371.129 173.681 370.887C173.97 370.646 174.324 370.494 174.698 370.45C175.074 370.431 175.447 370.524 175.77 370.719C176.092 370.913 176.349 371.199 176.508 371.54C176.605 371.764 176.685 371.995 176.748 372.23C176.856 372.605 176.923 372.991 176.948 373.38C176.984 373.772 176.912 374.167 176.738 374.52C176.516 374.949 176.167 375.298 175.738 375.52C175.481 375.671 175.19 375.757 174.892 375.769C174.594 375.781 174.297 375.72 174.028 375.59C173.767 375.413 173.544 375.186 173.372 374.921C173.201 374.657 173.084 374.361 173.028 374.05C172.811 373.317 172.825 372.535 173.068 371.81Z" fill="#F5F5F5"/>
<path d="M168.553 372.85C168.626 372.514 168.819 372.216 169.094 372.011C169.37 371.805 169.71 371.705 170.053 371.73C170.391 371.772 170.714 371.894 170.994 372.088C171.275 372.281 171.504 372.539 171.663 372.84C171.759 373.038 171.842 373.242 171.913 373.45C172.035 373.789 172.113 374.142 172.143 374.5C172.163 374.851 172.076 375.2 171.893 375.5C171.68 375.817 171.372 376.059 171.013 376.19C170.79 376.287 170.549 376.332 170.307 376.323C170.065 376.315 169.828 376.252 169.613 376.14C169.124 375.825 168.768 375.341 168.613 374.78C168.381 374.161 168.36 373.483 168.553 372.85Z" fill="#F5F5F5"/>
<path d="M164.853 374.92C165.123 374.08 165.643 373.92 166.223 374.03C166.81 374.237 167.306 374.644 167.623 375.18C167.728 375.35 167.822 375.527 167.903 375.71C168.038 376.003 168.119 376.318 168.143 376.64C168.175 376.964 168.078 377.287 167.873 377.54C167.68 377.758 167.42 377.905 167.133 377.96C166.759 378.042 166.368 377.985 166.033 377.8C165.569 377.521 165.202 377.105 164.983 376.61C164.737 376.081 164.691 375.48 164.853 374.92Z" fill="#F5F5F5"/>
<path d="M165.194 379C165.318 379.211 165.396 379.446 165.424 379.69C165.435 379.813 165.417 379.936 165.372 380.051C165.327 380.165 165.256 380.268 165.164 380.35C164.979 380.449 164.769 380.492 164.559 380.474C164.35 380.456 164.15 380.379 163.984 380.25C163.618 380.042 163.309 379.746 163.084 379.39C162.97 379.21 162.895 379.009 162.862 378.8C162.83 378.59 162.84 378.375 162.894 378.17C163.364 376.56 164.854 378.39 165.194 379Z" fill="#F5F5F5"/>
<path d="M156.73 143.59C154.428 143.914 152.083 143.548 149.989 142.538C147.896 141.528 146.149 139.921 144.97 137.918C143.79 135.916 143.231 133.609 143.363 131.288C143.494 128.968 144.311 126.739 145.71 124.883C147.109 123.027 149.026 121.628 151.22 120.861C153.414 120.095 155.786 119.997 158.036 120.579C160.286 121.161 162.313 122.397 163.86 124.131C165.408 125.865 166.406 128.019 166.73 130.32C167.158 133.405 166.345 136.534 164.471 139.021C162.597 141.508 159.813 143.151 156.73 143.59ZM154.35 126.49C153.27 126.639 152.258 127.105 151.443 127.829C150.628 128.552 150.046 129.502 149.771 130.556C149.495 131.611 149.539 132.724 149.896 133.754C150.253 134.783 150.908 135.684 151.777 136.342C152.646 137 153.691 137.385 154.779 137.449C155.867 137.513 156.95 137.253 157.89 136.701C158.83 136.15 159.586 135.332 160.061 134.351C160.536 133.37 160.71 132.27 160.56 131.19C160.356 129.745 159.588 128.439 158.425 127.558C157.261 126.678 155.796 126.293 154.35 126.49Z" fill="#E0E0E0"/>
<path d="M152.323 96.9032L147.906 97.52L151.874 125.934L156.291 125.317L152.323 96.9032Z" fill="#E0E0E0"/>
<path d="M156.06 92.9483L147.773 94.1201L148.398 98.5355L156.684 97.3637L156.06 92.9483Z" fill="#E0E0E0"/>
<path d="M156.748 98.9553L148.953 100.042L149.569 104.46L157.364 103.373L156.748 98.9553Z" fill="#E0E0E0"/>
<path d="M157.882 106.963L151.078 107.912L151.694 112.329L158.498 111.38L157.882 106.963Z" fill="#E0E0E0"/>
<path d="M249.999 442.59C357.082 442.59 443.889 437.522 443.889 431.27C443.889 425.018 357.082 419.95 249.999 419.95C142.917 419.95 56.1094 425.018 56.1094 431.27C56.1094 437.522 142.917 442.59 249.999 442.59Z" fill="#F5F5F5"/>
<path d="M147.474 243.276C156.693 233.646 155.648 217.683 145.14 207.624C134.632 197.564 118.639 197.217 109.42 206.847C100.2 216.478 101.245 232.44 111.754 242.5C122.262 252.559 138.254 252.907 147.474 243.276Z" fill="#407BFF"/>
<g opacity="0.8">
<path d="M147.474 243.276C156.693 233.646 155.648 217.683 145.14 207.624C134.632 197.564 118.639 197.217 109.42 206.847C100.2 216.478 101.245 232.44 111.754 242.5C122.262 252.559 138.254 252.907 147.474 243.276Z" fill="#3A3A3C"/>
</g>
<path d="M116.695 209.24C116.485 209.24 116.281 209.174 116.111 209.051C115.94 208.928 115.813 208.755 115.747 208.556C115.68 208.357 115.678 208.142 115.741 207.942C115.803 207.741 115.927 207.566 116.095 207.44C119.463 205.023 123.521 203.76 127.665 203.84C127.931 203.84 128.185 203.945 128.372 204.133C128.56 204.32 128.665 204.575 128.665 204.84C128.665 205.105 128.56 205.36 128.372 205.547C128.185 205.735 127.931 205.84 127.665 205.84C123.954 205.758 120.315 206.881 117.295 209.04C117.122 209.17 116.912 209.24 116.695 209.24Z" fill="#407BFF"/>
<path d="M121.427 243.64C121.263 243.639 121.102 243.598 120.957 243.52C117.893 241.881 115.233 239.577 113.174 236.778C111.115 233.978 109.709 230.753 109.057 227.34C108.422 224.387 108.451 221.33 109.143 218.389C109.835 215.449 111.172 212.7 113.057 210.34C113.227 210.136 113.471 210.007 113.735 209.983C114 209.958 114.263 210.04 114.467 210.21C114.672 210.38 114.8 210.623 114.824 210.888C114.849 211.152 114.767 211.416 114.597 211.62C112.894 213.756 111.688 216.244 111.067 218.905C110.446 221.565 110.426 224.33 111.007 227C111.606 230.12 112.894 233.068 114.776 235.628C116.658 238.189 119.088 240.297 121.887 241.8C122.083 241.905 122.238 242.073 122.327 242.276C122.417 242.479 122.436 242.707 122.383 242.922C122.329 243.138 122.205 243.329 122.03 243.466C121.855 243.604 121.639 243.679 121.417 243.68L121.427 243.64Z" fill="#407BFF"/>
<path d="M131.432 246.25C129.194 246.24 126.971 245.883 124.842 245.19C124.717 245.149 124.601 245.084 124.501 244.999C124.4 244.913 124.318 244.809 124.258 244.691C124.198 244.574 124.162 244.446 124.152 244.314C124.141 244.183 124.157 244.05 124.197 243.925C124.238 243.8 124.303 243.683 124.389 243.583C124.474 243.483 124.579 243.4 124.696 243.341C124.814 243.281 124.942 243.244 125.073 243.234C125.205 243.224 125.337 243.239 125.462 243.28C131.612 245.28 137.752 244.16 142.302 240.28C144.611 238.243 146.355 235.645 147.368 232.737C148.38 229.83 148.626 226.71 148.082 223.68C148.04 223.415 148.105 223.144 148.262 222.926C148.42 222.709 148.657 222.562 148.922 222.52C149.188 222.478 149.459 222.542 149.676 222.7C149.894 222.857 150.04 223.095 150.082 223.36C150.689 226.727 150.413 230.194 149.283 233.424C148.153 236.653 146.206 239.536 143.632 241.79C140.241 244.707 135.905 246.292 131.432 246.25Z" fill="#407BFF"/>
<path d="M148.25 221.12C148.038 221.119 147.832 221.051 147.661 220.925C147.49 220.799 147.364 220.622 147.3 220.42C146.381 217.58 144.875 214.966 142.88 212.745C140.885 210.524 138.446 208.748 135.72 207.53C135.476 207.424 135.285 207.225 135.187 206.978C135.089 206.73 135.094 206.454 135.2 206.21C135.306 205.966 135.505 205.774 135.753 205.677C136 205.579 136.276 205.584 136.52 205.69C139.505 207.024 142.176 208.971 144.36 211.403C146.545 213.836 148.194 216.7 149.2 219.81C149.282 220.062 149.261 220.336 149.141 220.573C149.021 220.809 148.812 220.988 148.56 221.07C148.46 221.101 148.355 221.117 148.25 221.12Z" fill="#407BFF"/>
<path d="M132.492 206.4C132.416 206.411 132.338 206.411 132.262 206.4C130.757 206.05 129.217 205.872 127.672 205.87C127.407 205.87 127.152 205.765 126.965 205.577C126.777 205.39 126.672 205.135 126.672 204.87C126.672 204.605 126.777 204.351 126.965 204.163C127.152 203.975 127.407 203.87 127.672 203.87C129.356 203.875 131.033 204.073 132.672 204.46C132.937 204.491 133.179 204.625 133.345 204.834C133.511 205.043 133.587 205.31 133.557 205.575C133.526 205.84 133.392 206.083 133.183 206.249C132.974 206.415 132.707 206.491 132.442 206.46L132.492 206.4Z" fill="#407BFF"/>
<path d="M114.855 230.29C114.651 230.291 114.451 230.229 114.283 230.113C114.115 229.996 113.987 229.832 113.915 229.64C112.978 227.22 112.648 224.608 112.955 222.031C113.262 219.454 114.196 216.992 115.675 214.86C117.074 212.84 118.947 211.195 121.13 210.069C123.313 208.942 125.739 208.369 128.195 208.4C128.461 208.4 128.715 208.505 128.902 208.693C129.09 208.881 129.195 209.135 129.195 209.4C129.195 209.665 129.09 209.92 128.902 210.107C128.715 210.295 128.461 210.4 128.195 210.4C126.061 210.375 123.953 210.872 122.055 211.848C120.157 212.824 118.526 214.25 117.305 216C116.008 217.878 115.192 220.045 114.929 222.312C114.665 224.579 114.963 226.875 115.795 229C115.886 229.248 115.875 229.522 115.764 229.762C115.654 230.002 115.453 230.188 115.205 230.28C115.09 230.303 114.972 230.306 114.855 230.29Z" fill="#407BFF"/>
<path d="M130.717 241.71C127.72 241.61 124.791 240.787 122.18 239.313C119.568 237.838 117.351 235.755 115.717 233.24C115.596 233.019 115.562 232.76 115.624 232.516C115.685 232.271 115.836 232.059 116.047 231.921C116.258 231.783 116.514 231.73 116.762 231.773C117.011 231.815 117.234 231.95 117.387 232.15C118.84 234.387 120.809 236.242 123.129 237.558C125.449 238.874 128.052 239.612 130.717 239.71C130.983 239.71 131.237 239.815 131.424 240.003C131.612 240.19 131.717 240.445 131.717 240.71C131.717 240.975 131.612 241.229 131.424 241.417C131.237 241.604 130.983 241.71 130.717 241.71Z" fill="#407BFF"/>
<path d="M134.454 241.28C134.226 241.287 134.002 241.215 133.82 241.076C133.638 240.938 133.509 240.742 133.454 240.52C133.391 240.263 133.432 239.991 133.569 239.764C133.706 239.537 133.927 239.374 134.184 239.31C142.294 237.31 144.394 230.2 143.724 224.74C142.854 217.62 137.234 210.41 128.164 210.4C127.899 210.4 127.644 210.295 127.457 210.107C127.269 209.919 127.164 209.665 127.164 209.4C127.164 209.135 127.269 208.88 127.457 208.693C127.644 208.505 127.899 208.4 128.164 208.4C138.394 208.4 144.734 216.5 145.714 224.5C146.714 232.75 142.384 239.33 134.664 241.25C134.595 241.267 134.525 241.277 134.454 241.28Z" fill="#407BFF"/>
<path d="M124.104 215.92C123.915 215.919 123.729 215.863 123.57 215.761C123.411 215.658 123.284 215.512 123.204 215.34C123.091 215.1 123.079 214.825 123.169 214.576C123.259 214.326 123.444 214.123 123.684 214.01C125.217 213.332 126.878 212.991 128.554 213.01C128.819 213.01 129.074 213.115 129.261 213.303C129.449 213.49 129.554 213.745 129.554 214.01C129.554 214.275 129.449 214.53 129.261 214.717C129.074 214.905 128.819 215.01 128.554 215.01C127.174 215.011 125.81 215.308 124.554 215.88C124.409 215.928 124.255 215.941 124.104 215.92Z" fill="#407BFF"/>
<path d="M130.535 237.05C128.002 237.009 125.534 236.244 123.424 234.844C121.313 233.443 119.647 231.468 118.625 229.15C116.555 224.64 117.165 219.93 120.255 216.53C120.434 216.336 120.683 216.22 120.948 216.209C121.212 216.198 121.47 216.292 121.665 216.47C121.859 216.649 121.975 216.898 121.986 217.163C121.997 217.427 121.903 217.685 121.725 217.88C120.482 219.285 119.695 221.034 119.466 222.896C119.238 224.758 119.579 226.646 120.445 228.31C121.329 230.33 122.787 232.046 124.637 233.244C126.488 234.442 128.65 235.07 130.855 235.05C132.523 235.038 134.152 234.543 135.545 233.626C136.937 232.709 138.035 231.408 138.705 229.88C139.458 228.078 139.685 226.1 139.359 224.174C139.034 222.248 138.169 220.454 136.865 219C136.78 218.9 136.715 218.785 136.674 218.66C136.633 218.535 136.618 218.403 136.628 218.272C136.638 218.141 136.674 218.014 136.734 217.897C136.793 217.78 136.875 217.675 136.975 217.59C137.075 217.505 137.19 217.44 137.315 217.399C137.44 217.359 137.572 217.343 137.703 217.353C137.834 217.363 137.961 217.399 138.078 217.459C138.195 217.518 138.3 217.6 138.385 217.7C139.937 219.441 140.963 221.587 141.344 223.888C141.725 226.19 141.444 228.552 140.535 230.7C139.714 232.574 138.37 234.171 136.663 235.3C134.957 236.428 132.961 237.039 130.915 237.06L130.535 237.05Z" fill="#407BFF"/>
<path d="M134.745 216.8C134.556 216.801 134.371 216.745 134.215 216.64C132.526 215.553 130.563 214.97 128.555 214.96C128.289 214.96 128.035 214.855 127.848 214.667C127.66 214.48 127.555 214.225 127.555 213.96C127.555 213.695 127.66 213.44 127.848 213.253C128.035 213.065 128.289 212.96 128.555 212.96C130.943 212.969 133.279 213.663 135.285 214.96C135.466 215.077 135.604 215.249 135.679 215.452C135.755 215.654 135.762 215.875 135.702 216.082C135.641 216.288 135.515 216.47 135.342 216.6C135.17 216.729 134.96 216.799 134.745 216.8Z" fill="#407BFF"/>
<path d="M130.005 232.54C128.837 232.532 127.684 232.269 126.628 231.767C125.573 231.266 124.64 230.54 123.895 229.64C122.934 228.54 122.31 227.187 122.097 225.741C121.884 224.296 122.092 222.82 122.695 221.49C123.233 220.283 124.115 219.26 125.229 218.549C126.344 217.838 127.643 217.469 128.965 217.49C129.23 217.49 129.485 217.595 129.672 217.783C129.86 217.971 129.965 218.225 129.965 218.49C129.965 218.755 129.86 219.01 129.672 219.197C129.485 219.385 129.23 219.49 128.965 219.49C128.03 219.473 127.11 219.73 126.319 220.229C125.529 220.728 124.901 221.448 124.515 222.3C124.075 223.282 123.927 224.37 124.089 225.434C124.25 226.498 124.714 227.493 125.425 228.3C126.133 229.168 127.073 229.816 128.135 230.17C129.197 230.524 130.338 230.569 131.425 230.3C132.309 230.101 133.118 229.652 133.754 229.007C134.391 228.362 134.828 227.547 135.015 226.66C135.072 226.402 135.23 226.177 135.453 226.034C135.676 225.892 135.946 225.843 136.205 225.9C136.334 225.927 136.456 225.98 136.564 226.055C136.673 226.129 136.766 226.225 136.837 226.335C136.909 226.446 136.958 226.569 136.981 226.699C137.005 226.828 137.003 226.961 136.975 227.09C136.71 228.342 136.093 229.491 135.197 230.404C134.3 231.316 133.162 231.953 131.915 232.24C131.292 232.416 130.651 232.516 130.005 232.54Z" fill="#407BFF"/>
<path d="M135.823 224.62C135.603 224.63 135.385 224.567 135.204 224.44C135.023 224.314 134.889 224.131 134.823 223.92C134.424 222.667 133.644 221.57 132.592 220.781C131.54 219.992 130.268 219.552 128.953 219.52C128.688 219.52 128.434 219.415 128.246 219.227C128.058 219.04 127.953 218.785 127.953 218.52C127.953 218.255 128.058 218 128.246 217.813C128.434 217.625 128.688 217.52 128.953 217.52C130.692 217.559 132.375 218.138 133.769 219.177C135.164 220.217 136.2 221.665 136.733 223.32C136.774 223.445 136.789 223.578 136.778 223.709C136.767 223.84 136.73 223.968 136.67 224.085C136.61 224.202 136.527 224.306 136.426 224.391C136.325 224.476 136.209 224.54 136.083 224.58C135.999 224.605 135.911 224.618 135.823 224.62Z" fill="#407BFF"/>
<path d="M130.271 228.38C130.006 228.38 129.751 228.275 129.564 228.087C129.376 227.9 129.271 227.645 129.271 227.38C129.271 227.115 129.376 226.86 129.564 226.673C129.751 226.485 130.006 226.38 130.271 226.38C130.408 226.38 130.543 226.353 130.668 226.299C130.794 226.245 130.907 226.166 131 226.066C131.094 225.967 131.166 225.85 131.213 225.721C131.259 225.593 131.279 225.456 131.271 225.32C131.276 225.125 131.243 224.932 131.173 224.75C131.102 224.568 130.997 224.402 130.862 224.262C130.727 224.121 130.565 224.009 130.387 223.931C130.208 223.854 130.016 223.813 129.821 223.81C129.674 223.814 129.53 223.847 129.396 223.907C129.262 223.967 129.141 224.053 129.041 224.16C128.939 224.281 128.861 224.421 128.813 224.572C128.765 224.723 128.747 224.882 128.761 225.04C128.769 225.171 128.751 225.303 128.708 225.427C128.665 225.552 128.598 225.666 128.511 225.765C128.423 225.863 128.317 225.943 128.199 226.001C128.081 226.059 127.952 226.092 127.821 226.1C127.69 226.108 127.558 226.09 127.434 226.047C127.309 226.004 127.195 225.937 127.096 225.85C126.998 225.762 126.918 225.656 126.86 225.538C126.803 225.42 126.769 225.291 126.761 225.16C126.725 224.74 126.776 224.318 126.91 223.919C127.043 223.519 127.257 223.151 127.538 222.838C127.819 222.524 128.161 222.271 128.543 222.094C128.926 221.918 129.34 221.821 129.761 221.81C130.219 221.811 130.672 221.903 131.094 222.081C131.516 222.259 131.898 222.518 132.219 222.845C132.54 223.171 132.793 223.558 132.963 223.983C133.133 224.408 133.218 224.862 133.211 225.32C133.219 225.719 133.147 226.116 133 226.487C132.853 226.857 132.633 227.195 132.354 227.48C132.074 227.765 131.741 227.992 131.373 228.146C131.005 228.301 130.61 228.38 130.211 228.38H130.271Z" fill="#407BFF"/>
<path d="M156.003 225.05C157.223 238.98 146.913 250.27 133.003 250.27H131.923C145.183 249.59 154.813 238.57 153.633 225.08C152.952 218.477 149.957 212.328 145.179 207.72C140.401 203.112 134.147 200.342 127.523 199.9C127.873 199.9 128.233 199.9 128.593 199.9C142.543 199.84 154.823 211.13 156.003 225.05Z" fill="#407BFF"/>
<g opacity="0.4">
<path d="M156.003 225.05C157.223 238.98 146.913 250.27 133.003 250.27H131.923C145.183 249.59 154.813 238.57 153.633 225.08C152.952 218.477 149.957 212.328 145.179 207.72C140.401 203.112 134.147 200.342 127.523 199.9C127.873 199.9 128.233 199.9 128.593 199.9C142.543 199.84 154.823 211.13 156.003 225.05Z" fill="#3A3A3C"/>
</g>
<path d="M176.424 102.14C176.448 102.438 176.488 102.735 176.544 103.03C176.921 104.956 177.91 106.71 179.364 108.03C181.011 109.572 183.177 110.439 185.434 110.46H269.924C270.91 110.48 271.89 110.303 272.808 109.941C273.725 109.578 274.561 109.037 275.268 108.348C275.974 107.66 276.536 106.838 276.922 105.93C277.308 105.022 277.509 104.046 277.514 103.06C277.529 102.763 277.529 102.466 277.514 102.17C277.278 99.9307 276.234 97.8545 274.577 96.3302C272.921 94.8059 270.765 93.9382 268.514 93.8897H184.004C182.944 93.8683 181.893 94.0725 180.918 94.4888C179.944 94.9051 179.069 95.5239 178.352 96.3042C177.635 97.0845 177.092 98.0083 176.76 99.0145C176.428 100.021 176.313 101.086 176.424 102.14Z" fill="#407BFF"/>
<path opacity="0.8" d="M176.424 102.14C176.448 102.438 176.488 102.735 176.544 103.03C176.921 104.956 177.91 106.71 179.364 108.03C181.011 109.572 183.177 110.439 185.434 110.46H269.924C270.91 110.48 271.89 110.303 272.808 109.941C273.725 109.578 274.561 109.037 275.268 108.348C275.974 107.66 276.536 106.838 276.922 105.93C277.308 105.022 277.509 104.046 277.514 103.06C277.529 102.763 277.529 102.466 277.514 102.17C277.278 99.9307 276.234 97.8545 274.577 96.3302C272.921 94.8059 270.765 93.9382 268.514 93.8897H184.004C182.944 93.8683 181.893 94.0725 180.918 94.4888C179.944 94.9051 179.069 95.5239 178.352 96.3042C177.635 97.0845 177.092 98.0083 176.76 99.0145C176.428 100.021 176.313 101.086 176.424 102.14Z" fill="#3A3A3C"/>
<path d="M277.515 103C277.515 103.268 277.495 103.535 277.455 103.8C277.157 101.612 276.086 99.6024 274.435 98.1351C272.784 96.6679 270.663 95.8396 268.455 95.8002L178.625 96.0002C179.337 95.3074 180.179 94.7619 181.102 94.3947C182.025 94.0275 183.012 93.8459 184.005 93.8602H268.495C270.746 93.9086 272.902 94.7764 274.559 96.3006C276.215 97.8249 277.259 99.9012 277.495 102.14C277.516 102.426 277.522 102.713 277.515 103Z" fill="#407BFF"/>
<path opacity="0.5" d="M277.515 103C277.515 103.268 277.495 103.535 277.455 103.8C277.157 101.612 276.086 99.6024 274.435 98.1351C272.784 96.6679 270.663 95.8396 268.455 95.8002L178.625 96.0002C179.337 95.3074 180.179 94.7619 181.102 94.3947C182.025 94.0275 183.012 93.8459 184.005 93.8602H268.495C270.746 93.9086 272.902 94.7764 274.559 96.3006C276.215 97.8249 277.259 99.9012 277.495 102.14C277.516 102.426 277.522 102.713 277.515 103Z" fill="#3A3A3C"/>
<path d="M263 97.8601L263.36 101.86L267.12 100.46L268.01 102.46L264.17 103.74L266.93 107.13L265.2 108.4L262.51 104.88L260.51 108.4L258.62 107.13L260.75 103.74L256.75 102.46L257.29 100.46L261.34 101.81L260.98 97.8101L263 97.8601Z" fill="#407BFF"/>
<path d="M239.854 97.8598L240.214 101.86L243.974 100.46L244.874 102.46L241.004 103.77L243.764 107.16L242.044 108.43L239.354 104.91L237.354 108.43L235.454 107.16L237.594 103.77L233.594 102.49L234.134 100.49L238.184 101.84L237.834 97.8398L239.854 97.8598Z" fill="#407BFF"/>
<path d="M216.755 97.8598L217.105 101.86L220.865 100.46L221.765 102.46L217.915 103.74L220.675 107.13L219.005 108.43L216.315 104.91L214.315 108.43L212.425 107.16L214.555 103.77L210.555 102.49L211.105 100.49L215.105 101.84L214.755 97.8398L216.755 97.8598Z" fill="#407BFF"/>
<path d="M193.641 97.8601L193.991 101.86L197.761 100.46L198.651 102.46L194.801 103.74L197.571 107.13L195.841 108.4L193.151 104.88L191.151 108.4L189.261 107.13L191.391 103.74L187.391 102.46L187.931 100.46L191.931 101.81L191.581 97.8101L193.641 97.8601Z" fill="#407BFF"/>
<path d="M249.651 89.9399H245.711V90.9399H249.651V89.9399Z" fill="#407BFF"/>
<path d="M266.584 89.9399H253.734V90.9399H266.584V89.9399Z" fill="#407BFF"/>
<path opacity="0.8" d="M397.79 127.24L393.7 174C393.543 175.492 392.846 176.876 391.742 177.892C390.637 178.908 389.201 179.487 387.7 179.52H355.23C354.527 179.524 353.832 179.379 353.189 179.096C352.545 178.813 351.969 178.398 351.497 177.877C351.026 177.356 350.669 176.741 350.451 176.073C350.232 175.405 350.157 174.699 350.23 174L354.32 127.23C354.472 125.735 355.166 124.348 356.272 123.33C357.378 122.313 358.818 121.737 360.32 121.71H392.79C393.494 121.706 394.191 121.851 394.834 122.134C395.478 122.418 396.055 122.835 396.527 123.357C396.999 123.879 397.356 124.494 397.573 125.164C397.791 125.833 397.865 126.54 397.79 127.24Z" fill="#407BFF"/>
<path opacity="0.8" d="M397.79 127.24L393.7 174C393.543 175.492 392.846 176.876 391.742 177.892C390.637 178.908 389.201 179.487 387.7 179.52H355.23C354.527 179.524 353.832 179.379 353.189 179.096C352.545 178.813 351.969 178.398 351.497 177.877C351.026 177.356 350.669 176.741 350.451 176.073C350.232 175.405 350.157 174.699 350.23 174L354.32 127.23C354.472 125.735 355.166 124.348 356.272 123.33C357.378 122.313 358.818 121.737 360.32 121.71H392.79C393.494 121.706 394.191 121.851 394.834 122.134C395.478 122.418 396.055 122.835 396.527 123.357C396.999 123.879 397.356 124.494 397.573 125.164C397.791 125.833 397.865 126.54 397.79 127.24Z" fill="#3A3A3C"/>
<path d="M357.277 134.78H357.187C356.923 134.757 356.679 134.631 356.509 134.428C356.338 134.226 356.255 133.964 356.277 133.7L356.657 129.42C356.679 129.171 356.795 128.939 356.98 128.771C357.165 128.602 357.407 128.509 357.657 128.51H362.177C362.442 128.51 362.697 128.616 362.884 128.803C363.072 128.991 363.177 129.245 363.177 129.51C363.177 129.775 363.072 130.03 362.884 130.217C362.697 130.405 362.442 130.51 362.177 130.51H358.577L358.277 133.87C358.254 134.12 358.139 134.351 357.954 134.52C357.769 134.688 357.527 134.781 357.277 134.78Z" fill="#407BFF"/>
<path d="M393.64 134.78H393.55C393.286 134.757 393.042 134.631 392.872 134.428C392.701 134.226 392.618 133.964 392.64 133.7L392.92 130.51H389.5C389.235 130.51 388.98 130.405 388.793 130.217C388.605 130.03 388.5 129.775 388.5 129.51C388.5 129.245 388.605 128.991 388.793 128.803C388.98 128.616 389.235 128.51 389.5 128.51H394C394.139 128.51 394.277 128.538 394.405 128.594C394.532 128.65 394.647 128.732 394.741 128.834C394.835 128.937 394.907 129.058 394.951 129.19C394.996 129.322 395.013 129.462 395 129.6L394.62 133.87C394.598 134.116 394.485 134.345 394.305 134.513C394.124 134.681 393.887 134.776 393.64 134.78Z" fill="#407BFF"/>
<path d="M358.998 167.05H354.478C354.341 167.05 354.205 167.021 354.08 166.966C353.954 166.911 353.841 166.831 353.748 166.73C353.654 166.628 353.583 166.508 353.538 166.377C353.493 166.247 353.476 166.108 353.488 165.97L353.858 161.69C353.88 161.425 354.007 161.179 354.211 161.008C354.414 160.836 354.678 160.753 354.943 160.775C355.208 160.798 355.453 160.925 355.625 161.128C355.797 161.332 355.88 161.595 355.858 161.86L355.578 165.05H358.998C359.263 165.05 359.517 165.155 359.705 165.343C359.893 165.531 359.998 165.785 359.998 166.05C359.998 166.315 359.893 166.57 359.705 166.757C359.517 166.945 359.263 167.05 358.998 167.05Z" fill="#407BFF"/>
<path d="M390.807 167.05H386.297C386.032 167.05 385.777 166.945 385.59 166.757C385.402 166.569 385.297 166.315 385.297 166.05C385.297 165.785 385.402 165.53 385.59 165.343C385.777 165.155 386.032 165.05 386.297 165.05H389.897L390.187 161.69C390.21 161.426 390.336 161.182 390.539 161.012C390.741 160.841 391.003 160.758 391.267 160.78C391.531 160.803 391.775 160.929 391.945 161.132C392.116 161.334 392.199 161.596 392.177 161.86L391.807 166.14C391.784 166.389 391.669 166.621 391.484 166.789C391.299 166.958 391.057 167.051 390.807 167.05Z" fill="#407BFF"/>
<path d="M387.371 150.927C389.628 142.172 385.753 133.604 378.715 131.789C371.677 129.974 364.142 135.6 361.885 144.355C359.627 153.109 363.502 161.677 370.54 163.492C377.578 165.307 385.113 159.681 387.371 150.927Z" fill="#3A3A3C"/>
<path d="M378.552 172.53H365.602L366.732 159.58H379.682L378.552 172.53Z" fill="#3A3A3C"/>
<path d="M393.7 174C393.543 175.493 392.846 176.876 391.742 177.892C390.637 178.909 389.201 179.487 387.7 179.52H355.23C354.527 179.524 353.832 179.38 353.189 179.097C352.545 178.813 351.969 178.398 351.497 177.877C351.026 177.356 350.669 176.742 350.451 176.074C350.232 175.406 350.157 174.699 350.23 174C350.23 174 365.15 169.28 366.99 169.28H378.52L393.7 174Z" fill="#3A3A3C"/>
<path d="M399.677 140.906L398.164 159.273L399.161 159.356L400.674 140.988L399.677 140.906Z" fill="#407BFF"/>
<path d="M400.727 132.501L400.43 136.108L401.426 136.191L401.724 132.583L400.727 132.501Z" fill="#407BFF"/>
<path d="M365.885 244.07H361.945V245.07H365.885V244.07Z" fill="#407BFF"/>
<path d="M382.811 244.07H369.961V245.07H382.811V244.07Z" fill="#407BFF"/>
<path d="M406.331 227L403.841 255.5C403.711 256.759 403.125 257.928 402.193 258.785C401.26 259.641 400.047 260.127 398.781 260.15C398.185 260.16 397.594 260.044 397.046 259.808C396.499 259.573 396.008 259.224 395.606 258.784C395.204 258.344 394.9 257.824 394.715 257.258C394.53 256.691 394.467 256.092 394.531 255.5L397.001 227C397.231 224.874 397.006 222.724 396.342 220.692C395.677 218.66 394.588 216.792 393.147 215.213C391.706 213.633 389.945 212.379 387.982 211.532C386.019 210.685 383.898 210.265 381.761 210.3H371.601C367.057 210.386 362.701 212.132 359.356 215.208C356.01 218.284 353.906 222.479 353.441 227L352.441 238.64H343.141L344.141 227C345.391 212.66 358.081 201 372.411 201H382.611C385.939 200.945 389.24 201.598 392.296 202.917C395.352 204.236 398.093 206.19 400.336 208.648C402.58 211.107 404.274 214.015 405.308 217.179C406.341 220.343 406.69 223.691 406.331 227Z" fill="#407BFF"/>
<g opacity="0.5">
<path d="M406.331 227L403.841 255.5C403.711 256.759 403.125 257.928 402.193 258.785C401.26 259.641 400.047 260.127 398.781 260.15C398.185 260.16 397.594 260.044 397.046 259.808C396.499 259.573 396.008 259.224 395.606 258.784C395.204 258.344 394.9 257.824 394.715 257.258C394.53 256.691 394.467 256.092 394.531 255.5L397.001 227C397.231 224.874 397.006 222.724 396.342 220.692C395.677 218.66 394.588 216.792 393.147 215.213C391.706 213.633 389.945 212.379 387.982 211.532C386.019 210.685 383.898 210.265 381.761 210.3H371.601C367.057 210.386 362.701 212.132 359.356 215.208C356.01 218.284 353.906 222.479 353.441 227L352.441 238.64H343.141L344.141 227C345.391 212.66 358.081 201 372.411 201H382.611C385.939 200.945 389.24 201.598 392.296 202.917C395.352 204.236 398.093 206.19 400.336 208.648C402.58 211.107 404.274 214.015 405.308 217.179C406.341 220.343 406.69 223.691 406.331 227Z" fill="#3A3A3C"/>
</g>
<path d="M407.003 254.46L402.153 310C401.977 311.722 401.175 313.32 399.9 314.49C398.624 315.66 396.964 316.322 395.233 316.35H339.693C338.88 316.365 338.072 316.206 337.325 315.884C336.578 315.563 335.907 315.086 335.359 314.485C334.81 313.884 334.395 313.174 334.143 312.4C333.89 311.627 333.805 310.809 333.893 310L338.753 254.46C338.865 253.353 339.236 252.287 339.838 251.351C340.439 250.414 341.253 249.633 342.213 249.07C343.256 248.432 344.451 248.086 345.673 248.07H401.203C402.338 248.064 403.451 248.379 404.413 248.98C405.311 249.562 406.03 250.384 406.487 251.352C406.945 252.32 407.123 253.396 407.003 254.46Z" fill="#407BFF"/>
<path d="M349.25 278.72L363.68 300.93L411.27 253.34C411.344 253.251 411.383 253.14 411.381 253.025C411.379 252.91 411.337 252.8 411.26 252.714C411.184 252.628 411.08 252.572 410.966 252.557C410.852 252.541 410.736 252.567 410.64 252.63L365.29 288.18L356.72 274.37L349.25 278.72Z" fill="#3A3A3C"/>
<path d="M122.003 171.31H85.8225C84.1485 171.28 82.5435 170.637 81.3109 169.504C80.0783 168.371 79.3034 166.826 79.1325 165.16L76.0025 129C75.9157 128.217 75.9968 127.425 76.2405 126.675C76.4842 125.926 76.8849 125.238 77.4158 124.656C77.9467 124.074 78.5957 123.611 79.3194 123.3C80.0431 122.989 80.8249 122.835 81.6125 122.85H117.753C119.42 122.888 121.017 123.534 122.241 124.667C123.466 125.799 124.235 127.34 124.403 129L127.563 165.14C127.652 165.92 127.574 166.711 127.335 167.459C127.096 168.207 126.7 168.896 126.174 169.479C125.648 170.062 125.004 170.528 124.285 170.843C123.566 171.159 122.788 171.318 122.003 171.31Z" fill="#407BFF"/>
<path opacity="0.8" d="M122.003 171.31H85.8225C84.1485 171.28 82.5435 170.637 81.3109 169.504C80.0783 168.371 79.3034 166.826 79.1325 165.16L76.0025 129C75.9157 128.217 75.9968 127.425 76.2405 126.675C76.4842 125.926 76.8849 125.238 77.4158 124.656C77.9467 124.074 78.5957 123.611 79.3194 123.3C80.0431 122.989 80.8249 122.835 81.6125 122.85H117.753C119.42 122.888 121.017 123.534 122.241 124.667C123.466 125.799 124.235 127.34 124.403 129L127.563 165.14C127.652 165.92 127.574 166.711 127.335 167.459C127.096 168.207 126.7 168.896 126.174 169.479C125.648 170.062 125.004 170.528 124.285 170.843C123.566 171.159 122.788 171.318 122.003 171.31Z" fill="#3A3A3C"/>
<path d="M79.1484 150.73C79.1484 150.73 91.9984 132.84 101.458 133.3C110.918 133.76 126.638 150.3 126.638 150.3C126.638 150.3 103.468 162.47 79.1484 150.73Z" fill="#3A3A3C"/>
<path d="M79.56 151L78.75 150.42C79.27 149.69 91.52 132.77 101.1 132.77H101.49C111.05 133.23 126.35 149.25 127 149.93L126.28 150.62C126.12 150.46 110.6 134.21 101.44 133.77H101.1C92 133.79 79.68 150.85 79.56 151Z" fill="#263238"/>
<path d="M77.8199 151.36C75.8799 151.36 73.3599 150.64 72.4699 147.9C72.4289 147.774 72.4395 147.637 72.4995 147.519C72.5595 147.401 72.664 147.311 72.7899 147.27C72.8522 147.248 72.9182 147.239 72.9841 147.244C73.0499 147.248 73.1142 147.266 73.173 147.296C73.2319 147.326 73.284 147.367 73.3265 147.418C73.3689 147.468 73.4007 147.527 73.4199 147.59C74.5699 151.13 78.8699 150.28 79.0499 150.24C79.1796 150.216 79.3135 150.243 79.4235 150.316C79.5335 150.389 79.611 150.501 79.6399 150.63C79.653 150.694 79.6534 150.761 79.6409 150.825C79.6284 150.89 79.6033 150.951 79.5671 151.006C79.5309 151.061 79.4842 151.108 79.4298 151.144C79.3754 151.181 79.3142 151.207 79.2499 151.22C78.7789 151.313 78.3 151.36 77.8199 151.36Z" fill="#263238"/>
<path d="M85.4502 143.68C85.3386 143.682 85.2295 143.647 85.1402 143.58C84.9902 143.46 81.4402 140.72 80.5402 137.93C80.4992 137.804 80.5098 137.667 80.5698 137.549C80.6298 137.431 80.7343 137.341 80.8602 137.3C80.9862 137.262 81.1221 137.273 81.2396 137.333C81.357 137.393 81.4468 137.496 81.4902 137.62C82.3002 140.11 85.7102 142.76 85.7502 142.78C85.8547 142.861 85.9229 142.98 85.9398 143.111C85.9566 143.243 85.9208 143.375 85.8402 143.48C85.7946 143.541 85.7358 143.59 85.6683 143.625C85.6007 143.66 85.5261 143.678 85.4502 143.68Z" fill="#263238"/>
<path d="M92.7934 136.87C92.6625 136.862 92.5392 136.806 92.4484 136.711C92.3575 136.616 92.3057 136.491 92.3034 136.36C91.7194 134.182 90.9946 132.044 90.1334 129.96C89.8834 129.3 89.7034 128.82 89.6634 128.7C89.6435 128.636 89.6365 128.569 89.6429 128.503C89.6493 128.436 89.6689 128.372 89.7006 128.313C89.7323 128.254 89.7754 128.203 89.8274 128.161C89.8794 128.119 89.9393 128.088 90.0034 128.07C90.0664 128.051 90.1325 128.046 90.1977 128.053C90.263 128.06 90.3262 128.08 90.3838 128.111C90.4414 128.143 90.4922 128.186 90.5333 128.237C90.5744 128.288 90.605 128.347 90.6234 128.41C90.6234 128.53 90.8334 128.97 91.0634 129.6C92.4634 133.27 93.3234 135.68 93.3034 136.38C93.3035 136.446 93.2902 136.511 93.2643 136.572C93.2384 136.633 93.2005 136.688 93.1529 136.734C93.1052 136.779 93.0488 136.815 92.9871 136.838C92.9253 136.862 92.8594 136.872 92.7934 136.87Z" fill="#263238"/>
<path d="M101.46 133.8C101.335 133.796 101.216 133.747 101.124 133.663C101.033 133.579 100.974 133.464 100.96 133.34L100.26 125.34C100.248 125.207 100.289 125.075 100.374 124.973C100.46 124.871 100.582 124.807 100.715 124.795C100.847 124.783 100.979 124.824 101.082 124.91C101.184 124.995 101.248 125.117 101.26 125.25L101.96 133.31C101.968 133.441 101.926 133.569 101.843 133.67C101.759 133.77 101.64 133.835 101.51 133.85L101.46 133.8Z" fill="#263238"/>
<path d="M128.141 150.81C127.652 150.812 127.164 150.772 126.681 150.69C126.617 150.677 126.556 150.651 126.501 150.614C126.447 150.578 126.4 150.531 126.364 150.476C126.328 150.421 126.303 150.36 126.29 150.295C126.278 150.231 126.278 150.164 126.291 150.1C126.302 150.035 126.326 149.974 126.361 149.919C126.397 149.864 126.443 149.816 126.497 149.78C126.551 149.743 126.613 149.718 126.677 149.706C126.741 149.694 126.808 149.696 126.871 149.71C126.871 149.71 129.321 150.18 130.821 149.12C131.142 148.887 131.41 148.587 131.606 148.243C131.803 147.898 131.924 147.515 131.961 147.12C131.971 147.054 131.994 146.991 132.028 146.934C132.062 146.878 132.107 146.828 132.161 146.788C132.214 146.749 132.275 146.72 132.339 146.704C132.404 146.688 132.471 146.685 132.536 146.695C132.602 146.705 132.665 146.728 132.722 146.762C132.779 146.796 132.828 146.841 132.868 146.895C132.907 146.948 132.936 147.009 132.952 147.073C132.968 147.137 132.971 147.204 132.961 147.27C132.901 147.796 132.731 148.304 132.462 148.76C132.194 149.217 131.832 149.612 131.401 149.92C130.43 150.539 129.293 150.85 128.141 150.81Z" fill="#263238"/>
<path d="M119.159 143.15C119.088 143.151 119.019 143.136 118.955 143.106C118.891 143.077 118.834 143.034 118.789 142.98C118.742 142.934 118.704 142.878 118.679 142.817C118.654 142.756 118.641 142.691 118.641 142.625C118.641 142.559 118.654 142.494 118.679 142.433C118.704 142.372 118.742 142.317 118.789 142.27C118.789 142.27 121.789 139.63 122.109 137.17C122.131 137.04 122.202 136.923 122.309 136.845C122.415 136.767 122.548 136.733 122.679 136.75C122.744 136.76 122.806 136.782 122.862 136.816C122.919 136.85 122.968 136.895 123.007 136.948C123.046 137.001 123.074 137.061 123.09 137.125C123.105 137.189 123.108 137.255 123.099 137.32C122.679 140.14 119.579 142.9 119.449 143.02C119.37 143.096 119.268 143.143 119.159 143.15Z" fill="#263238"/>
<path d="M110.709 137.34H110.619C110.489 137.316 110.373 137.242 110.297 137.133C110.22 137.025 110.189 136.891 110.209 136.76C110.209 136.7 111.309 130.27 111.509 128.95C111.519 128.884 111.542 128.821 111.576 128.765C111.61 128.708 111.655 128.658 111.709 128.619C111.762 128.579 111.823 128.551 111.887 128.534C111.952 128.518 112.019 128.515 112.084 128.525C112.15 128.535 112.213 128.558 112.27 128.592C112.327 128.626 112.376 128.671 112.416 128.725C112.455 128.778 112.484 128.839 112.5 128.903C112.516 128.968 112.519 129.034 112.509 129.1C112.309 130.43 111.219 136.87 111.209 136.93C111.188 137.047 111.126 137.152 111.034 137.227C110.943 137.302 110.828 137.342 110.709 137.34Z" fill="#263238"/>
<path d="M111 152.825C115.14 148.5 114.667 141.329 109.943 136.807C105.22 132.285 98.0344 132.125 93.8944 136.45C89.7545 140.774 90.2277 147.946 94.9512 152.468C99.6748 156.99 106.86 157.15 111 152.825Z" fill="#407BFF"/>
<path opacity="0.3" d="M107.142 144.63C107.157 144.377 107.157 144.123 107.142 143.87C107.008 142.566 106.4 141.357 105.435 140.471C104.469 139.584 103.213 139.082 101.902 139.06C101.286 139.049 100.675 139.17 100.109 139.413C99.5436 139.657 99.0362 140.019 98.6209 140.474C98.2056 140.929 97.892 141.467 97.7008 142.052C97.5096 142.638 97.4453 143.258 97.5121 143.87C97.5287 144.128 97.5757 144.383 97.6521 144.63H91.1321C90.9727 143.188 91.1225 141.729 91.5714 140.349C92.0203 138.97 92.758 137.701 93.7355 136.629C94.7129 135.557 95.9076 134.706 97.2399 134.132C98.5722 133.558 100.012 133.274 101.462 133.3C104.546 133.357 107.503 134.541 109.775 136.628C112.046 138.715 113.475 141.561 113.792 144.63H107.142Z" fill="black"/>
<path opacity="0.7" d="M107.127 143.87C107.141 144.123 107.141 144.377 107.127 144.63C107.055 145.743 106.556 146.785 105.734 147.54C104.913 148.294 103.832 148.703 102.717 148.68C101.541 148.658 100.405 148.249 99.4854 147.517C98.5653 146.785 97.912 145.77 97.6265 144.63C97.5501 144.383 97.5031 144.128 97.4865 143.87C97.4197 143.257 97.4841 142.638 97.6752 142.052C97.8664 141.467 98.1801 140.928 98.5953 140.473C99.0106 140.018 99.518 139.657 100.084 139.413C100.649 139.17 101.261 139.049 101.877 139.06C103.189 139.08 104.448 139.58 105.416 140.467C106.383 141.354 106.992 142.564 107.127 143.87Z" fill="black"/>
<path opacity="0.7" d="M109.737 139.15C109.791 139.649 109.738 140.154 109.582 140.631C109.426 141.108 109.17 141.547 108.831 141.917C108.493 142.288 108.079 142.583 107.618 142.781C107.157 142.98 106.659 143.078 106.157 143.07C105.091 143.049 104.069 142.638 103.284 141.916C102.5 141.194 102.006 140.21 101.897 139.15C101.841 138.65 101.893 138.145 102.048 137.667C102.204 137.189 102.46 136.75 102.798 136.379C103.137 136.007 103.552 135.713 104.013 135.515C104.475 135.317 104.974 135.22 105.477 135.23C106.543 135.249 107.566 135.658 108.351 136.381C109.136 137.103 109.629 138.088 109.737 139.15Z" fill="#3A3A3C"/>
<path d="M94.2603 118.38H90.3203V119.38H94.2603V118.38Z" fill="#407BFF"/>
<path d="M111.194 118.38H98.3438V119.38H111.194V118.38Z" fill="#407BFF"/>
<path d="M276.004 191.65L276.344 192.06L276.804 192.59C277.134 192.94 277.454 193.31 277.804 193.65C278.494 194.37 279.244 195.07 280.004 195.78C281.523 197.181 283.115 198.499 284.774 199.73C286.464 200.99 288.244 202.14 290.024 203.28C291.024 203.82 291.844 204.39 292.784 204.91L294.954 206.11C295.27 206.249 295.625 206.27 295.954 206.17C296.654 205.96 300.674 201.98 301.954 200.5C304.794 197.25 309.094 192.97 311.414 189.33L314.004 192.9C312.367 197.36 310.195 201.604 307.534 205.54C306.104 207.668 304.388 209.589 302.434 211.25C301.262 212.238 299.938 213.031 298.514 213.6C296.709 214.32 294.727 214.47 292.834 214.03C292.345 213.911 291.867 213.75 291.404 213.55L290.504 213.16L288.884 212.42C287.794 211.94 286.744 211.36 285.684 210.83C283.565 209.699 281.509 208.454 279.524 207.1C277.524 205.724 275.604 204.235 273.774 202.64C272.824 201.81 271.974 200.97 271.104 200.06C270.674 199.61 270.234 199.14 269.814 198.65L269.194 197.89C268.964 197.61 268.794 197.4 268.484 196.97L276.004 191.65Z" fill="#FFB573"/>
<path d="M311 189.88L315.64 179.96L320.07 187.9C320.07 187.9 317.16 192.9 314 192.9L311 189.88Z" fill="#FFB573"/>
<path d="M320.9 175.84L325.58 181.86L320.11 187.89L315.68 179.96L320.9 175.84Z" fill="#FFB573"/>
<path d="M319.273 190.63H326.643C326.85 190.629 327.05 190.55 327.204 190.41C327.357 190.269 327.453 190.077 327.473 189.87L329.003 172.2C329.014 172.085 329.001 171.968 328.964 171.858C328.927 171.748 328.868 171.646 328.79 171.561C328.712 171.475 328.616 171.407 328.51 171.36C328.404 171.313 328.289 171.29 328.173 171.29H320.813C320.603 171.292 320.402 171.372 320.248 171.514C320.095 171.657 320 171.851 319.983 172.06L318.433 189.72C318.423 189.836 318.437 189.953 318.475 190.063C318.513 190.173 318.573 190.274 318.652 190.36C318.731 190.445 318.827 190.514 318.934 190.56C319.041 190.607 319.156 190.63 319.273 190.63Z" fill="#407BFF"/>
<path opacity="0.3" d="M319.352 188.86H326.732L328.112 173.07H320.732L319.352 188.86Z" fill="#3A3A3C"/>
<path d="M318.874 186.62L320.184 185.95C320.851 185.611 321.467 185.18 322.014 184.67L322.254 183.8C322.115 183.568 321.904 183.388 321.654 183.285C321.403 183.182 321.127 183.163 320.864 183.23L319.774 183.53L314.364 183.94L314.234 186.22L315.814 188.66H316.354C316.95 188.681 317.533 188.486 317.996 188.111C318.459 187.736 318.771 187.207 318.874 186.62Z" fill="#FFB573"/>
<path d="M266.56 182C270.31 181.32 296.76 204.25 296.76 204.25L288.92 215.75C288.92 215.75 260 195.61 260.92 190.75C261.81 185.64 261.1 183 266.56 182Z" fill="#263238"/>
<path opacity="0.2" d="M269.899 189.33L269.609 201.33C272.609 203.66 283.449 211.97 283.449 211.97L269.899 189.33Z" fill="black"/>
<path d="M248.93 420.31L257.8 421.18L260.62 400.61L251.74 399.74L248.93 420.31Z" fill="#FFB573"/>
<path d="M161.606 299.61L159.336 308.25L178.526 316.52L182.506 307.75L161.606 299.61Z" fill="#FFB573"/>
<path d="M264.151 423C264.914 423.094 265.686 422.925 266.341 422.52C266.482 422.397 266.592 422.242 266.661 422.068C266.731 421.894 266.758 421.707 266.741 421.52C266.74 421.403 266.709 421.289 266.649 421.188C266.589 421.088 266.503 421.006 266.401 420.95C265.331 420.31 261.711 422.03 261.301 422.22C261.261 422.238 261.229 422.268 261.207 422.306C261.186 422.344 261.177 422.387 261.181 422.43C261.186 422.474 261.206 422.515 261.236 422.548C261.267 422.58 261.307 422.602 261.351 422.61C262.27 422.825 263.207 422.956 264.151 423ZM265.761 421.21C265.9 421.199 266.039 421.231 266.161 421.3C266.203 421.322 266.238 421.355 266.263 421.396C266.287 421.436 266.301 421.483 266.301 421.53C266.311 421.655 266.292 421.781 266.246 421.897C266.199 422.014 266.125 422.117 266.031 422.2C265.481 422.67 264.031 422.71 262.031 422.33C263.21 421.741 264.482 421.359 265.791 421.2L265.761 421.21Z" fill="#407BFF"/>
<path d="M261.391 422.57H261.471C262.551 422.12 264.721 420.26 264.581 419.24C264.542 419.063 264.444 418.904 264.302 418.791C264.16 418.679 263.983 418.618 263.801 418.62C263.593 418.581 263.379 418.588 263.174 418.64C262.968 418.692 262.776 418.787 262.611 418.92C261.461 419.81 261.191 422.22 261.171 422.31C261.162 422.346 261.162 422.385 261.17 422.421C261.179 422.458 261.197 422.492 261.221 422.52C261.245 422.54 261.272 422.554 261.301 422.563C261.33 422.571 261.361 422.574 261.391 422.57ZM263.601 419H263.721C264.111 419.06 264.131 419.21 264.131 419.26C264.221 419.87 262.741 421.35 261.631 421.94C261.738 420.926 262.165 419.973 262.851 419.22C263.074 419.059 263.35 418.991 263.621 419.03L263.601 419Z" fill="#407BFF"/>
<path d="M257.362 417.6L249.362 417.94C249.19 417.942 249.024 418.007 248.897 418.123C248.769 418.239 248.69 418.399 248.672 418.57L246.752 429.74C246.742 429.93 246.769 430.12 246.832 430.3C246.895 430.479 246.993 430.645 247.12 430.786C247.248 430.927 247.402 431.042 247.574 431.123C247.746 431.205 247.932 431.251 248.122 431.26H248.282C251.772 431.08 253.452 430.82 257.872 430.67C260.582 430.58 268.872 431.56 272.572 430.72C276.272 429.88 275.572 426.21 273.982 426.24C268.842 426.34 262.912 422.99 259.982 419.07C259.472 418.74 257.922 417.57 257.362 417.6Z" fill="#263238"/>
<path d="M163.413 309.38L167.493 302.45C167.586 302.303 167.619 302.127 167.588 301.957C167.556 301.786 167.462 301.634 167.323 301.53L159.003 293.86C158.694 293.642 158.312 293.553 157.938 293.613C157.564 293.673 157.229 293.876 157.003 294.18L156.913 294.32C155.173 297.32 154.483 298.9 152.213 302.69C150.813 305.02 145.473 311.49 144.213 315.02C142.953 318.55 146.373 320.02 147.213 318.64C149.923 314.26 155.953 311.1 160.853 310.72C161.323 310.54 163.133 309.87 163.413 309.38Z" fill="#263238"/>
<path opacity="0.2" d="M260.627 400.61L259.177 411.22L250.297 410.35L251.737 399.75L260.627 400.61Z" fill="black"/>
<path opacity="0.2" d="M188.405 309.89L184.305 319.14L171.945 313.68L175.095 304.87L188.405 309.89Z" fill="black"/>
<path d="M272.23 192.55C277.3 201.17 271.1 208.44 265.92 234.2L232.5 234.29C233.04 220.41 232.98 209.19 227.06 181.88C226.907 181.207 226.907 180.508 227.061 179.835C227.216 179.162 227.52 178.533 227.952 177.995C228.384 177.456 228.932 177.022 229.555 176.725C230.178 176.428 230.86 176.276 231.55 176.28C234.31 176.28 237.78 176.37 241.31 176.73C246.878 177.185 252.408 178.024 257.86 179.24C260.817 179.953 263.724 180.862 266.56 181.96C268.28 182.54 270.35 187.22 272.23 192.55Z" fill="#263238"/>
<path d="M267.166 235.94C267.166 235.94 285.936 290.21 285.486 316.31C285.226 331.26 284.096 359.12 279.586 378.71C275.906 394.71 260.906 404.91 260.906 404.91L248.906 404.2C248.906 404.2 242.406 379.8 243.536 370.09C245.786 350.76 252.456 336.24 251.646 318.49C250.366 289.43 241.766 235.49 241.766 235.49L267.166 235.94Z" fill="#407BFF"/>
<path d="M246.497 407.33L263.447 408.33L264.987 403.24L246.047 401.49L246.497 407.33Z" fill="#263238"/>
<path opacity="0.2" d="M248.633 345.58C248.633 345.58 248.633 345.48 248.733 345.49C259.383 346.49 266.733 331.16 264.983 310.17L259.333 256.67L248.633 345.58Z" fill="black"/>
<path d="M258.744 235.49C258.744 235.49 273.664 330.92 242.644 341.66C226.274 347.86 212.504 341.14 196.194 333.92C186.764 329.75 174.984 318.46 174.984 318.46L179.514 306.13C187.662 303.927 196.187 303.497 204.514 304.87C220.414 307.33 221.084 311.87 226.734 308.44C238.614 279.08 218.174 255.87 232.064 235.44L258.744 235.49Z" fill="#407BFF"/>
<path d="M180.404 303.79L174.344 319.78L178.804 323.19L186.004 304.16L180.404 303.79Z" fill="#263238"/>
<path d="M177.902 217.56C176.392 219.79 168.732 218.28 168.732 218.28L167.102 208.79L176.512 212.56L177.902 217.56Z" fill="#FFB573"/>
<path d="M169.003 208.3L170.463 218.16L164.813 219C164.507 219.028 164.201 218.941 163.955 218.757C163.71 218.572 163.541 218.302 163.483 218L161.313 211C161.276 210.837 161.303 210.667 161.389 210.523C161.475 210.38 161.612 210.275 161.773 210.23L169.003 208.3Z" fill="#FFB573"/>
<path d="M166.477 212.77L169.697 213.34L172.747 211.05L171.567 210.21C170.767 209.641 170.205 208.797 169.987 207.84C169.76 206.837 169.623 205.817 169.577 204.79V204.45C169.538 204.148 169.402 203.868 169.189 203.651C168.976 203.434 168.697 203.293 168.397 203.25L167.597 203.84C167.097 204.93 167.457 206.2 167.397 207.05L167.267 208.7L165.977 209.26L166.477 212.77Z" fill="#FFB573"/>
<path d="M228.67 180L209.75 206L175 212.86V218.56C175 218.56 207.66 220.98 215 216.71C222.34 212.44 234.65 186.54 234.65 186.54L228.67 180Z" fill="#FFB573"/>
<path d="M228.454 130C220.514 127.34 211.304 132.27 207.674 139.81C204.044 147.35 205.314 156.6 209.404 163.9C210.634 166.11 212.104 168.19 213.114 170.5C214.236 172.79 214.481 175.412 213.804 177.87C212.984 180.26 212.144 181.79 209.184 181.41C209.184 181.41 209.184 179.77 210.314 179.97C210.314 179.97 207.914 181.3 206.974 180.43C208.064 182.11 210.974 181.5 211.904 179.72C213.294 177.07 210.734 173.48 207.734 173.51C204.734 173.54 202.294 176.58 202.394 179.57C202.519 181.066 203.051 182.498 203.932 183.713C204.814 184.927 206.011 185.877 207.394 186.46C206.583 186.594 205.751 186.455 205.027 186.066C204.304 185.677 203.729 185.06 203.394 184.31C204.754 187.87 209.194 189.44 212.944 188.74C216.694 188.04 219.864 185.64 222.804 183.21C226.804 179.93 230.894 175.78 230.804 170.65C230.714 166.82 228.254 163.53 226.184 160.3C224.114 157.07 222.304 153.13 223.624 149.54C224.734 146.49 227.754 144.65 230.414 142.79C232.334 141.46 236.234 138.49 235.774 135.68C235.304 133 230.704 130.75 228.454 130Z" fill="#263238"/>
<path d="M210.56 219L205.32 205.13L206.52 205.23C207.491 205.311 208.465 205.111 209.325 204.654C210.185 204.196 210.895 203.501 211.37 202.65C215.37 195.53 225.7 177.46 228.61 176.56C232.76 175.33 237.03 178.65 238.61 183.56C239.8 187.17 227.61 202.65 221.99 211.45C217 219.24 210.56 219 210.56 219Z" fill="#263238"/>
<path d="M159.457 313.94V314.05C159.53 314.243 159.651 314.413 159.809 314.546C159.966 314.679 160.155 314.77 160.357 314.81C160.478 314.848 160.607 314.855 160.731 314.828C160.856 314.802 160.971 314.744 161.067 314.66C161.907 313.89 161.367 310.66 161.317 310.34C161.311 310.299 161.293 310.26 161.264 310.23C161.235 310.199 161.198 310.178 161.157 310.17C161.118 310.165 161.078 310.17 161.042 310.184C161.005 310.198 160.972 310.221 160.947 310.25C160.267 311.21 159.187 312.92 159.457 313.94ZM160.997 310.94C161.177 312.22 161.257 313.94 160.787 314.36C160.738 314.387 160.682 314.402 160.627 314.402C160.571 314.402 160.515 314.387 160.467 314.36C160.332 314.335 160.206 314.276 160.101 314.188C159.996 314.101 159.915 313.988 159.867 313.86C159.687 313.32 160.067 312.22 160.997 310.92V310.94Z" fill="#407BFF"/>
<path d="M161 310.76C161.26 311.84 162.28 313.68 163.18 313.9C163.344 313.933 163.515 313.91 163.664 313.833C163.813 313.757 163.931 313.633 164 313.48C164.079 313.338 164.125 313.179 164.135 313.017C164.145 312.855 164.12 312.692 164.06 312.54C163.65 311.3 161.29 310.28 161.19 310.23C161.158 310.213 161.122 310.204 161.085 310.204C161.049 310.204 161.013 310.213 160.98 310.23C160.951 310.254 160.928 310.285 160.914 310.32C160.9 310.355 160.895 310.393 160.9 310.43C160.925 310.543 160.958 310.653 161 310.76ZM163.72 312.76C163.741 312.849 163.743 312.94 163.728 313.029C163.712 313.119 163.679 313.204 163.63 313.28C163.5 313.52 163.37 313.52 163.27 313.5C162.66 313.38 161.73 311.87 161.43 310.82C162.2 311.21 163.43 311.94 163.69 312.7C163.683 312.72 163.683 312.741 163.69 312.76H163.72Z" fill="#407BFF"/>
<path d="M232.387 232.6L231.457 235.85C231.337 236.1 231.627 236.36 232.047 236.35H266.547C266.877 236.35 267.147 236.18 267.167 235.98L267.487 232.73C267.487 232.51 267.227 232.31 266.867 232.32H232.967C232.854 232.312 232.741 232.333 232.639 232.382C232.537 232.431 232.45 232.507 232.387 232.6Z" fill="#407BFF"/>
<path opacity="0.5" d="M232.387 232.6L231.457 235.85C231.337 236.1 231.627 236.36 232.047 236.35H266.547C266.877 236.35 267.147 236.18 267.167 235.98L267.487 232.73C267.487 232.51 267.227 232.31 266.867 232.32H232.967C232.854 232.312 232.741 232.333 232.639 232.382C232.537 232.431 232.45 232.507 232.387 232.6Z" fill="#3A3A3C"/>
<path d="M239.004 236.65H238.004C237.814 236.65 237.654 236.55 237.674 236.43L238.124 232.2C238.124 232.08 238.314 231.98 238.514 231.98H239.514C239.704 231.98 239.854 232.08 239.844 232.21L239.394 236.43C239.334 236.55 239.154 236.66 239.004 236.65Z" fill="#407BFF"/>
<path d="M263.876 236.65H262.876C262.696 236.65 262.536 236.55 262.556 236.43L263.006 232.21C263.006 232.08 263.186 231.98 263.376 231.98H264.376C264.566 231.98 264.726 232.08 264.706 232.2L264.256 236.42C264.236 236.55 264.076 236.65 263.876 236.65Z" fill="#407BFF"/>
<path d="M252.465 236.63H251.465C251.275 236.63 251.115 236.53 251.135 236.41L251.585 232.19C251.585 232.06 251.775 231.96 251.965 231.96H252.965C253.155 231.96 253.304 232.06 253.294 232.18L252.835 236.4C252.835 236.53 252.665 236.63 252.465 236.63Z" fill="#407BFF"/>
<path d="M242.873 158.53C243.933 163.98 244.973 173.82 241.273 176.78C241.273 176.78 242.753 182.37 252.643 183.86C263.563 185.5 257.833 179.28 257.833 179.28C251.883 176.93 252.033 172.63 253.053 168.67L242.873 158.53Z" fill="#FFB573"/>
<path d="M241.313 176.73C246.59 177.065 251.835 177.793 257.003 178.91L264.483 181.14C265.813 183.82 263.633 189.33 257.373 190.38C257.373 190.38 241.603 192.55 236.953 176.31L241.313 176.73Z" fill="#FFB573"/>
<path opacity="0.2" d="M247 162.68L253 168.68C252.747 169.609 252.583 170.56 252.51 171.52C250.23 170.85 246.57 168.34 246.32 165.94C246.323 164.819 246.554 163.709 247 162.68Z" fill="black"/>
<path d="M236.189 151.65C238.869 160.11 239.809 163.75 245.299 167.08C253.479 172.08 263.299 166.96 263.199 157.88C263.119 149.7 258.769 137.24 249.479 135.88C247.437 135.574 245.351 135.796 243.419 136.524C241.487 137.252 239.773 138.463 238.441 140.04C237.109 141.618 236.202 143.51 235.808 145.537C235.414 147.564 235.545 149.658 236.189 151.62V151.65Z" fill="#FFB573"/>
<path d="M256.383 150.33C257.329 151.815 258.476 153.161 259.793 154.33C259.485 154.663 259.108 154.926 258.688 155.098C258.269 155.271 257.816 155.35 257.363 155.33L256.383 150.33Z" fill="#ED893E"/>
<path d="M255.434 159.85C255.773 159.813 256.107 159.746 256.434 159.65C256.46 159.644 256.484 159.633 256.505 159.618C256.527 159.603 256.545 159.584 256.559 159.561C256.573 159.539 256.582 159.514 256.586 159.488C256.591 159.462 256.59 159.436 256.584 159.41C256.57 159.358 256.536 159.313 256.489 159.285C256.443 159.257 256.387 159.248 256.334 159.26C255.48 159.495 254.583 159.528 253.715 159.354C252.847 159.18 252.031 158.806 251.334 158.26C251.293 158.219 251.237 158.196 251.179 158.196C251.121 158.196 251.065 158.219 251.024 158.26C251.004 158.28 250.988 158.303 250.977 158.329C250.967 158.355 250.961 158.382 250.961 158.41C250.961 158.438 250.967 158.466 250.977 158.492C250.988 158.517 251.004 158.541 251.024 158.56C251.638 159.054 252.344 159.423 253.101 159.644C253.857 159.865 254.65 159.935 255.434 159.85Z" fill="#263238"/>
<path d="M233.284 134.76C232.182 135.473 231.267 136.44 230.616 137.58C229.965 138.719 229.597 139.999 229.544 141.31C229.498 141.812 229.577 142.316 229.774 142.78C229.872 143.009 230.03 143.209 230.23 143.358C230.43 143.507 230.666 143.601 230.914 143.63C231.674 143.63 232.234 142.95 232.654 142.31L234.594 139.31C235.393 138.336 236.065 137.264 236.594 136.12C237.244 134.15 234.474 134 233.284 134.76Z" fill="#407BFF"/>
<path d="M234.234 136.75C228.924 142.89 226.544 159.88 242.104 164.62C244.704 162.56 240.504 158.81 238.724 154.07C237.554 150.97 243.484 145.18 245.794 142.8C248.104 140.42 250.234 136.99 253.494 137.54C254.322 137.816 255.213 137.841 256.054 137.61C258.644 136.44 257.384 134.89 256.054 133.81C254.015 132.3 251.586 131.405 249.054 131.23C246.323 130.908 243.555 131.241 240.978 132.201C238.401 133.161 236.089 134.72 234.234 136.75Z" fill="#263238"/>
<path d="M251.503 134.69C257.753 139.9 249.503 140.03 245.133 143.33C240.943 146.5 243.882 151.69 236.792 154.1C231.002 155.79 229.663 154.77 228.062 153.65C230.045 153.307 231.859 152.318 233.221 150.836C234.583 149.355 235.417 147.465 235.592 145.46C236.082 141.66 244.363 128.65 251.503 134.69Z" fill="#263238"/>
<path d="M235.254 158.76C236.233 160.171 237.727 161.14 239.414 161.46C241.654 161.85 242.514 159.8 241.744 157.8C241.014 156 238.984 153.63 236.814 154.14C236.068 154.333 235.429 154.814 235.037 155.478C234.645 156.142 234.533 156.934 234.724 157.68C234.826 158.072 235.006 158.44 235.254 158.76Z" fill="#FFB573"/>
<path d="M250.432 135.22C251.642 138.3 255.132 137.89 257.712 141.11C259.302 143.11 262.422 136.94 258.172 134.51C253.922 132.08 248.532 130.4 250.432 135.22Z" fill="#263238"/>
<path d="M246.753 148.22C246.842 148.229 246.932 148.21 247.009 148.165C247.086 148.12 247.147 148.052 247.183 147.97C248.003 146.15 250.463 145.69 250.483 145.69C250.593 145.666 250.689 145.601 250.752 145.508C250.816 145.415 250.841 145.301 250.823 145.19C250.801 145.081 250.737 144.986 250.646 144.924C250.554 144.862 250.442 144.839 250.333 144.86C250.203 144.86 247.403 145.45 246.403 147.65C246.358 147.752 246.355 147.868 246.395 147.972C246.434 148.077 246.512 148.162 246.613 148.21H246.753V148.22Z" fill="#263238"/>
<path d="M259.755 144.54C259.828 144.545 259.901 144.53 259.966 144.497C260.032 144.463 260.086 144.413 260.125 144.35C260.157 144.305 260.179 144.254 260.191 144.2C260.203 144.146 260.203 144.091 260.193 144.037C260.183 143.983 260.162 143.931 260.131 143.885C260.1 143.839 260.061 143.8 260.015 143.77C259.461 143.386 258.823 143.142 258.155 143.056C257.486 142.971 256.807 143.048 256.175 143.28C256.122 143.301 256.074 143.332 256.034 143.372C255.994 143.412 255.963 143.459 255.942 143.512C255.922 143.565 255.912 143.621 255.914 143.677C255.916 143.734 255.93 143.789 255.955 143.84C255.999 143.942 256.081 144.022 256.184 144.064C256.287 144.105 256.403 144.103 256.505 144.06C257.002 143.886 257.534 143.834 258.056 143.907C258.577 143.98 259.074 144.176 259.505 144.48C259.583 144.518 259.668 144.538 259.755 144.54Z" fill="#263238"/>
<path d="M300.864 199.28L295.004 202.61L288.914 215.71C288.914 215.71 294.794 219.45 299.434 216.42C304.074 213.39 300.864 199.28 300.864 199.28Z" fill="#407BFF"/>
<path opacity="0.5" d="M300.864 199.28L295.004 202.61L288.914 215.71C288.914 215.71 294.794 219.45 299.434 216.42C304.074 213.39 300.864 199.28 300.864 199.28Z" fill="#3A3A3C"/>
<path d="M198.39 203.33L205.32 205.33L211.89 218.92C211.89 218.92 206.61 223.81 200.89 219.14C196.61 215.6 198.39 203.33 198.39 203.33Z" fill="#407BFF"/>
<g opacity="0.5">
<path d="M198.39 203.33L205.32 205.33L211.89 218.92C211.89 218.92 206.61 223.81 200.89 219.14C196.61 215.6 198.39 203.33 198.39 203.33Z" fill="#3A3A3C"/>
</g>
<path d="M259.352 147.93C259.832 147.84 260.352 148.38 260.462 149.12C260.572 149.86 260.302 150.54 259.822 150.62C259.342 150.7 258.822 150.17 258.712 149.43C258.602 148.69 258.872 148 259.352 147.93Z" fill="#263238"/>
<path d="M260.831 147.2L259.141 148.03C260.161 148.75 260.831 147.2 260.831 147.2Z" fill="#263238"/>
<path d="M251.002 149.65C251.482 149.56 252.002 150.1 252.112 150.84C252.222 151.58 251.952 152.26 251.472 152.34C250.992 152.42 250.472 151.89 250.362 151.15C250.252 150.41 250.502 149.74 251.002 149.65Z" fill="#263238"/>
<path d="M252.463 148.92L250.773 149.75C251.793 150.47 252.463 148.92 252.463 148.92Z" fill="#263238"/>
<path d="M208.666 187.91C207.724 187.915 206.791 187.739 205.916 187.39C202.816 186.12 201.376 182.9 201.916 178.54C201.933 178.409 202.002 178.29 202.107 178.209C202.212 178.129 202.345 178.093 202.476 178.11C202.541 178.117 202.605 178.138 202.662 178.17C202.72 178.202 202.77 178.246 202.81 178.298C202.85 178.351 202.879 178.411 202.896 178.474C202.912 178.538 202.916 178.605 202.906 178.67C202.386 182.54 203.606 185.38 206.256 186.46C207.794 186.986 209.459 187.013 211.013 186.535C212.567 186.057 213.93 185.1 214.906 183.8C217.416 180.46 216.596 175.72 212.686 170.8C202.446 157.95 203.126 151.12 204.576 145.72C206.676 137.88 212.826 128.9 230.226 130.63C230.359 130.643 230.48 130.709 230.565 130.812C230.649 130.915 230.689 131.047 230.676 131.18C230.663 131.312 230.597 131.434 230.494 131.519C230.391 131.603 230.259 131.643 230.126 131.63C213.436 129.97 207.536 138.53 205.536 145.99C204.096 151.39 203.536 157.7 213.466 170.19C219.466 177.72 217.036 182.65 215.706 184.41C214.874 185.488 213.808 186.363 212.588 186.969C211.369 187.576 210.028 187.897 208.666 187.91Z" fill="#263238"/>
</svg>
