<svg width="36" height="36" viewBox="0 0 36 36" fill="none" xmlns="http://www.w3.org/2000/svg">
<path d="M24.1023 22.1343C24.2624 22.2883 24.3906 22.4724 24.4794 22.676C24.5682 22.8796 24.6159 23.0988 24.6199 23.3209C24.6238 23.543 24.5838 23.7637 24.5022 23.9703C24.4207 24.1769 24.2991 24.3654 24.1445 24.5249C23.9871 24.687 23.7993 24.8164 23.5917 24.9057C23.3842 24.995 23.1611 25.0424 22.9352 25.0453C22.4955 25.0392 22.074 24.8686 21.7539 24.5671C20.7418 23.6025 19.3974 23.0645 17.9993 23.0645C16.6011 23.0645 15.2567 23.6025 14.2446 24.5671C14.0849 24.7213 13.8963 24.8426 13.6897 24.9239C13.4831 25.0052 13.2625 25.0451 13.0406 25.0411C12.8186 25.0372 12.5995 24.9896 12.3959 24.9011C12.1923 24.8125 12.0082 24.6847 11.854 24.5249C11.6998 24.3652 11.5786 24.1767 11.4972 23.9701C11.4159 23.7635 11.3761 23.5429 11.38 23.3209C11.3839 23.0989 11.4315 22.8799 11.5201 22.6763C11.6086 22.4727 11.7364 22.2885 11.8962 22.1343C13.5395 20.563 15.7256 19.6861 17.9993 19.6861C20.2729 19.6861 22.459 20.563 24.1023 22.1343ZM17.9993 12.9375C13.9265 12.9225 10.0134 14.5201 7.11497 17.3812C6.95622 17.535 6.82949 17.7186 6.74209 17.9215C6.65468 18.1245 6.60833 18.3427 6.60572 18.5637C6.6031 18.7846 6.64427 19.0039 6.72685 19.2088C6.80943 19.4138 6.93178 19.6004 7.08684 19.7578C7.24176 19.917 7.42657 20.044 7.63069 20.1316C7.83481 20.2192 8.05421 20.2656 8.27631 20.2682C8.49841 20.2708 8.71884 20.2296 8.92496 20.1468C9.13108 20.0641 9.31883 19.9414 9.47745 19.7859C11.7554 17.5596 14.8141 16.3131 17.9993 16.3131C21.1844 16.3131 24.2432 17.5596 26.5211 19.7859C26.8363 20.0948 27.2609 20.2667 27.7023 20.264C27.9273 20.2638 28.1501 20.219 28.3577 20.1321C28.5653 20.0452 28.7536 19.918 28.9117 19.7578C29.0667 19.6004 29.1891 19.4138 29.2717 19.2088C29.3542 19.0039 29.3954 18.7846 29.3928 18.5637C29.3902 18.3427 29.3438 18.1245 29.2564 17.9215C29.169 17.7186 29.0423 17.535 28.8835 17.3812C25.9851 14.5201 22.072 12.9225 17.9993 12.9375ZM33.6648 12.6C29.4857 8.49142 23.8598 6.18905 17.9993 6.18905C12.1388 6.18905 6.51283 8.49142 2.33376 12.6C2.01488 12.9152 1.83425 13.3441 1.83162 13.7924C1.82898 14.2408 2.00455 14.6718 2.31969 14.9906C2.63484 15.3095 3.06376 15.4901 3.51209 15.4928C3.96041 15.4954 4.39142 15.3199 4.7103 15.0047C8.25373 11.5162 13.0268 9.56098 17.9993 9.56098C22.9717 9.56098 27.7448 11.5162 31.2882 15.0047C31.6021 15.3175 32.0264 15.4943 32.4695 15.4969C32.8067 15.5006 33.1374 15.4031 33.4187 15.2171C33.7001 15.031 33.9192 14.765 34.0479 14.4532C34.1765 14.1414 34.2088 13.7982 34.1405 13.4678C34.0722 13.1375 33.9065 12.8353 33.6648 12.6ZM17.9993 25.8749C17.5543 25.8749 17.1192 26.0069 16.7492 26.2541C16.3792 26.5014 16.0908 26.8528 15.9205 27.2639C15.7502 27.675 15.7057 28.1274 15.7925 28.5639C15.8793 29.0003 16.0936 29.4012 16.4083 29.7159C16.7229 30.0306 17.1239 30.2448 17.5603 30.3317C17.9968 30.4185 18.4492 30.3739 18.8603 30.2036C19.2714 30.0333 19.6228 29.7449 19.87 29.3749C20.1173 29.0049 20.2492 28.5699 20.2492 28.1249C20.2492 27.5282 20.0122 26.9559 19.5902 26.5339C19.1683 26.112 18.596 25.8749 17.9993 25.8749Z" fill="white"/>
</svg>
