<svg width="17" height="19" viewBox="0 0 17 19" fill="none" xmlns="http://www.w3.org/2000/svg">
<g clip-path="url(#clip0_0_18)">
<path d="M8.45086 5.23233C6.05329 5.23233 4.1194 7.136 4.1194 9.4961C4.1194 11.8562 6.05329 13.7599 8.45086 13.7599C10.8484 13.7599 12.7823 11.8562 12.7823 9.4961C12.7823 7.136 10.8484 5.23233 8.45086 5.23233ZM8.45086 12.2681C6.90149 12.2681 5.63485 11.025 5.63485 9.4961C5.63485 7.96723 6.89772 6.72409 8.45086 6.72409C10.004 6.72409 11.2669 7.96723 11.2669 9.4961C11.2669 11.025 10.0002 12.2681 8.45086 12.2681ZM13.9698 5.05792C13.9698 5.61083 13.5174 6.05243 12.9595 6.05243C12.3978 6.05243 11.9492 5.60712 11.9492 5.05792C11.9492 4.50871 12.4016 4.06341 12.9595 4.06341C13.5174 4.06341 13.9698 4.50871 13.9698 5.05792ZM16.8386 6.06727C16.7745 4.73507 16.4654 3.55502 15.4739 2.58277C14.4862 1.61053 13.2875 1.30624 11.9341 1.23944C10.5393 1.16151 6.35864 1.16151 4.96383 1.23944C3.61426 1.30253 2.41547 1.60682 1.42403 2.57906C0.43258 3.55131 0.127229 4.73136 0.0593737 6.06356C-0.0197912 7.43658 -0.0197912 11.5519 0.0593737 12.9249C0.12346 14.2571 0.43258 15.4372 1.42403 16.4094C2.41547 17.3817 3.61049 17.686 4.96383 17.7528C6.35864 17.8307 10.5393 17.8307 11.9341 17.7528C13.2875 17.6897 14.4862 17.3854 15.4739 16.4094C16.4616 15.4372 16.7707 14.2571 16.8386 12.9249C16.9177 11.5519 16.9177 7.44029 16.8386 6.06727ZM15.0366 14.3981C14.7426 15.1255 14.1734 15.6858 13.4307 15.979C12.3186 16.4131 9.6798 16.313 8.45086 16.313C7.22192 16.313 4.57932 16.4094 3.47101 15.979C2.73213 15.6895 2.1629 15.1292 1.86509 14.3981C1.42403 13.3034 1.52581 10.7058 1.52581 9.4961C1.52581 8.28636 1.4278 5.68505 1.86509 4.59406C2.15913 3.86673 2.72836 3.30639 3.47101 3.01323C4.58309 2.57906 7.22192 2.67926 8.45086 2.67926C9.6798 2.67926 12.3224 2.58277 13.4307 3.01323C14.1696 3.30268 14.7388 3.86302 15.0366 4.59406C15.4777 5.68876 15.3759 8.28636 15.3759 9.4961C15.3759 10.7058 15.4777 13.3072 15.0366 14.3981Z" fill="white"/>
</g>
<defs>
<clipPath id="clip0_0_18">
<rect width="16.8" height="18.9" fill="white" transform="scale(1.00527)"/>
</clipPath>
</defs>
</svg>
