<svg width="30" height="30" viewBox="0 0 30 30" fill="none" xmlns="http://www.w3.org/2000/svg">
<path d="M26.375 8.9375C26.0625 8.625 25.6925 8.46875 25.265 8.46875C24.8383 8.46875 24.4688 8.625 24.1562 8.9375L15 18.0938L5.8125 8.90625C5.52083 8.61458 5.15625 8.46875 4.71875 8.46875C4.28125 8.46875 3.90625 8.625 3.59375 8.9375C3.28125 9.25 3.125 9.62 3.125 10.0475C3.125 10.4742 3.28125 10.8438 3.59375 11.1562L14.125 21.6563C14.25 21.7813 14.3854 21.87 14.5312 21.9225C14.6771 21.9742 14.8333 22 15 22C15.1667 22 15.3229 21.9742 15.4688 21.9225C15.6146 21.87 15.75 21.7813 15.875 21.6563L26.4062 11.125C26.6979 10.8333 26.8438 10.4742 26.8438 10.0475C26.8438 9.62 26.6875 9.25 26.375 8.9375Z" fill="black"/>
</svg>
