<svg width="96" height="24" viewBox="0 0 96 24" fill="none" xmlns="http://www.w3.org/2000/svg">
<path d="M5 9V21H1V9H5ZM9 21C8.46957 21 7.96086 20.7893 7.58579 20.4142C7.21071 20.0391 7 19.5304 7 19V9C7 8.45 7.22 7.95 7.59 7.59L14.17 1L15.23 2.06C15.5 2.33 15.67 2.7 15.67 3.11L15.64 3.43L14.69 8H21C21.5304 8 22.0391 8.21071 22.4142 8.58579C22.7893 8.96086 23 9.46957 23 10V12C23 12.26 22.95 12.5 22.86 12.73L19.84 19.78C19.54 20.5 18.83 21 18 21H9ZM9 19H18.03L21 12V10H12.21L13.34 4.68L9 9.03V19Z" fill="white"/>
<path d="M55 15V3H59V15H55ZM51 3C51.5304 3 52.0391 3.21071 52.4142 3.58579C52.7893 3.96086 53 4.46957 53 5V15C53 15.55 52.78 16.05 52.41 16.41L45.83 23L44.77 21.94C44.5 21.67 44.33 21.3 44.33 20.88L44.36 20.57L45.31 16H39C38.4696 16 37.9609 15.7893 37.5858 15.4142C37.2107 15.0391 37 14.5304 37 14V12C37 11.74 37.05 11.5 37.14 11.27L40.16 4.22C40.46 3.5 41.17 3 42 3H51ZM51 5H41.97L39 12V14H47.78L46.65 19.32L51 14.97V5Z" fill="white"/>
<path d="M90 16.08C89.24 16.08 88.56 16.38 88.04 16.85L80.91 12.7C80.96 12.47 81 12.24 81 12C81 11.76 80.96 11.53 80.91 11.3L87.96 7.19C88.5 7.69 89.21 8 90 8C91.66 8 93 6.66 93 5C93 3.34 91.66 2 90 2C88.34 2 87 3.34 87 5C87 5.24 87.04 5.47 87.09 5.7L80.04 9.81C79.5 9.31 78.79 9 78 9C76.34 9 75 10.34 75 12C75 13.66 76.34 15 78 15C78.79 15 79.5 14.69 80.04 14.19L87.16 18.35C87.11 18.56 87.08 18.78 87.08 19C87.08 20.61 88.39 21.92 90 21.92C91.61 21.92 92.92 20.61 92.92 19C92.92 17.39 91.61 16.08 90 16.08Z" fill="white"/>
</svg>
