<svg width="32" height="32" viewBox="0 0 32 32" fill="none" xmlns="http://www.w3.org/2000/svg">
<path d="M25.7142 24.2875C25.902 24.4771 26.0073 24.7331 26.0073 25C26.0073 25.2668 25.902 25.5229 25.7142 25.7125C25.5231 25.8973 25.2676 26.0006 25.0017 26.0006C24.7358 26.0006 24.4804 25.8973 24.2892 25.7125L16.0017 17.4125L7.71422 25.7125C7.52308 25.8973 7.2676 26.0006 7.00172 26.0006C6.73584 26.0006 6.48036 25.8973 6.28922 25.7125C6.10144 25.5229 5.99609 25.2668 5.99609 25C5.99609 24.7331 6.10144 24.4771 6.28922 24.2875L14.5892 16L6.28922 7.71246C6.12976 7.51817 6.04826 7.2715 6.06059 7.02045C6.07292 6.7694 6.17819 6.53191 6.35593 6.35417C6.53366 6.17644 6.77115 6.07117 7.02221 6.05884C7.27326 6.04651 7.51992 6.128 7.71422 6.28746L16.0017 14.5875L24.2892 6.28746C24.4835 6.128 24.7302 6.04651 24.9812 6.05884C25.2323 6.07117 25.4698 6.17644 25.6475 6.35417C25.8252 6.53191 25.9305 6.7694 25.9428 7.02045C25.9552 7.2715 25.8737 7.51817 25.7142 7.71246L17.4142 16L25.7142 24.2875Z" fill="white"/>
</svg>
