<svg width="18" height="10" viewBox="0 0 18 10" fill="none" xmlns="http://www.w3.org/2000/svg">
<path d="M0.33874 9.65985C0.231364 9.55275 0.146173 9.42551 0.0880465 9.28543C0.02992 9.14536 0 8.99518 0 8.84352C0 8.69186 0.02992 8.54169 0.0880465 8.40161C0.146173 8.26153 0.231364 8.1343 0.33874 8.02719L8.09618 0.269752C8.18152 0.184242 8.28288 0.116401 8.39447 0.0701132C8.50605 0.0238255 8.62567 0 8.74648 0C8.86728 0 8.98691 0.0238255 9.09849 0.0701132C9.21008 0.116401 9.31144 0.184242 9.39678 0.269752L17.1542 8.02719C17.6062 8.47917 17.6062 9.20787 17.1542 9.65985C16.7022 10.1118 15.9735 10.1118 15.5216 9.65985L8.75109 2.88939L1.9714 9.66908C1.51942 10.1118 0.790719 10.1118 0.33874 9.65985Z" fill="black"/>
</svg>
