<svg width="18" height="10" viewBox="0 0 18 10" fill="none" xmlns="http://www.w3.org/2000/svg">
<path d="M17.6438 1.89339L9.66491 9.31299C9.56992 9.40106 9.46702 9.46329 9.3562 9.49969C9.24538 9.53668 9.12665 9.55518 9 9.55518C8.87335 9.55518 8.75462 9.53668 8.6438 9.49969C8.53298 9.46329 8.43008 9.40106 8.33509 9.31299L0.332454 1.89339C0.110818 1.6879 0 1.43104 0 1.1228C0 0.814569 0.118734 0.55037 0.356201 0.330204C0.593668 0.110038 0.870712 -4.57764e-05 1.18734 -4.57764e-05C1.50396 -4.57764e-05 1.781 0.110038 2.01847 0.330204L9 6.8031L15.9815 0.330204C16.2032 0.124716 16.4761 0.0219707 16.8003 0.0219707C17.1252 0.0219707 17.4063 0.132054 17.6438 0.352221C17.8813 0.572387 18 0.829247 18 1.1228C18 1.41636 17.8813 1.67322 17.6438 1.89339Z" fill="white"/>
</svg>