<svg width="20" height="19" viewBox="0 0 20 19" fill="none" xmlns="http://www.w3.org/2000/svg">
<path d="M18.3393 7.4544L4.33927 1.22171C3.78676 0.976867 3.16289 0.8897 2.55271 0.972097C1.94252 1.05449 1.37573 1.30245 0.929602 1.68215C0.483474 2.06185 0.179724 2.55482 0.0597636 3.09384C-0.0601964 3.63287 0.00947219 4.19173 0.259271 4.69421L2.65927 9.47557C2.71373 9.59117 2.74177 9.71527 2.74177 9.84063C2.74177 9.96599 2.71373 10.0901 2.65927 10.2057L0.259271 14.9871C0.055971 15.3937 -0.0299735 15.8391 0.00924794 16.2829C0.0484693 16.7266 0.211613 17.1546 0.483853 17.5279C0.756092 17.9013 1.1288 18.2081 1.56809 18.4206C2.00739 18.633 2.49935 18.7444 2.99927 18.7445C3.4675 18.7403 3.92876 18.643 4.34927 18.4595L18.3493 12.2269C18.8459 12.0044 19.2633 11.6635 19.555 11.2422C19.8466 10.8208 20.0011 10.3356 20.0011 9.84063C20.0011 9.34567 19.8466 8.86045 19.555 8.4391C19.2633 8.01774 18.8459 7.67683 18.3493 7.4544H18.3393ZM17.4493 10.6331L3.44927 16.8658C3.26543 16.9444 3.059 16.971 2.85766 16.9422C2.65631 16.9134 2.46968 16.8304 2.32278 16.7045C2.17589 16.5785 2.07575 16.4156 2.0358 16.2375C1.99585 16.0595 2.018 15.8748 2.09927 15.7083L4.48927 10.9269C4.52021 10.8631 4.54692 10.7976 4.56927 10.731H11.4593C11.7245 10.731 11.9788 10.6372 12.1664 10.4702C12.3539 10.3032 12.4593 10.0768 12.4593 9.84063C12.4593 9.60449 12.3539 9.37801 12.1664 9.21103C11.9788 9.04406 11.7245 8.95025 11.4593 8.95025H4.56927C4.54692 8.88362 4.52021 8.81821 4.48927 8.75436L2.09927 3.973C2.018 3.80647 1.99585 3.62179 2.0358 3.44373C2.07575 3.26567 2.17589 3.10274 2.32278 2.97679C2.46968 2.85084 2.65631 2.76789 2.85766 2.73906C3.059 2.71024 3.26543 2.73691 3.44927 2.8155L17.4493 9.04819C17.6131 9.12291 17.7505 9.23643 17.8465 9.37625C17.9425 9.51607 17.9933 9.67676 17.9933 9.84063C17.9933 10.0045 17.9425 10.1652 17.8465 10.305C17.7505 10.4448 17.6131 10.5584 17.4493 10.6331Z" fill="#1A1A1A"/>
</svg>